<?xml version="1.0" encoding="UTF-8" standalone="no"?>
<!DOCTYPE svg PUBLIC "-//W3C//DTD SVG 1.1//EN"
 "http://www.w3.org/Graphics/SVG/1.1/DTD/svg11.dtd">
<!-- Generated by graphviz version 2.38.0 (20140413.2041)
 -->
<!-- Title: G Pages: 1 -->
<svg width="2291pt" height="322pt"
 viewBox="0.00 0.00 2291.00 322.00" xmlns="http://www.w3.org/2000/svg" xmlns:xlink="http://www.w3.org/1999/xlink">
<g id="graph0" class="graph" transform="scale(1 1) rotate(0) translate(4 318)">
<title>G</title>
<polygon fill="white" stroke="none" points="-4,4 -4,-318 2287,-318 2287,4 -4,4"/>
<!-- ihipDevice_t::initProperties -->
<g id="node1" class="node"><title>ihipDevice_t::initProperties</title>
<polygon fill="Wheat" stroke="black" points="1026.5,-314 889.5,-314 889.5,-292 1026.5,-292 1026.5,-314"/>
<text text-anchor="middle" x="958" y="-299.9" font-family="Times New Roman,serif" font-size="12.00" fill="blue">ihipDevice_t::initProperties</text>
</g>
<!-- hsa_iterate_agents -->
<g id="node2" class="node"><title>hsa_iterate_agents</title>
<polygon fill="Wheat" stroke="black" points="159,-241 59,-241 59,-219 159,-219 159,-241"/>
<text text-anchor="middle" x="109" y="-226.9" font-family="Times New Roman,serif" font-size="12.00" fill="blue">hsa_iterate_agents</text>
</g>
<!-- ihipDevice_t::initProperties&#45;&gt;hsa_iterate_agents -->
<g id="edge1" class="edge"><title>ihipDevice_t::initProperties&#45;&gt;hsa_iterate_agents</title>
<path fill="none" stroke="red" d="M889.339,-299.787C789.74,-296.239 599.434,-288.195 438,-274 320.747,-263.69 289.27,-258.705 169.145,-241.125"/>
<polygon fill="red" stroke="red" points="169.588,-237.653 159.187,-239.669 168.575,-244.579 169.588,-237.653"/>
<text text-anchor="middle" x="441.5" y="-262.8" font-family="Times New Roman,serif" font-size="14.00">1</text>
</g>
<!-- HSA::hsa_iterate_agents -->
<g id="node3" class="node"><title>HSA::hsa_iterate_agents</title>
<polygon fill="Wheat" stroke="black" points="305,-241 177,-241 177,-219 305,-219 305,-241"/>
<text text-anchor="middle" x="241" y="-226.9" font-family="Times New Roman,serif" font-size="12.00" fill="blue">HSA::hsa_iterate_agents</text>
</g>
<!-- ihipDevice_t::initProperties&#45;&gt;HSA::hsa_iterate_agents -->
<g id="edge2" class="edge"><title>ihipDevice_t::initProperties&#45;&gt;HSA::hsa_iterate_agents</title>
<path fill="none" stroke="orange" d="M889.256,-298.041C813.069,-293.397 686.601,-284.922 578,-274 487.432,-264.892 383.589,-251.138 315.389,-241.65"/>
<polygon fill="orange" stroke="orange" points="315.563,-238.141 305.175,-240.224 314.595,-245.073 315.563,-238.141"/>
<text text-anchor="middle" x="581.5" y="-262.8" font-family="Times New Roman,serif" font-size="14.00">2</text>
</g>
<!-- hsa_agent_get_info -->
<g id="node6" class="node"><title>hsa_agent_get_info</title>
<polygon fill="Wheat" stroke="black" points="463,-241 359,-241 359,-219 463,-219 463,-241"/>
<text text-anchor="middle" x="411" y="-226.9" font-family="Times New Roman,serif" font-size="12.00" fill="blue">hsa_agent_get_info</text>
</g>
<!-- ihipDevice_t::initProperties&#45;&gt;hsa_agent_get_info -->
<g id="edge5" class="edge"><title>ihipDevice_t::initProperties&#45;&gt;hsa_agent_get_info</title>
<path fill="none" stroke="greenyellow" d="M889.498,-295.384C836.805,-290.117 762.215,-282.277 697,-274 599.868,-261.672 573.5,-256.815 473.178,-241.171"/>
<polygon fill="greenyellow" stroke="greenyellow" points="473.654,-237.703 463.234,-239.622 472.577,-244.619 473.654,-237.703"/>
<text text-anchor="middle" x="700.5" y="-262.8" font-family="Times New Roman,serif" font-size="14.00">3</text>
</g>
<!-- HSA::hsa_agent_get_info -->
<g id="node7" class="node"><title>HSA::hsa_agent_get_info</title>
<polygon fill="Wheat" stroke="black" points="612.5,-241 481.5,-241 481.5,-219 612.5,-219 612.5,-241"/>
<text text-anchor="middle" x="547" y="-226.9" font-family="Times New Roman,serif" font-size="12.00" fill="blue">HSA::hsa_agent_get_info</text>
</g>
<!-- ihipDevice_t::initProperties&#45;&gt;HSA::hsa_agent_get_info -->
<g id="edge6" class="edge"><title>ihipDevice_t::initProperties&#45;&gt;HSA::hsa_agent_get_info</title>
<path fill="none" stroke="green" d="M895.424,-291.984C863.041,-286.743 822.877,-280.151 787,-274 727.6,-263.816 660.039,-251.66 611.766,-242.875"/>
<polygon fill="green" stroke="green" points="612.233,-239.403 601.768,-241.053 610.979,-246.289 612.233,-239.403"/>
<text text-anchor="middle" x="790.5" y="-262.8" font-family="Times New Roman,serif" font-size="14.00">4</text>
</g>
<!-- hsa_system_get_info -->
<g id="node13" class="node"><title>hsa_system_get_info</title>
<polygon fill="Wheat" stroke="black" points="741,-241 631,-241 631,-219 741,-219 741,-241"/>
<text text-anchor="middle" x="686" y="-226.9" font-family="Times New Roman,serif" font-size="12.00" fill="blue">hsa_system_get_info</text>
</g>
<!-- ihipDevice_t::initProperties&#45;&gt;hsa_system_get_info -->
<g id="edge12" class="edge"><title>ihipDevice_t::initProperties&#45;&gt;hsa_system_get_info</title>
<path fill="none" stroke="blue" d="M919.606,-291.978C871.043,-279.302 787.385,-257.465 734.469,-243.652"/>
<polygon fill="blue" stroke="blue" points="735.198,-240.225 724.638,-241.086 733.43,-246.998 735.198,-240.225"/>
<text text-anchor="middle" x="850.5" y="-262.8" font-family="Times New Roman,serif" font-size="14.00">5</text>
</g>
<!-- HSA::hsa_system_get_info -->
<g id="node14" class="node"><title>HSA::hsa_system_get_info</title>
<polygon fill="Wheat" stroke="black" points="897,-241 759,-241 759,-219 897,-219 897,-241"/>
<text text-anchor="middle" x="828" y="-226.9" font-family="Times New Roman,serif" font-size="12.00" fill="blue">HSA::hsa_system_get_info</text>
</g>
<!-- ihipDevice_t::initProperties&#45;&gt;HSA::hsa_system_get_info -->
<g id="edge13" class="edge"><title>ihipDevice_t::initProperties&#45;&gt;HSA::hsa_system_get_info</title>
<path fill="none" stroke="indigo" d="M939.65,-291.978C917.804,-280.047 881.101,-260.001 855.773,-246.168"/>
<polygon fill="indigo" stroke="indigo" points="857.132,-242.922 846.678,-241.201 853.776,-249.066 857.132,-242.922"/>
<text text-anchor="middle" x="908.5" y="-262.8" font-family="Times New Roman,serif" font-size="14.00">6</text>
</g>
<!-- hsa_amd_agent_iterate_memory_pools -->
<g id="node17" class="node"><title>hsa_amd_agent_iterate_memory_pools</title>
<polygon fill="Wheat" stroke="black" points="1109,-241 915,-241 915,-219 1109,-219 1109,-241"/>
<text text-anchor="middle" x="1012" y="-226.9" font-family="Times New Roman,serif" font-size="12.00" fill="blue">hsa_amd_agent_iterate_memory_pools</text>
</g>
<!-- ihipDevice_t::initProperties&#45;&gt;hsa_amd_agent_iterate_memory_pools -->
<g id="edge16" class="edge"><title>ihipDevice_t::initProperties&#45;&gt;hsa_amd_agent_iterate_memory_pools</title>
<path fill="none" stroke="purple" d="M965.737,-291.827C974.158,-280.756 987.795,-262.825 998.086,-249.294"/>
<polygon fill="purple" stroke="purple" points="1001.01,-251.232 1004.28,-241.154 995.438,-246.994 1001.01,-251.232"/>
<text text-anchor="middle" x="993.5" y="-262.8" font-family="Times New Roman,serif" font-size="14.00">7</text>
</g>
<!-- AMD::hsa_amd_agent_iterate_memory_pools -->
<g id="node18" class="node"><title>AMD::hsa_amd_agent_iterate_memory_pools</title>
<polygon fill="Wheat" stroke="black" points="1353,-241 1127,-241 1127,-219 1353,-219 1353,-241"/>
<text text-anchor="middle" x="1240" y="-226.9" font-family="Times New Roman,serif" font-size="12.00" fill="blue">AMD::hsa_amd_agent_iterate_memory_pools</text>
</g>
<!-- ihipDevice_t::initProperties&#45;&gt;AMD::hsa_amd_agent_iterate_memory_pools -->
<g id="edge17" class="edge"><title>ihipDevice_t::initProperties&#45;&gt;AMD::hsa_amd_agent_iterate_memory_pools</title>
<path fill="none" stroke="pink" d="M997.806,-291.978C1048.26,-279.275 1135.25,-257.374 1190.09,-243.566"/>
<polygon fill="pink" stroke="pink" points="1191.1,-246.921 1199.94,-241.086 1189.39,-240.133 1191.1,-246.921"/>
<text text-anchor="middle" x="1128.5" y="-262.8" font-family="Times New Roman,serif" font-size="14.00">8</text>
</g>
<!-- hsa_region_get_info -->
<g id="node22" class="node"><title>hsa_region_get_info</title>
<polygon fill="Wheat" stroke="black" points="1478.5,-241 1371.5,-241 1371.5,-219 1478.5,-219 1478.5,-241"/>
<text text-anchor="middle" x="1425" y="-226.9" font-family="Times New Roman,serif" font-size="12.00" fill="blue">hsa_region_get_info</text>
</g>
<!-- ihipDevice_t::initProperties&#45;&gt;hsa_region_get_info -->
<g id="edge23" class="edge"><title>ihipDevice_t::initProperties&#45;&gt;hsa_region_get_info</title>
<path fill="none" stroke="black" d="M1025.57,-291.956C1103.71,-280.308 1236.48,-260.402 1361.27,-241.104"/>
<polygon fill="black" stroke="black" points="1362.04,-244.527 1371.39,-239.538 1360.97,-237.609 1362.04,-244.527"/>
<text text-anchor="middle" x="1243.5" y="-262.8" font-family="Times New Roman,serif" font-size="14.00">9</text>
</g>
<!-- HSA::hsa_region_get_info -->
<g id="node23" class="node"><title>HSA::hsa_region_get_info</title>
<polygon fill="Wheat" stroke="black" points="1639.5,-241 1504.5,-241 1504.5,-219 1639.5,-219 1639.5,-241"/>
<text text-anchor="middle" x="1572" y="-226.9" font-family="Times New Roman,serif" font-size="12.00" fill="blue">HSA::hsa_region_get_info</text>
</g>
<!-- ihipDevice_t::initProperties&#45;&gt;HSA::hsa_region_get_info -->
<g id="edge24" class="edge"><title>ihipDevice_t::initProperties&#45;&gt;HSA::hsa_region_get_info</title>
<path fill="none" stroke="brown" d="M1026.75,-296.171C1086.18,-290.956 1174.34,-282.794 1251,-274 1334.25,-264.45 1429.35,-251.447 1494.3,-242.247"/>
<polygon fill="brown" stroke="brown" points="1495.05,-245.676 1504.46,-240.805 1494.07,-238.745 1495.05,-245.676"/>
<text text-anchor="middle" x="1372" y="-262.8" font-family="Times New Roman,serif" font-size="14.00">10</text>
</g>
<!-- hsa_isa_get_info_alt -->
<g id="node26" class="node"><title>hsa_isa_get_info_alt</title>
<polygon fill="Wheat" stroke="black" points="1766,-241 1658,-241 1658,-219 1766,-219 1766,-241"/>
<text text-anchor="middle" x="1712" y="-226.9" font-family="Times New Roman,serif" font-size="12.00" fill="blue">hsa_isa_get_info_alt</text>
</g>
<!-- ihipDevice_t::initProperties&#45;&gt;hsa_isa_get_info_alt -->
<g id="edge27" class="edge"><title>ihipDevice_t::initProperties&#45;&gt;hsa_isa_get_info_alt</title>
<path fill="none" stroke="red" d="M1026.55,-298.702C1110.64,-294.376 1257.49,-285.91 1383,-274 1498.35,-263.054 1529.37,-257.956 1647.54,-241.179"/>
<polygon fill="red" stroke="red" points="1648.31,-244.605 1657.72,-239.736 1647.33,-237.674 1648.31,-244.605"/>
<text text-anchor="middle" x="1523" y="-262.8" font-family="Times New Roman,serif" font-size="14.00">11</text>
</g>
<!-- HSA::hsa_isa_get_info_alt -->
<g id="node27" class="node"><title>HSA::hsa_isa_get_info_alt</title>
<polygon fill="Wheat" stroke="black" points="2011,-241 1875,-241 1875,-219 2011,-219 2011,-241"/>
<text text-anchor="middle" x="1943" y="-226.9" font-family="Times New Roman,serif" font-size="12.00" fill="blue">HSA::hsa_isa_get_info_alt</text>
</g>
<!-- ihipDevice_t::initProperties&#45;&gt;HSA::hsa_isa_get_info_alt -->
<g id="edge28" class="edge"><title>ihipDevice_t::initProperties&#45;&gt;HSA::hsa_isa_get_info_alt</title>
<path fill="none" stroke="orange" d="M1026.79,-299.906C1134.89,-296.333 1351.07,-288.051 1534,-274 1649.32,-265.142 1782.47,-250.276 1864.7,-240.553"/>
<polygon fill="orange" stroke="orange" points="1865.2,-244.018 1874.72,-239.364 1864.38,-237.067 1865.2,-244.018"/>
<text text-anchor="middle" x="1698" y="-262.8" font-family="Times New Roman,serif" font-size="14.00">12</text>
</g>
<!-- core::Runtime::IsOpen -->
<g id="node4" class="node"><title>core::Runtime::IsOpen</title>
<polygon fill="Wheat" stroke="black" points="116,-168 0,-168 0,-146 116,-146 116,-168"/>
<text text-anchor="middle" x="58" y="-153.9" font-family="Times New Roman,serif" font-size="12.00" fill="blue">core::Runtime::IsOpen</text>
</g>
<!-- HSA::hsa_iterate_agents&#45;&gt;core::Runtime::IsOpen -->
<g id="edge3" class="edge"><title>HSA::hsa_iterate_agents&#45;&gt;core::Runtime::IsOpen</title>
<path fill="none" stroke="red" d="M215.169,-218.978C183.379,-206.644 129.237,-185.638 93.5406,-171.789"/>
<polygon fill="red" stroke="red" points="94.5845,-168.44 83.9955,-168.086 92.0525,-174.966 94.5845,-168.44"/>
<text text-anchor="middle" x="169.5" y="-189.8" font-family="Times New Roman,serif" font-size="14.00">1</text>
</g>
<!-- core::Runtime::IterateAgent -->
<g id="node5" class="node"><title>core::Runtime::IterateAgent</title>
<polygon fill="Wheat" stroke="black" points="273.5,-168 134.5,-168 134.5,-146 273.5,-146 273.5,-168"/>
<text text-anchor="middle" x="204" y="-153.9" font-family="Times New Roman,serif" font-size="12.00" fill="blue">core::Runtime::IterateAgent</text>
</g>
<!-- HSA::hsa_iterate_agents&#45;&gt;core::Runtime::IterateAgent -->
<g id="edge4" class="edge"><title>HSA::hsa_iterate_agents&#45;&gt;core::Runtime::IterateAgent</title>
<path fill="none" stroke="orange" d="M235.699,-218.827C230.039,-207.966 220.94,-190.506 213.939,-177.072"/>
<polygon fill="orange" stroke="orange" points="217.017,-175.404 209.291,-168.154 210.809,-178.639 217.017,-175.404"/>
<text text-anchor="middle" x="229.5" y="-189.8" font-family="Times New Roman,serif" font-size="14.00">2</text>
</g>
<!-- core::Runtime::IsOpen  -->
<g id="node8" class="node"><title>core::Runtime::IsOpen </title>
<polygon fill="Wheat" stroke="black" points="410.5,-168 291.5,-168 291.5,-146 410.5,-146 410.5,-168"/>
<text text-anchor="middle" x="351" y="-153.9" font-family="Times New Roman,serif" font-size="12.00" fill="blue">core::Runtime::IsOpen </text>
</g>
<!-- HSA::hsa_agent_get_info&#45;&gt;core::Runtime::IsOpen  -->
<g id="edge7" class="edge"><title>HSA::hsa_agent_get_info&#45;&gt;core::Runtime::IsOpen </title>
<path fill="none" stroke="red" d="M519.334,-218.978C485.14,-206.591 426.801,-185.459 388.576,-171.612"/>
<polygon fill="red" stroke="red" points="389.436,-168.201 378.842,-168.086 387.052,-174.782 389.436,-168.201"/>
<text text-anchor="middle" x="470.5" y="-189.8" font-family="Times New Roman,serif" font-size="14.00">1</text>
</g>
<!-- amd::CpuAgent::GetInfo -->
<g id="node9" class="node"><title>amd::CpuAgent::GetInfo</title>
<polygon fill="Wheat" stroke="black" points="555,-168 429,-168 429,-146 555,-146 555,-168"/>
<text text-anchor="middle" x="492" y="-153.9" font-family="Times New Roman,serif" font-size="12.00" fill="blue">amd::CpuAgent::GetInfo</text>
</g>
<!-- HSA::hsa_agent_get_info&#45;&gt;amd::CpuAgent::GetInfo -->
<g id="edge8" class="edge"><title>HSA::hsa_agent_get_info&#45;&gt;amd::CpuAgent::GetInfo</title>
<path fill="none" stroke="orange" d="M539.12,-218.827C530.543,-207.756 516.654,-189.825 506.172,-176.294"/>
<polygon fill="orange" stroke="orange" points="508.756,-173.916 499.866,-168.154 503.223,-178.203 508.756,-173.916"/>
<text text-anchor="middle" x="528.5" y="-189.8" font-family="Times New Roman,serif" font-size="14.00">2</text>
</g>
<!-- amd::GpuAgent::GetInfo -->
<g id="node10" class="node"><title>amd::GpuAgent::GetInfo</title>
<polygon fill="Wheat" stroke="black" points="699,-168 573,-168 573,-146 699,-146 699,-168"/>
<text text-anchor="middle" x="636" y="-153.9" font-family="Times New Roman,serif" font-size="12.00" fill="blue">amd::GpuAgent::GetInfo</text>
</g>
<!-- HSA::hsa_agent_get_info&#45;&gt;amd::GpuAgent::GetInfo -->
<g id="edge9" class="edge"><title>HSA::hsa_agent_get_info&#45;&gt;amd::GpuAgent::GetInfo</title>
<path fill="none" stroke="greenyellow" d="M559.752,-218.827C574.291,-207.228 598.266,-188.102 615.452,-174.392"/>
<polygon fill="greenyellow" stroke="greenyellow" points="617.638,-177.126 623.272,-168.154 613.272,-171.654 617.638,-177.126"/>
<text text-anchor="middle" x="603.5" y="-189.8" font-family="Times New Roman,serif" font-size="14.00">3</text>
</g>
<!-- std::string::_S_construct -->
<g id="node11" class="node"><title>std::string::_S_construct</title>
<polygon fill="Wheat" stroke="black" points="612.5,-95 489.5,-95 489.5,-73 612.5,-73 612.5,-95"/>
<text text-anchor="middle" x="551" y="-80.9" font-family="Times New Roman,serif" font-size="12.00" fill="blue">std::string::_S_construct</text>
</g>
<!-- amd::GpuAgent::GetInfo&#45;&gt;std::string::_S_construct -->
<g id="edge10" class="edge"><title>amd::GpuAgent::GetInfo&#45;&gt;std::string::_S_construct</title>
<path fill="none" stroke="red" d="M623.822,-145.827C610.062,-134.334 587.454,-115.449 571.074,-101.768"/>
<polygon fill="red" stroke="red" points="573.074,-98.8783 563.156,-95.1537 568.587,-104.251 573.074,-98.8783"/>
<text text-anchor="middle" x="605.5" y="-116.8" font-family="Times New Roman,serif" font-size="14.00">1</text>
</g>
<!-- hsa_amd_image_get_info_max_dim -->
<g id="node12" class="node"><title>hsa_amd_image_get_info_max_dim</title>
<polygon fill="Wheat" stroke="black" points="809.5,-95 630.5,-95 630.5,-73 809.5,-73 809.5,-95"/>
<text text-anchor="middle" x="720" y="-80.9" font-family="Times New Roman,serif" font-size="12.00" fill="blue">hsa_amd_image_get_info_max_dim</text>
</g>
<!-- amd::GpuAgent::GetInfo&#45;&gt;hsa_amd_image_get_info_max_dim -->
<g id="edge11" class="edge"><title>amd::GpuAgent::GetInfo&#45;&gt;hsa_amd_image_get_info_max_dim</title>
<path fill="none" stroke="orange" d="M648.035,-145.827C661.633,-134.334 683.975,-115.449 700.162,-101.768"/>
<polygon fill="orange" stroke="orange" points="702.609,-104.282 707.987,-95.1537 698.09,-98.936 702.609,-104.282"/>
<text text-anchor="middle" x="689.5" y="-116.8" font-family="Times New Roman,serif" font-size="14.00">2</text>
</g>
<!-- core::Runtime::IsOpen &#160; -->
<g id="node15" class="node"><title>core::Runtime::IsOpen &#160;</title>
<polygon fill="Wheat" stroke="black" points="839,-168 717,-168 717,-146 839,-146 839,-168"/>
<text text-anchor="middle" x="778" y="-153.9" font-family="Times New Roman,serif" font-size="12.00" fill="blue">core::Runtime::IsOpen &#160;</text>
</g>
<!-- HSA::hsa_system_get_info&#45;&gt;core::Runtime::IsOpen &#160; -->
<g id="edge14" class="edge"><title>HSA::hsa_system_get_info&#45;&gt;core::Runtime::IsOpen &#160;</title>
<path fill="none" stroke="red" d="M820.836,-218.827C813.113,-207.861 800.652,-190.166 791.156,-176.682"/>
<polygon fill="red" stroke="red" points="793.77,-174.315 785.15,-168.154 788.047,-178.345 793.77,-174.315"/>
<text text-anchor="middle" x="811.5" y="-189.8" font-family="Times New Roman,serif" font-size="14.00">1</text>
</g>
<!-- core::Runtime::GetSystemInfo -->
<g id="node16" class="node"><title>core::Runtime::GetSystemInfo</title>
<polygon fill="Wheat" stroke="black" points="1007,-168 857,-168 857,-146 1007,-146 1007,-168"/>
<text text-anchor="middle" x="932" y="-153.9" font-family="Times New Roman,serif" font-size="12.00" fill="blue">core::Runtime::GetSystemInfo</text>
</g>
<!-- HSA::hsa_system_get_info&#45;&gt;core::Runtime::GetSystemInfo -->
<g id="edge15" class="edge"><title>HSA::hsa_system_get_info&#45;&gt;core::Runtime::GetSystemInfo</title>
<path fill="none" stroke="orange" d="M842.901,-218.827C860.123,-207.07 888.673,-187.579 908.806,-173.834"/>
<polygon fill="orange" stroke="orange" points="910.841,-176.683 917.127,-168.154 906.895,-170.901 910.841,-176.683"/>
<text text-anchor="middle" x="893.5" y="-189.8" font-family="Times New Roman,serif" font-size="14.00">2</text>
</g>
<!-- core::Runtime::IsOpen &#160;&#160; -->
<g id="node19" class="node"><title>core::Runtime::IsOpen &#160;&#160;</title>
<polygon fill="Wheat" stroke="black" points="1150.5,-168 1025.5,-168 1025.5,-146 1150.5,-146 1150.5,-168"/>
<text text-anchor="middle" x="1088" y="-153.9" font-family="Times New Roman,serif" font-size="12.00" fill="blue">core::Runtime::IsOpen &#160;&#160;</text>
</g>
<!-- AMD::hsa_amd_agent_iterate_memory_pools&#45;&gt;core::Runtime::IsOpen &#160;&#160; -->
<g id="edge18" class="edge"><title>AMD::hsa_amd_agent_iterate_memory_pools&#45;&gt;core::Runtime::IsOpen &#160;&#160;</title>
<path fill="none" stroke="red" d="M1218.54,-218.978C1192.55,-206.837 1148.57,-186.292 1118.92,-172.443"/>
<polygon fill="red" stroke="red" points="1120.38,-169.262 1109.84,-168.201 1117.42,-175.604 1120.38,-169.262"/>
<text text-anchor="middle" x="1181.5" y="-189.8" font-family="Times New Roman,serif" font-size="14.00">1</text>
</g>
<!-- amd::GpuAgent::VisitRegion -->
<g id="node20" class="node"><title>amd::GpuAgent::VisitRegion</title>
<polygon fill="Wheat" stroke="black" points="1311.5,-168 1168.5,-168 1168.5,-146 1311.5,-146 1311.5,-168"/>
<text text-anchor="middle" x="1240" y="-153.9" font-family="Times New Roman,serif" font-size="12.00" fill="blue">amd::GpuAgent::VisitRegion</text>
</g>
<!-- AMD::hsa_amd_agent_iterate_memory_pools&#45;&gt;amd::GpuAgent::VisitRegion -->
<g id="edge19" class="edge"><title>AMD::hsa_amd_agent_iterate_memory_pools&#45;&gt;amd::GpuAgent::VisitRegion</title>
<path fill="none" stroke="orange" d="M1234.52,-218.953C1231.99,-213.758 1229.28,-207.217 1228,-201 1226.66,-194.469 1226.66,-192.531 1228,-186 1228.58,-183.183 1229.45,-180.299 1230.47,-177.505"/>
<polygon fill="orange" stroke="orange" points="1233.8,-178.618 1234.52,-168.047 1227.37,-175.863 1233.8,-178.618"/>
<text text-anchor="middle" x="1231.5" y="-189.8" font-family="Times New Roman,serif" font-size="14.00">2</text>
</g>
<!-- AMD::hsa_amd_agent_iterate_memory_pools&#45;&gt;amd::GpuAgent::VisitRegion -->
<g id="edge21" class="edge"><title>AMD::hsa_amd_agent_iterate_memory_pools&#45;&gt;amd::GpuAgent::VisitRegion</title>
<path fill="none" stroke="greenyellow" d="M1240,-218.827C1240,-208.283 1240,-191.518 1240,-178.256"/>
<polygon fill="greenyellow" stroke="greenyellow" points="1243.5,-178.154 1240,-168.154 1236.5,-178.154 1243.5,-178.154"/>
<text text-anchor="middle" x="1243.5" y="-189.8" font-family="Times New Roman,serif" font-size="14.00">3</text>
</g>
<!-- amd::CpuAgent::VisitRegion -->
<g id="node21" class="node"><title>amd::CpuAgent::VisitRegion</title>
<polygon fill="Wheat" stroke="black" points="1497.5,-168 1354.5,-168 1354.5,-146 1497.5,-146 1497.5,-168"/>
<text text-anchor="middle" x="1426" y="-153.9" font-family="Times New Roman,serif" font-size="12.00" fill="blue">amd::CpuAgent::VisitRegion</text>
</g>
<!-- AMD::hsa_amd_agent_iterate_memory_pools&#45;&gt;amd::CpuAgent::VisitRegion -->
<g id="edge22" class="edge"><title>AMD::hsa_amd_agent_iterate_memory_pools&#45;&gt;amd::CpuAgent::VisitRegion</title>
<path fill="none" stroke="green" d="M1266.25,-218.978C1298.57,-206.644 1353.6,-185.638 1389.88,-171.789"/>
<polygon fill="green" stroke="green" points="1391.48,-174.922 1399.58,-168.086 1388.99,-168.382 1391.48,-174.922"/>
<text text-anchor="middle" x="1352.5" y="-189.8" font-family="Times New Roman,serif" font-size="14.00">4</text>
</g>
<!-- amd::GpuAgent::VisitRegion&#45;&gt;amd::GpuAgent::VisitRegion -->
<g id="edge20" class="edge"><title>amd::GpuAgent::VisitRegion&#45;&gt;amd::GpuAgent::VisitRegion</title>
<path fill="none" stroke="red" d="M1311.63,-163.123C1322.29,-162.17 1329.5,-160.129 1329.5,-157 1329.5,-154.996 1326.54,-153.438 1321.61,-152.326"/>
<polygon fill="red" stroke="red" points="1322.03,-148.85 1311.63,-150.877 1321.02,-155.777 1322.03,-148.85"/>
<text text-anchor="middle" x="1333" y="-153.3" font-family="Times New Roman,serif" font-size="14.00">1</text>
</g>
<!-- core::Runtime::IsOpen &#160;&#160;&#160; -->
<g id="node24" class="node"><title>core::Runtime::IsOpen &#160;&#160;&#160;</title>
<polygon fill="Wheat" stroke="black" points="1644,-168 1516,-168 1516,-146 1644,-146 1644,-168"/>
<text text-anchor="middle" x="1580" y="-153.9" font-family="Times New Roman,serif" font-size="12.00" fill="blue">core::Runtime::IsOpen &#160;&#160;&#160;</text>
</g>
<!-- HSA::hsa_region_get_info&#45;&gt;core::Runtime::IsOpen &#160;&#160;&#160; -->
<g id="edge25" class="edge"><title>HSA::hsa_region_get_info&#45;&gt;core::Runtime::IsOpen &#160;&#160;&#160;</title>
<path fill="none" stroke="red" d="M1573.15,-218.827C1574.33,-208.283 1576.22,-191.518 1577.72,-178.256"/>
<polygon fill="red" stroke="red" points="1581.21,-178.483 1578.86,-168.154 1574.26,-177.699 1581.21,-178.483"/>
<text text-anchor="middle" x="1579.5" y="-189.8" font-family="Times New Roman,serif" font-size="14.00">1</text>
</g>
<!-- amd::MemoryRegion::GetInfo -->
<g id="node25" class="node"><title>amd::MemoryRegion::GetInfo</title>
<polygon fill="Wheat" stroke="black" points="1812,-168 1662,-168 1662,-146 1812,-146 1812,-168"/>
<text text-anchor="middle" x="1737" y="-153.9" font-family="Times New Roman,serif" font-size="12.00" fill="blue">amd::MemoryRegion::GetInfo</text>
</g>
<!-- HSA::hsa_region_get_info&#45;&gt;amd::MemoryRegion::GetInfo -->
<g id="edge26" class="edge"><title>HSA::hsa_region_get_info&#45;&gt;amd::MemoryRegion::GetInfo</title>
<path fill="none" stroke="orange" d="M1595.29,-218.978C1623.71,-206.75 1671.94,-185.997 1704.13,-172.146"/>
<polygon fill="orange" stroke="orange" points="1705.76,-175.253 1713.56,-168.086 1702.99,-168.823 1705.76,-175.253"/>
<text text-anchor="middle" x="1672.5" y="-189.8" font-family="Times New Roman,serif" font-size="14.00">2</text>
</g>
<!-- core::Runtime::IsOpen &#160;&#160;&#160;&#160; -->
<g id="node28" class="node"><title>core::Runtime::IsOpen &#160;&#160;&#160;&#160;</title>
<polygon fill="Wheat" stroke="black" points="1961.5,-168 1830.5,-168 1830.5,-146 1961.5,-146 1961.5,-168"/>
<text text-anchor="middle" x="1896" y="-153.9" font-family="Times New Roman,serif" font-size="12.00" fill="blue">core::Runtime::IsOpen &#160;&#160;&#160;&#160;</text>
</g>
<!-- HSA::hsa_isa_get_info_alt&#45;&gt;core::Runtime::IsOpen &#160;&#160;&#160;&#160; -->
<g id="edge29" class="edge"><title>HSA::hsa_isa_get_info_alt&#45;&gt;core::Runtime::IsOpen &#160;&#160;&#160;&#160;</title>
<path fill="none" stroke="red" d="M1936.27,-218.827C1929.01,-207.861 1917.29,-190.166 1908.37,-176.682"/>
<polygon fill="red" stroke="red" points="1911.16,-174.56 1902.72,-168.154 1905.32,-178.424 1911.16,-174.56"/>
<text text-anchor="middle" x="1926.5" y="-189.8" font-family="Times New Roman,serif" font-size="14.00">1</text>
</g>
<!-- amd::hsa::common::ObjectAt -->
<g id="node29" class="node"><title>amd::hsa::common::ObjectAt</title>
<polygon fill="Wheat" stroke="black" points="2126,-168 1980,-168 1980,-146 2126,-146 2126,-168"/>
<text text-anchor="middle" x="2053" y="-153.9" font-family="Times New Roman,serif" font-size="12.00" fill="blue">amd::hsa::common::ObjectAt</text>
</g>
<!-- HSA::hsa_isa_get_info_alt&#45;&gt;amd::hsa::common::ObjectAt -->
<g id="edge30" class="edge"><title>HSA::hsa_isa_get_info_alt&#45;&gt;amd::hsa::common::ObjectAt</title>
<path fill="none" stroke="orange" d="M1958.76,-218.827C1977.06,-207.017 2007.44,-187.404 2028.75,-173.65"/>
<polygon fill="orange" stroke="orange" points="2030.77,-176.517 2037.27,-168.154 2026.97,-170.636 2030.77,-176.517"/>
<text text-anchor="middle" x="2010.5" y="-189.8" font-family="Times New Roman,serif" font-size="14.00">2</text>
</g>
<!-- core::Isa::GetInfo -->
<g id="node31" class="node"><title>core::Isa::GetInfo</title>
<polygon fill="Wheat" stroke="black" points="2245,-168 2151,-168 2151,-146 2245,-146 2245,-168"/>
<text text-anchor="middle" x="2198" y="-153.9" font-family="Times New Roman,serif" font-size="12.00" fill="blue">core::Isa::GetInfo</text>
</g>
<!-- HSA::hsa_isa_get_info_alt&#45;&gt;core::Isa::GetInfo -->
<g id="edge33" class="edge"><title>HSA::hsa_isa_get_info_alt&#45;&gt;core::Isa::GetInfo</title>
<path fill="none" stroke="greenyellow" d="M1978.99,-218.978C2024.33,-206.354 2102.3,-184.646 2151.94,-170.824"/>
<polygon fill="greenyellow" stroke="greenyellow" points="2153.08,-174.14 2161.78,-168.086 2151.2,-167.396 2153.08,-174.14"/>
<text text-anchor="middle" x="2096.5" y="-189.8" font-family="Times New Roman,serif" font-size="14.00">3</text>
</g>
<!-- amd::hsa::common::IsAccessibleMemoryAddress -->
<g id="node30" class="node"><title>amd::hsa::common::IsAccessibleMemoryAddress</title>
<polygon fill="Wheat" stroke="black" points="2142,-95 1904,-95 1904,-73 2142,-73 2142,-95"/>
<text text-anchor="middle" x="2023" y="-80.9" font-family="Times New Roman,serif" font-size="12.00" fill="blue">amd::hsa::common::IsAccessibleMemoryAddress</text>
</g>
<!-- amd::hsa::common::ObjectAt&#45;&gt;amd::hsa::common::IsAccessibleMemoryAddress -->
<g id="edge31" class="edge"><title>amd::hsa::common::ObjectAt&#45;&gt;amd::hsa::common::IsAccessibleMemoryAddress</title>
<path fill="none" stroke="red" d="M2039.9,-145.949C2034.63,-141.134 2029.07,-134.911 2026,-128 2022.85,-120.925 2021.76,-112.545 2021.58,-105.07"/>
<polygon fill="red" stroke="red" points="2025.08,-105.106 2021.82,-95.0242 2018.08,-104.936 2025.08,-105.106"/>
<text text-anchor="middle" x="2029.5" y="-116.8" font-family="Times New Roman,serif" font-size="14.00">1</text>
</g>
<!-- amd::hsa::common::ObjectAt&#45;&gt;amd::hsa::common::IsAccessibleMemoryAddress -->
<g id="edge32" class="edge"><title>amd::hsa::common::ObjectAt&#45;&gt;amd::hsa::common::IsAccessibleMemoryAddress</title>
<path fill="none" stroke="orange" d="M2048.7,-145.827C2044.16,-135.072 2036.88,-117.844 2031.22,-104.465"/>
<polygon fill="orange" stroke="orange" points="2034.41,-103.003 2027.29,-95.1537 2027.96,-105.727 2034.41,-103.003"/>
<text text-anchor="middle" x="2043.5" y="-116.8" font-family="Times New Roman,serif" font-size="14.00">2</text>
</g>
<!-- core::Isa::GetFullName -->
<g id="node32" class="node"><title>core::Isa::GetFullName</title>
<polygon fill="Wheat" stroke="black" points="2280,-95 2160,-95 2160,-73 2280,-73 2280,-95"/>
<text text-anchor="middle" x="2220" y="-80.9" font-family="Times New Roman,serif" font-size="12.00" fill="blue">core::Isa::GetFullName</text>
</g>
<!-- core::Isa::GetInfo&#45;&gt;core::Isa::GetFullName -->
<g id="edge34" class="edge"><title>core::Isa::GetInfo&#45;&gt;core::Isa::GetFullName</title>
<path fill="none" stroke="red" d="M2201.15,-145.827C2204.45,-135.177 2209.72,-118.182 2213.85,-104.859"/>
<polygon fill="red" stroke="red" points="2217.24,-105.742 2216.85,-95.1537 2210.55,-103.67 2217.24,-105.742"/>
<text text-anchor="middle" x="2213.5" y="-116.8" font-family="Times New Roman,serif" font-size="14.00">1</text>
</g>
<!-- std::string::_S_construct  -->
<g id="node33" class="node"><title>std::string::_S_construct </title>
<polygon fill="Wheat" stroke="black" points="2283,-22 2157,-22 2157,-0 2283,-0 2283,-22"/>
<text text-anchor="middle" x="2220" y="-7.9" font-family="Times New Roman,serif" font-size="12.00" fill="blue">std::string::_S_construct </text>
</g>
<!-- core::Isa::GetFullName&#45;&gt;std::string::_S_construct  -->
<g id="edge35" class="edge"><title>core::Isa::GetFullName&#45;&gt;std::string::_S_construct </title>
<path fill="none" stroke="red" d="M2220,-72.8274C2220,-62.2828 2220,-45.5175 2220,-32.2559"/>
<polygon fill="red" stroke="red" points="2223.5,-32.1537 2220,-22.1537 2216.5,-32.1537 2223.5,-32.1537"/>
<text text-anchor="middle" x="2223.5" y="-43.8" font-family="Times New Roman,serif" font-size="14.00">1</text>
</g>
</g>
</svg>
