<?xml version="1.0" encoding="UTF-8" standalone="no"?>
<!DOCTYPE svg PUBLIC "-//W3C//DTD SVG 1.1//EN"
 "http://www.w3.org/Graphics/SVG/1.1/DTD/svg11.dtd">
<!-- Generated by graphviz version 2.38.0 (20140413.2041)
 -->
<!-- Title: G Pages: 1 -->
<svg width="704pt" height="436pt"
 viewBox="0.00 0.00 703.50 436.00" xmlns="http://www.w3.org/2000/svg" xmlns:xlink="http://www.w3.org/1999/xlink">
<g id="graph0" class="graph" transform="scale(1 1) rotate(0) translate(4 432)">
<title>G</title>
<polygon fill="white" stroke="none" points="-4,4 -4,-432 699.5,-432 699.5,4 -4,4"/>
<!-- kmalloc -->
<g id="node1" class="node"><title>kmalloc</title>
<polygon fill="Wheat" stroke="black" points="170.5,-428 116.5,-428 116.5,-406 170.5,-406 170.5,-428"/>
<text text-anchor="middle" x="143.5" y="-414.5" font-family="Times New Roman,serif" font-size="10.00" fill="blue">kmalloc</text>
</g>
<!-- kmalloc_order_trace -->
<g id="node2" class="node"><title>kmalloc_order_trace</title>
<polygon fill="Wheat" stroke="black" points="192.5,-370 94.5,-370 94.5,-348 192.5,-348 192.5,-370"/>
<text text-anchor="middle" x="143.5" y="-356.5" font-family="Times New Roman,serif" font-size="10.00" fill="blue">kmalloc_order_trace</text>
</g>
<!-- kmalloc&#45;&gt;kmalloc_order_trace -->
<g id="edge1" class="edge"><title>kmalloc&#45;&gt;kmalloc_order_trace</title>
<path fill="none" stroke="black" d="M143.5,-405.988C143.5,-398.91 143.5,-389.171 143.5,-380.478"/>
<polygon fill="black" stroke="black" points="147,-380.304 143.5,-370.304 140,-380.304 147,-380.304"/>
</g>
<!-- __get_free_pages -->
<g id="node3" class="node"><title>__get_free_pages</title>
<polygon fill="Wheat" stroke="black" points="188,-312 99,-312 99,-290 188,-290 188,-312"/>
<text text-anchor="middle" x="143.5" y="-298.5" font-family="Times New Roman,serif" font-size="10.00" fill="blue">__get_free_pages</text>
</g>
<!-- kmalloc_order_trace&#45;&gt;__get_free_pages -->
<g id="edge2" class="edge"><title>kmalloc_order_trace&#45;&gt;__get_free_pages</title>
<path fill="none" stroke="black" d="M143.5,-347.988C143.5,-340.91 143.5,-331.171 143.5,-322.478"/>
<polygon fill="black" stroke="black" points="147,-322.304 143.5,-312.304 140,-322.304 147,-322.304"/>
</g>
<!-- alloc_pages_current -->
<g id="node4" class="node"><title>alloc_pages_current</title>
<polygon fill="Wheat" stroke="black" points="192.5,-254 94.5,-254 94.5,-232 192.5,-232 192.5,-254"/>
<text text-anchor="middle" x="143.5" y="-240.5" font-family="Times New Roman,serif" font-size="10.00" fill="blue">alloc_pages_current</text>
</g>
<!-- __get_free_pages&#45;&gt;alloc_pages_current -->
<g id="edge3" class="edge"><title>__get_free_pages&#45;&gt;alloc_pages_current</title>
<path fill="none" stroke="black" d="M143.5,-289.988C143.5,-282.91 143.5,-273.171 143.5,-264.478"/>
<polygon fill="black" stroke="black" points="147,-264.304 143.5,-254.304 140,-264.304 147,-264.304"/>
</g>
<!-- policy_nodemask -->
<g id="node5" class="node"><title>policy_nodemask</title>
<polygon fill="Wheat" stroke="black" points="87,-196 0,-196 0,-174 87,-174 87,-196"/>
<text text-anchor="middle" x="43.5" y="-182.5" font-family="Times New Roman,serif" font-size="10.00" fill="blue">policy_nodemask</text>
</g>
<!-- alloc_pages_current&#45;&gt;policy_nodemask -->
<g id="edge4" class="edge"><title>alloc_pages_current&#45;&gt;policy_nodemask</title>
<path fill="none" stroke="black" d="M125.622,-231.988C110.359,-223.441 88.1705,-211.015 70.7041,-201.234"/>
<polygon fill="black" stroke="black" points="71.9956,-197.946 61.5604,-196.114 68.5753,-204.054 71.9956,-197.946"/>
</g>
<!-- policy_zonelist -->
<g id="node6" class="node"><title>policy_zonelist</title>
<polygon fill="Wheat" stroke="black" points="182,-196 105,-196 105,-174 182,-174 182,-196"/>
<text text-anchor="middle" x="143.5" y="-182.5" font-family="Times New Roman,serif" font-size="10.00" fill="blue">policy_zonelist</text>
</g>
<!-- alloc_pages_current&#45;&gt;policy_zonelist -->
<g id="edge5" class="edge"><title>alloc_pages_current&#45;&gt;policy_zonelist</title>
<path fill="none" stroke="black" d="M143.5,-231.988C143.5,-224.91 143.5,-215.171 143.5,-206.478"/>
<polygon fill="black" stroke="black" points="147,-206.304 143.5,-196.304 140,-206.304 147,-206.304"/>
</g>
<!-- __alloc_pages_nodemask -->
<g id="node7" class="node"><title>__alloc_pages_nodemask</title>
<polygon fill="Wheat" stroke="black" points="321,-196 200,-196 200,-174 321,-174 321,-196"/>
<text text-anchor="middle" x="260.5" y="-182.5" font-family="Times New Roman,serif" font-size="10.00" fill="blue">__alloc_pages_nodemask</text>
</g>
<!-- alloc_pages_current&#45;&gt;__alloc_pages_nodemask -->
<g id="edge6" class="edge"><title>alloc_pages_current&#45;&gt;__alloc_pages_nodemask</title>
<path fill="none" stroke="black" d="M164.417,-231.988C182.688,-223.243 209.442,-210.438 230.081,-200.559"/>
<polygon fill="black" stroke="black" points="231.86,-203.588 239.369,-196.114 228.838,-197.274 231.86,-203.588"/>
</g>
<!-- next_zones_zonelist -->
<g id="node8" class="node"><title>next_zones_zonelist</title>
<polygon fill="Wheat" stroke="black" points="104.5,-80 6.5,-80 6.5,-58 104.5,-58 104.5,-80"/>
<text text-anchor="middle" x="55.5" y="-66.5" font-family="Times New Roman,serif" font-size="10.00" fill="blue">next_zones_zonelist</text>
</g>
<!-- __alloc_pages_nodemask&#45;&gt;next_zones_zonelist -->
<g id="edge7" class="edge"><title>__alloc_pages_nodemask&#45;&gt;next_zones_zonelist</title>
<path fill="none" stroke="black" d="M242.308,-173.883C206.141,-153.771 125.042,-108.672 82.5853,-85.0621"/>
<polygon fill="black" stroke="black" points="84.0922,-81.8953 73.6516,-80.0941 80.6901,-88.013 84.0922,-81.8953"/>
</g>
<!-- get_page_from_freelist -->
<g id="node9" class="node"><title>get_page_from_freelist</title>
<polygon fill="Wheat" stroke="black" points="391.5,-138 281.5,-138 281.5,-116 391.5,-116 391.5,-138"/>
<text text-anchor="middle" x="336.5" y="-124.5" font-family="Times New Roman,serif" font-size="10.00" fill="blue">get_page_from_freelist</text>
</g>
<!-- __alloc_pages_nodemask&#45;&gt;get_page_from_freelist -->
<g id="edge8" class="edge"><title>__alloc_pages_nodemask&#45;&gt;get_page_from_freelist</title>
<path fill="none" stroke="black" d="M274.087,-173.988C285.365,-165.678 301.618,-153.703 314.711,-144.055"/>
<polygon fill="black" stroke="black" points="316.8,-146.864 322.774,-138.114 312.647,-141.228 316.8,-146.864"/>
</g>
<!-- get_page_from_freelist&#45;&gt;next_zones_zonelist -->
<g id="edge9" class="edge"><title>get_page_from_freelist&#45;&gt;next_zones_zonelist</title>
<path fill="none" stroke="black" d="M286.263,-115.988C238.164,-106.403 165.591,-91.9397 114.705,-81.7989"/>
<polygon fill="black" stroke="black" points="115.322,-78.3531 104.831,-79.8311 113.954,-85.2181 115.322,-78.3531"/>
</g>
<!-- __zone_watermark_ok -->
<g id="node10" class="node"><title>__zone_watermark_ok</title>
<polygon fill="Wheat" stroke="black" points="230,-80 123,-80 123,-58 230,-58 230,-80"/>
<text text-anchor="middle" x="176.5" y="-66.5" font-family="Times New Roman,serif" font-size="10.00" fill="blue">__zone_watermark_ok</text>
</g>
<!-- get_page_from_freelist&#45;&gt;__zone_watermark_ok -->
<g id="edge10" class="edge"><title>get_page_from_freelist&#45;&gt;__zone_watermark_ok</title>
<path fill="none" stroke="black" d="M307.895,-115.988C281.924,-106.898 243.421,-93.4223 214.801,-83.4053"/>
<polygon fill="black" stroke="black" points="215.721,-80.0193 205.126,-80.0192 213.409,-86.6263 215.721,-80.0193"/>
</g>
<!-- __rmqueue -->
<g id="node11" class="node"><title>__rmqueue</title>
<polygon fill="Wheat" stroke="black" points="310.5,-80 248.5,-80 248.5,-58 310.5,-58 310.5,-80"/>
<text text-anchor="middle" x="279.5" y="-66.5" font-family="Times New Roman,serif" font-size="10.00" fill="blue">__rmqueue</text>
</g>
<!-- get_page_from_freelist&#45;&gt;__rmqueue -->
<g id="edge11" class="edge"><title>get_page_from_freelist&#45;&gt;__rmqueue</title>
<path fill="none" stroke="black" d="M326.31,-115.988C318.224,-108.045 306.729,-96.7512 297.154,-87.3439"/>
<polygon fill="black" stroke="black" points="299.574,-84.8154 289.988,-80.3039 294.668,-89.8088 299.574,-84.8154"/>
</g>
<!-- get_pageblock_flags_group -->
<g id="node12" class="node"><title>get_pageblock_flags_group</title>
<polygon fill="Wheat" stroke="black" points="458.5,-80 328.5,-80 328.5,-58 458.5,-58 458.5,-80"/>
<text text-anchor="middle" x="393.5" y="-66.5" font-family="Times New Roman,serif" font-size="10.00" fill="blue">get_pageblock_flags_group</text>
</g>
<!-- get_page_from_freelist&#45;&gt;get_pageblock_flags_group -->
<g id="edge12" class="edge"><title>get_page_from_freelist&#45;&gt;get_pageblock_flags_group</title>
<path fill="none" stroke="black" d="M346.69,-115.988C354.776,-108.045 366.271,-96.7512 375.846,-87.3439"/>
<polygon fill="black" stroke="black" points="378.332,-89.8088 383.012,-80.3039 373.426,-84.8154 378.332,-89.8088"/>
</g>
<!-- __mod_zone_page_state -->
<g id="node13" class="node"><title>__mod_zone_page_state</title>
<polygon fill="Wheat" stroke="black" points="594.5,-80 476.5,-80 476.5,-58 594.5,-58 594.5,-80"/>
<text text-anchor="middle" x="535.5" y="-66.5" font-family="Times New Roman,serif" font-size="10.00" fill="blue">__mod_zone_page_state</text>
</g>
<!-- get_page_from_freelist&#45;&gt;__mod_zone_page_state -->
<g id="edge13" class="edge"><title>get_page_from_freelist&#45;&gt;__mod_zone_page_state</title>
<path fill="none" stroke="black" d="M366.761,-115.988C398.154,-106.66 447.572,-92.7132 484.887,-82.6252"/>
<polygon fill="black" stroke="black" points="485.83,-85.9958 494.579,-80.0192 484.013,-79.2359 485.83,-85.9958"/>
</g>
<!-- get_page_from_freelist&#45;&gt;__mod_zone_page_state -->
<g id="edge14" class="edge"><title>get_page_from_freelist&#45;&gt;__mod_zone_page_state</title>
<path fill="none" stroke="black" d="M377.393,-115.988C411.999,-106.74 461.157,-92.9502 495.503,-82.8836"/>
<polygon fill="black" stroke="black" points="496.612,-86.2057 505.213,-80.0192 494.631,-79.4917 496.612,-86.2057"/>
</g>
<!-- zone_statistics -->
<g id="node14" class="node"><title>zone_statistics</title>
<polygon fill="Wheat" stroke="black" points="690,-80 613,-80 613,-58 690,-58 690,-80"/>
<text text-anchor="middle" x="651.5" y="-66.5" font-family="Times New Roman,serif" font-size="10.00" fill="blue">zone_statistics</text>
</g>
<!-- get_page_from_freelist&#45;&gt;zone_statistics -->
<g id="edge15" class="edge"><title>get_page_from_freelist&#45;&gt;zone_statistics</title>
<path fill="none" stroke="black" d="M391.572,-117.087C443.412,-108.566 523.475,-95.075 602.605,-80.1201"/>
<polygon fill="black" stroke="black" points="603.579,-83.4977 612.75,-78.1934 602.273,-76.6206 603.579,-83.4977"/>
</g>
<!-- __inc_zone_state -->
<g id="node15" class="node"><title>__inc_zone_state</title>
<polygon fill="Wheat" stroke="black" points="695.5,-22 607.5,-22 607.5,-0 695.5,-0 695.5,-22"/>
<text text-anchor="middle" x="651.5" y="-8.5" font-family="Times New Roman,serif" font-size="10.00" fill="blue">__inc_zone_state</text>
</g>
<!-- zone_statistics&#45;&gt;__inc_zone_state -->
<g id="edge16" class="edge"><title>zone_statistics&#45;&gt;__inc_zone_state</title>
<path fill="none" stroke="black" d="M646.184,-57.9883C644.852,-50.9098 644.448,-41.1714 644.971,-32.4779"/>
<polygon fill="black" stroke="black" points="648.476,-32.6357 646.13,-22.3039 641.521,-31.8436 648.476,-32.6357"/>
</g>
<!-- zone_statistics&#45;&gt;__inc_zone_state -->
<g id="edge17" class="edge"><title>zone_statistics&#45;&gt;__inc_zone_state</title>
<path fill="none" stroke="black" d="M656.816,-57.9883C658.148,-50.9098 658.552,-41.1714 658.029,-32.4779"/>
<polygon fill="black" stroke="black" points="661.479,-31.8436 656.87,-22.3039 654.524,-32.6357 661.479,-31.8436"/>
</g>
</g>
</svg>
