<?xml version="1.0" encoding="UTF-8" standalone="no"?>
<!DOCTYPE svg PUBLIC "-//W3C//DTD SVG 1.1//EN"
 "http://www.w3.org/Graphics/SVG/1.1/DTD/svg11.dtd">
<!-- Generated by graphviz version 2.38.0 (20140413.2041)
 -->
<!-- Title: G Pages: 1 -->
<svg width="2053pt" height="668pt"
 viewBox="0.00 0.00 2053.00 668.00" xmlns="http://www.w3.org/2000/svg" xmlns:xlink="http://www.w3.org/1999/xlink">
<g id="graph0" class="graph" transform="scale(1 1) rotate(0) translate(4 664)">
<title>G</title>
<polygon fill="white" stroke="none" points="-4,4 -4,-664 2049,-664 2049,4 -4,4"/>
<!-- kfd_ioctl -->
<g id="node1" class="node"><title>kfd_ioctl</title>
<polygon fill="Wheat" stroke="black" points="578,-660 522,-660 522,-638 578,-638 578,-660"/>
<text text-anchor="middle" x="550" y="-645.9" font-family="Times New Roman,serif" font-size="12.00" fill="blue">kfd_ioctl</text>
</g>
<!-- kfd_ioctl_alloc_memory_of_gpu -->
<g id="node2" class="node"><title>kfd_ioctl_alloc_memory_of_gpu</title>
<polygon fill="Wheat" stroke="black" points="632,-602 468,-602 468,-580 632,-580 632,-602"/>
<text text-anchor="middle" x="550" y="-587.9" font-family="Times New Roman,serif" font-size="12.00" fill="blue">kfd_ioctl_alloc_memory_of_gpu</text>
</g>
<!-- kfd_ioctl&#45;&gt;kfd_ioctl_alloc_memory_of_gpu -->
<g id="edge1" class="edge"><title>kfd_ioctl&#45;&gt;kfd_ioctl_alloc_memory_of_gpu</title>
<path fill="none" stroke="black" d="M550,-637.988C550,-630.91 550,-621.171 550,-612.478"/>
<polygon fill="black" stroke="black" points="553.5,-612.304 550,-602.304 546.5,-612.304 553.5,-612.304"/>
</g>
<!-- kfd_device_by_id -->
<g id="node3" class="node"><title>kfd_device_by_id</title>
<polygon fill="Wheat" stroke="black" points="234,-544 136,-544 136,-522 234,-522 234,-544"/>
<text text-anchor="middle" x="185" y="-529.9" font-family="Times New Roman,serif" font-size="12.00" fill="blue">kfd_device_by_id</text>
</g>
<!-- kfd_ioctl_alloc_memory_of_gpu&#45;&gt;kfd_device_by_id -->
<g id="edge2" class="edge"><title>kfd_ioctl_alloc_memory_of_gpu&#45;&gt;kfd_device_by_id</title>
<path fill="none" stroke="black" d="M484.745,-579.988C416.524,-569.522 310.397,-553.239 244.433,-543.119"/>
<polygon fill="black" stroke="black" points="244.618,-539.606 234.203,-541.549 243.557,-546.525 244.618,-539.606"/>
</g>
<!-- kfd_bind_process_to_device -->
<g id="node5" class="node"><title>kfd_bind_process_to_device</title>
<polygon fill="Wheat" stroke="black" points="513.5,-544 364.5,-544 364.5,-522 513.5,-522 513.5,-544"/>
<text text-anchor="middle" x="439" y="-529.9" font-family="Times New Roman,serif" font-size="12.00" fill="blue">kfd_bind_process_to_device</text>
</g>
<!-- kfd_ioctl_alloc_memory_of_gpu&#45;&gt;kfd_bind_process_to_device -->
<g id="edge4" class="edge"><title>kfd_ioctl_alloc_memory_of_gpu&#45;&gt;kfd_bind_process_to_device</title>
<path fill="none" stroke="black" d="M530.155,-579.988C512.9,-571.283 487.669,-558.554 468.125,-548.694"/>
<polygon fill="black" stroke="black" points="469.552,-545.493 459.047,-544.114 466.399,-551.743 469.552,-545.493"/>
</g>
<!-- amdgpu_amdkfd_gpuvm_alloc_memory_of_gpu -->
<g id="node8" class="node"><title>amdgpu_amdkfd_gpuvm_alloc_memory_of_gpu</title>
<polygon fill="Wheat" stroke="black" points="779,-544 543,-544 543,-522 779,-522 779,-544"/>
<text text-anchor="middle" x="661" y="-529.9" font-family="Times New Roman,serif" font-size="12.00" fill="blue">amdgpu_amdkfd_gpuvm_alloc_memory_of_gpu</text>
</g>
<!-- kfd_ioctl_alloc_memory_of_gpu&#45;&gt;amdgpu_amdkfd_gpuvm_alloc_memory_of_gpu -->
<g id="edge7" class="edge"><title>kfd_ioctl_alloc_memory_of_gpu&#45;&gt;amdgpu_amdkfd_gpuvm_alloc_memory_of_gpu</title>
<path fill="none" stroke="black" d="M569.845,-579.988C587.1,-571.283 612.331,-558.554 631.875,-548.694"/>
<polygon fill="black" stroke="black" points="633.601,-551.743 640.953,-544.114 630.448,-545.493 633.601,-551.743"/>
</g>
<!-- kfd_process_device_create_obj_handle -->
<g id="node42" class="node"><title>kfd_process_device_create_obj_handle</title>
<polygon fill="Wheat" stroke="black" points="995,-544 797,-544 797,-522 995,-522 995,-544"/>
<text text-anchor="middle" x="896" y="-529.9" font-family="Times New Roman,serif" font-size="12.00" fill="blue">kfd_process_device_create_obj_handle</text>
</g>
<!-- kfd_ioctl_alloc_memory_of_gpu&#45;&gt;kfd_process_device_create_obj_handle -->
<g id="edge47" class="edge"><title>kfd_ioctl_alloc_memory_of_gpu&#45;&gt;kfd_process_device_create_obj_handle</title>
<path fill="none" stroke="black" d="M611.858,-579.988C671.331,-570.363 761.195,-555.818 823.888,-545.671"/>
<polygon fill="black" stroke="black" points="824.783,-549.072 834.095,-544.019 823.665,-542.162 824.783,-549.072"/>
</g>
<!-- kfd_topology_device_by_id -->
<g id="node4" class="node"><title>kfd_topology_device_by_id</title>
<polygon fill="Wheat" stroke="black" points="144,-486 0,-486 0,-464 144,-464 144,-486"/>
<text text-anchor="middle" x="72" y="-471.9" font-family="Times New Roman,serif" font-size="12.00" fill="blue">kfd_topology_device_by_id</text>
</g>
<!-- kfd_device_by_id&#45;&gt;kfd_topology_device_by_id -->
<g id="edge3" class="edge"><title>kfd_device_by_id&#45;&gt;kfd_topology_device_by_id</title>
<path fill="none" stroke="black" d="M164.798,-521.988C147.151,-513.243 121.313,-500.438 101.379,-490.559"/>
<polygon fill="black" stroke="black" points="102.922,-487.418 92.4082,-486.114 99.8142,-493.69 102.922,-487.418"/>
</g>
<!-- kfd_iommu_bind_process_to_device -->
<g id="node6" class="node"><title>kfd_iommu_bind_process_to_device</title>
<polygon fill="Wheat" stroke="black" points="347.5,-486 162.5,-486 162.5,-464 347.5,-464 347.5,-486"/>
<text text-anchor="middle" x="255" y="-471.9" font-family="Times New Roman,serif" font-size="12.00" fill="blue">kfd_iommu_bind_process_to_device</text>
</g>
<!-- kfd_bind_process_to_device&#45;&gt;kfd_iommu_bind_process_to_device -->
<g id="edge5" class="edge"><title>kfd_bind_process_to_device&#45;&gt;kfd_iommu_bind_process_to_device</title>
<path fill="none" stroke="black" d="M406.104,-521.988C375.846,-512.779 330.796,-499.068 297.758,-489.013"/>
<polygon fill="black" stroke="black" points="298.506,-485.583 287.92,-486.019 296.468,-492.279 298.506,-485.583"/>
</g>
<!-- kfd_process_device_init_vm -->
<g id="node7" class="node"><title>kfd_process_device_init_vm</title>
<polygon fill="Wheat" stroke="black" points="512,-486 366,-486 366,-464 512,-464 512,-486"/>
<text text-anchor="middle" x="439" y="-471.9" font-family="Times New Roman,serif" font-size="12.00" fill="blue">kfd_process_device_init_vm</text>
</g>
<!-- kfd_bind_process_to_device&#45;&gt;kfd_process_device_init_vm -->
<g id="edge6" class="edge"><title>kfd_bind_process_to_device&#45;&gt;kfd_process_device_init_vm</title>
<path fill="none" stroke="black" d="M439,-521.988C439,-514.91 439,-505.171 439,-496.478"/>
<polygon fill="black" stroke="black" points="442.5,-496.304 439,-486.304 435.5,-496.304 442.5,-496.304"/>
</g>
<!-- amdgpu_sync_create -->
<g id="node9" class="node"><title>amdgpu_sync_create</title>
<polygon fill="Wheat" stroke="black" points="643.5,-486 530.5,-486 530.5,-464 643.5,-464 643.5,-486"/>
<text text-anchor="middle" x="587" y="-471.9" font-family="Times New Roman,serif" font-size="12.00" fill="blue">amdgpu_sync_create</text>
</g>
<!-- amdgpu_amdkfd_gpuvm_alloc_memory_of_gpu&#45;&gt;amdgpu_sync_create -->
<g id="edge8" class="edge"><title>amdgpu_amdkfd_gpuvm_alloc_memory_of_gpu&#45;&gt;amdgpu_sync_create</title>
<path fill="none" stroke="black" d="M647.77,-521.988C636.961,-513.809 621.459,-502.077 608.818,-492.511"/>
<polygon fill="black" stroke="black" points="610.702,-489.547 600.616,-486.304 606.478,-495.129 610.702,-489.547"/>
</g>
<!-- amdttm_bo_dma_acc_size -->
<g id="node10" class="node"><title>amdttm_bo_dma_acc_size</title>
<polygon fill="Wheat" stroke="black" points="695,-370 557,-370 557,-348 695,-348 695,-370"/>
<text text-anchor="middle" x="626" y="-355.9" font-family="Times New Roman,serif" font-size="12.00" fill="blue">amdttm_bo_dma_acc_size</text>
</g>
<!-- amdgpu_amdkfd_gpuvm_alloc_memory_of_gpu&#45;&gt;amdttm_bo_dma_acc_size -->
<g id="edge9" class="edge"><title>amdgpu_amdkfd_gpuvm_alloc_memory_of_gpu&#45;&gt;amdttm_bo_dma_acc_size</title>
<path fill="none" stroke="black" d="M660.238,-521.796C659.14,-508.437 656.816,-484.328 653,-464 647.432,-434.336 638.117,-400.626 632.015,-379.833"/>
<polygon fill="black" stroke="black" points="635.363,-378.812 629.155,-370.227 628.655,-380.81 635.363,-378.812"/>
</g>
<!-- amdgpu_bo_create -->
<g id="node12" class="node"><title>amdgpu_bo_create</title>
<polygon fill="Wheat" stroke="black" points="804,-486 700,-486 700,-464 804,-464 804,-486"/>
<text text-anchor="middle" x="752" y="-471.9" font-family="Times New Roman,serif" font-size="12.00" fill="blue">amdgpu_bo_create</text>
</g>
<!-- amdgpu_amdkfd_gpuvm_alloc_memory_of_gpu&#45;&gt;amdgpu_bo_create -->
<g id="edge13" class="edge"><title>amdgpu_amdkfd_gpuvm_alloc_memory_of_gpu&#45;&gt;amdgpu_bo_create</title>
<path fill="none" stroke="black" d="M677.269,-521.988C691.03,-513.52 710.977,-501.245 726.802,-491.507"/>
<polygon fill="black" stroke="black" points="728.883,-494.336 735.565,-486.114 725.214,-488.374 728.883,-494.336"/>
</g>
<!-- add_kgd_mem_to_kfd_bo_list -->
<g id="node41" class="node"><title>add_kgd_mem_to_kfd_bo_list</title>
<polygon fill="Wheat" stroke="black" points="979.5,-486 822.5,-486 822.5,-464 979.5,-464 979.5,-486"/>
<text text-anchor="middle" x="901" y="-471.9" font-family="Times New Roman,serif" font-size="12.00" fill="blue">add_kgd_mem_to_kfd_bo_list</text>
</g>
<!-- amdgpu_amdkfd_gpuvm_alloc_memory_of_gpu&#45;&gt;add_kgd_mem_to_kfd_bo_list -->
<g id="edge46" class="edge"><title>amdgpu_amdkfd_gpuvm_alloc_memory_of_gpu&#45;&gt;add_kgd_mem_to_kfd_bo_list</title>
<path fill="none" stroke="black" d="M703.907,-521.988C744.31,-512.561 804.932,-498.416 848.266,-488.305"/>
<polygon fill="black" stroke="black" points="849.117,-491.7 858.06,-486.019 847.527,-484.883 849.117,-491.7"/>
</g>
<!-- amdttm_round_pot -->
<g id="node11" class="node"><title>amdttm_round_pot</title>
<polygon fill="Wheat" stroke="black" points="678,-312 574,-312 574,-290 678,-290 678,-312"/>
<text text-anchor="middle" x="626" y="-297.9" font-family="Times New Roman,serif" font-size="12.00" fill="blue">amdttm_round_pot</text>
</g>
<!-- amdttm_bo_dma_acc_size&#45;&gt;amdttm_round_pot -->
<g id="edge10" class="edge"><title>amdttm_bo_dma_acc_size&#45;&gt;amdttm_round_pot</title>
<path fill="none" stroke="black" d="M615.368,-347.988C612.675,-340.831 611.879,-330.955 612.978,-322.189"/>
<polygon fill="black" stroke="black" points="616.421,-322.835 615.26,-312.304 609.6,-321.26 616.421,-322.835"/>
</g>
<!-- amdttm_bo_dma_acc_size&#45;&gt;amdttm_round_pot -->
<g id="edge11" class="edge"><title>amdttm_bo_dma_acc_size&#45;&gt;amdttm_round_pot</title>
<path fill="none" stroke="black" d="M626,-347.988C626,-340.91 626,-331.171 626,-322.478"/>
<polygon fill="black" stroke="black" points="629.5,-322.304 626,-312.304 622.5,-322.304 629.5,-322.304"/>
</g>
<!-- amdttm_bo_dma_acc_size&#45;&gt;amdttm_round_pot -->
<g id="edge12" class="edge"><title>amdttm_bo_dma_acc_size&#45;&gt;amdttm_round_pot</title>
<path fill="none" stroke="black" d="M636.632,-347.988C639.325,-340.831 640.121,-330.955 639.022,-322.189"/>
<polygon fill="black" stroke="black" points="642.4,-321.26 636.74,-312.304 635.579,-322.835 642.4,-321.26"/>
</g>
<!-- amdgpu_bo_do_create -->
<g id="node13" class="node"><title>amdgpu_bo_do_create</title>
<polygon fill="Wheat" stroke="black" points="957,-428 835,-428 835,-406 957,-406 957,-428"/>
<text text-anchor="middle" x="896" y="-413.9" font-family="Times New Roman,serif" font-size="12.00" fill="blue">amdgpu_bo_do_create</text>
</g>
<!-- amdgpu_bo_create&#45;&gt;amdgpu_bo_do_create -->
<g id="edge14" class="edge"><title>amdgpu_bo_create&#45;&gt;amdgpu_bo_do_create</title>
<path fill="none" stroke="black" d="M777.744,-463.988C800.842,-455.006 834.955,-441.74 860.614,-431.761"/>
<polygon fill="black" stroke="black" points="861.942,-435 869.993,-428.114 859.404,-428.476 861.942,-435"/>
</g>
<!-- amdgpu_bo_do_create&#45;&gt;amdttm_bo_dma_acc_size -->
<g id="edge15" class="edge"><title>amdgpu_bo_do_create&#45;&gt;amdttm_bo_dma_acc_size</title>
<path fill="none" stroke="black" d="M847.729,-405.988C801.989,-396.501 733.214,-382.237 684.404,-372.113"/>
<polygon fill="black" stroke="black" points="684.81,-368.623 674.307,-370.019 683.388,-375.477 684.81,-368.623"/>
</g>
<!-- amdgpu_bo_placement_from_domain -->
<g id="node14" class="node"><title>amdgpu_bo_placement_from_domain</title>
<polygon fill="Wheat" stroke="black" points="901,-370 713,-370 713,-348 901,-348 901,-370"/>
<text text-anchor="middle" x="807" y="-355.9" font-family="Times New Roman,serif" font-size="12.00" fill="blue">amdgpu_bo_placement_from_domain</text>
</g>
<!-- amdgpu_bo_do_create&#45;&gt;amdgpu_bo_placement_from_domain -->
<g id="edge16" class="edge"><title>amdgpu_bo_do_create&#45;&gt;amdgpu_bo_placement_from_domain</title>
<path fill="none" stroke="black" d="M880.089,-405.988C866.63,-397.52 847.122,-385.245 831.645,-375.507"/>
<polygon fill="black" stroke="black" points="833.402,-372.477 823.074,-370.114 829.674,-378.402 833.402,-372.477"/>
</g>
<!-- amdttm_bo_init_reserved -->
<g id="node15" class="node"><title>amdttm_bo_init_reserved</title>
<polygon fill="Wheat" stroke="black" points="1051,-370 919,-370 919,-348 1051,-348 1051,-370"/>
<text text-anchor="middle" x="985" y="-355.9" font-family="Times New Roman,serif" font-size="12.00" fill="blue">amdttm_bo_init_reserved</text>
</g>
<!-- amdgpu_bo_do_create&#45;&gt;amdttm_bo_init_reserved -->
<g id="edge17" class="edge"><title>amdgpu_bo_do_create&#45;&gt;amdttm_bo_init_reserved</title>
<path fill="none" stroke="black" d="M911.911,-405.988C925.37,-397.52 944.878,-385.245 960.355,-375.507"/>
<polygon fill="black" stroke="black" points="962.326,-378.402 968.926,-370.114 958.598,-372.477 962.326,-378.402"/>
</g>
<!-- amdttm_bo_move_to_lru_tail -->
<g id="node37" class="node"><title>amdttm_bo_move_to_lru_tail</title>
<polygon fill="Wheat" stroke="black" points="1632,-312 1482,-312 1482,-290 1632,-290 1632,-312"/>
<text text-anchor="middle" x="1557" y="-297.9" font-family="Times New Roman,serif" font-size="12.00" fill="blue">amdttm_bo_move_to_lru_tail</text>
</g>
<!-- amdgpu_bo_do_create&#45;&gt;amdttm_bo_move_to_lru_tail -->
<g id="edge45" class="edge"><title>amdgpu_bo_do_create&#45;&gt;amdttm_bo_move_to_lru_tail</title>
<path fill="none" stroke="black" d="M957.291,-409.621C1027.71,-401.914 1146.62,-387.745 1248,-370 1340,-353.897 1446.11,-329.186 1506.99,-314.406"/>
<polygon fill="black" stroke="black" points="1507.84,-317.802 1516.73,-312.034 1506.19,-311.001 1507.84,-317.802"/>
</g>
<!-- amdgpu_cs_report_moved_bytes -->
<g id="node40" class="node"><title>amdgpu_cs_report_moved_bytes</title>
<polygon fill="Wheat" stroke="black" points="1238.5,-370 1069.5,-370 1069.5,-348 1238.5,-348 1238.5,-370"/>
<text text-anchor="middle" x="1154" y="-355.9" font-family="Times New Roman,serif" font-size="12.00" fill="blue">amdgpu_cs_report_moved_bytes</text>
</g>
<!-- amdgpu_bo_do_create&#45;&gt;amdgpu_cs_report_moved_bytes -->
<g id="edge44" class="edge"><title>amdgpu_bo_do_create&#45;&gt;amdgpu_cs_report_moved_bytes</title>
<path fill="none" stroke="black" d="M942.125,-405.988C985.741,-396.521 1051.28,-382.297 1097.9,-372.177"/>
<polygon fill="black" stroke="black" points="1098.81,-375.561 1107.84,-370.019 1097.33,-368.72 1098.81,-375.561"/>
</g>
<!-- amdttm_mem_global_alloc -->
<g id="node16" class="node"><title>amdttm_mem_global_alloc</title>
<polygon fill="Wheat" stroke="black" points="854,-312 716,-312 716,-290 854,-290 854,-312"/>
<text text-anchor="middle" x="785" y="-297.9" font-family="Times New Roman,serif" font-size="12.00" fill="blue">amdttm_mem_global_alloc</text>
</g>
<!-- amdttm_bo_init_reserved&#45;&gt;amdttm_mem_global_alloc -->
<g id="edge18" class="edge"><title>amdttm_bo_init_reserved&#45;&gt;amdttm_mem_global_alloc</title>
<path fill="none" stroke="black" d="M949.244,-347.988C916.071,-338.7 866.542,-324.832 830.551,-314.754"/>
<polygon fill="black" stroke="black" points="831.356,-311.345 820.783,-312.019 829.469,-318.086 831.356,-311.345"/>
</g>
<!-- amdttm_bo_validate -->
<g id="node19" class="node"><title>amdttm_bo_validate</title>
<polygon fill="Wheat" stroke="black" points="1000.5,-312 891.5,-312 891.5,-290 1000.5,-290 1000.5,-312"/>
<text text-anchor="middle" x="946" y="-297.9" font-family="Times New Roman,serif" font-size="12.00" fill="blue">amdttm_bo_validate</text>
</g>
<!-- amdttm_bo_init_reserved&#45;&gt;amdttm_bo_validate -->
<g id="edge21" class="edge"><title>amdttm_bo_init_reserved&#45;&gt;amdttm_bo_validate</title>
<path fill="none" stroke="black" d="M978.028,-347.988C972.769,-340.438 965.403,-329.861 959.061,-320.754"/>
<polygon fill="black" stroke="black" points="961.763,-318.51 953.176,-312.304 956.019,-322.51 961.763,-318.51"/>
</g>
<!-- amdttm_bo_init_reserved&#45;&gt;amdttm_bo_move_to_lru_tail -->
<g id="edge39" class="edge"><title>amdttm_bo_init_reserved&#45;&gt;amdttm_bo_move_to_lru_tail</title>
<path fill="none" stroke="black" d="M1051.3,-349.124C1054.58,-348.733 1057.83,-348.356 1061,-348 1204.81,-331.877 1372.53,-317.178 1471.46,-308.93"/>
<polygon fill="black" stroke="black" points="1472.03,-312.395 1481.7,-308.079 1471.45,-305.419 1472.03,-312.395"/>
</g>
<!-- ttm_mem_global_alloc_zone -->
<g id="node17" class="node"><title>ttm_mem_global_alloc_zone</title>
<polygon fill="Wheat" stroke="black" points="554,-254 408,-254 408,-232 554,-232 554,-254"/>
<text text-anchor="middle" x="481" y="-239.9" font-family="Times New Roman,serif" font-size="12.00" fill="blue">ttm_mem_global_alloc_zone</text>
</g>
<!-- amdttm_mem_global_alloc&#45;&gt;ttm_mem_global_alloc_zone -->
<g id="edge19" class="edge"><title>amdttm_mem_global_alloc&#45;&gt;ttm_mem_global_alloc_zone</title>
<path fill="none" stroke="black" d="M730.651,-289.988C678.72,-280.422 600.417,-265.998 545.384,-255.86"/>
<polygon fill="black" stroke="black" points="545.859,-252.389 535.39,-254.019 544.591,-259.273 545.859,-252.389"/>
</g>
<!-- ttm_check_swapping -->
<g id="node18" class="node"><title>ttm_check_swapping</title>
<polygon fill="Wheat" stroke="black" points="499.5,-196 386.5,-196 386.5,-174 499.5,-174 499.5,-196"/>
<text text-anchor="middle" x="443" y="-181.9" font-family="Times New Roman,serif" font-size="12.00" fill="blue">ttm_check_swapping</text>
</g>
<!-- ttm_mem_global_alloc_zone&#45;&gt;ttm_check_swapping -->
<g id="edge20" class="edge"><title>ttm_mem_global_alloc_zone&#45;&gt;ttm_check_swapping</title>
<path fill="none" stroke="black" d="M474.206,-231.988C469.083,-224.438 461.906,-213.861 455.726,-204.754"/>
<polygon fill="black" stroke="black" points="458.503,-202.613 449.992,-196.304 452.711,-206.544 458.503,-202.613"/>
</g>
<!-- amdttm_bo_mem_compat -->
<g id="node20" class="node"><title>amdttm_bo_mem_compat</title>
<polygon fill="Wheat" stroke="black" points="784,-254 648,-254 648,-232 784,-232 784,-254"/>
<text text-anchor="middle" x="716" y="-239.9" font-family="Times New Roman,serif" font-size="12.00" fill="blue">amdttm_bo_mem_compat</text>
</g>
<!-- amdttm_bo_validate&#45;&gt;amdttm_bo_mem_compat -->
<g id="edge22" class="edge"><title>amdttm_bo_validate&#45;&gt;amdttm_bo_mem_compat</title>
<path fill="none" stroke="black" d="M904.881,-289.988C866.324,-280.601 808.554,-266.535 767.062,-256.432"/>
<polygon fill="black" stroke="black" points="767.695,-252.984 757.15,-254.019 766.039,-259.786 767.695,-252.984"/>
</g>
<!-- amdttm_bo_mem_space -->
<g id="node22" class="node"><title>amdttm_bo_mem_space</title>
<polygon fill="Wheat" stroke="black" points="989,-254 861,-254 861,-232 989,-232 989,-254"/>
<text text-anchor="middle" x="925" y="-239.9" font-family="Times New Roman,serif" font-size="12.00" fill="blue">amdttm_bo_mem_space</text>
</g>
<!-- amdttm_bo_validate&#45;&gt;amdttm_bo_mem_space -->
<g id="edge24" class="edge"><title>amdttm_bo_validate&#45;&gt;amdttm_bo_mem_space</title>
<path fill="none" stroke="black" d="M942.246,-289.988C939.532,-282.752 935.776,-272.737 932.462,-263.9"/>
<polygon fill="black" stroke="black" points="935.652,-262.438 928.864,-254.304 929.098,-264.896 935.652,-262.438"/>
</g>
<!-- ttm_bo_handle_move_mem -->
<g id="node28" class="node"><title>ttm_bo_handle_move_mem</title>
<polygon fill="Wheat" stroke="black" points="1503.5,-254 1360.5,-254 1360.5,-232 1503.5,-232 1503.5,-254"/>
<text text-anchor="middle" x="1432" y="-239.9" font-family="Times New Roman,serif" font-size="12.00" fill="blue">ttm_bo_handle_move_mem</text>
</g>
<!-- amdttm_bo_validate&#45;&gt;ttm_bo_handle_move_mem -->
<g id="edge30" class="edge"><title>amdttm_bo_validate&#45;&gt;ttm_bo_handle_move_mem</title>
<path fill="none" stroke="black" d="M1000.81,-293.685C1086.01,-283.868 1250.74,-264.886 1350.09,-253.438"/>
<polygon fill="black" stroke="black" points="1350.56,-256.908 1360.09,-252.286 1349.76,-249.954 1350.56,-256.908"/>
</g>
<!-- ttm_bo_places_compat -->
<g id="node21" class="node"><title>ttm_bo_places_compat</title>
<polygon fill="Wheat" stroke="black" points="640.5,-196 517.5,-196 517.5,-174 640.5,-174 640.5,-196"/>
<text text-anchor="middle" x="579" y="-181.9" font-family="Times New Roman,serif" font-size="12.00" fill="blue">ttm_bo_places_compat</text>
</g>
<!-- amdttm_bo_mem_compat&#45;&gt;ttm_bo_places_compat -->
<g id="edge23" class="edge"><title>amdttm_bo_mem_compat&#45;&gt;ttm_bo_places_compat</title>
<path fill="none" stroke="black" d="M691.507,-231.988C669.725,-223.085 637.649,-209.973 613.313,-200.026"/>
<polygon fill="black" stroke="black" points="614.324,-196.658 603.743,-196.114 611.675,-203.137 614.324,-196.658"/>
</g>
<!-- ttm_bo_mem_placement.isra.12 -->
<g id="node23" class="node"><title>ttm_bo_mem_placement.isra.12</title>
<polygon fill="Wheat" stroke="black" points="821,-196 659,-196 659,-174 821,-174 821,-196"/>
<text text-anchor="middle" x="740" y="-181.9" font-family="Times New Roman,serif" font-size="12.00" fill="blue">ttm_bo_mem_placement.isra.12</text>
</g>
<!-- amdttm_bo_mem_space&#45;&gt;ttm_bo_mem_placement.isra.12 -->
<g id="edge25" class="edge"><title>amdttm_bo_mem_space&#45;&gt;ttm_bo_mem_placement.isra.12</title>
<path fill="none" stroke="black" d="M891.926,-231.988C861.503,-222.779 816.208,-209.068 782.991,-199.013"/>
<polygon fill="black" stroke="black" points="783.684,-195.567 773.099,-196.019 781.656,-202.266 783.684,-195.567"/>
</g>
<!-- amdgpu_vram_mgr_new -->
<g id="node26" class="node"><title>amdgpu_vram_mgr_new</title>
<polygon fill="Wheat" stroke="black" points="968.5,-196 839.5,-196 839.5,-174 968.5,-174 968.5,-196"/>
<text text-anchor="middle" x="904" y="-181.9" font-family="Times New Roman,serif" font-size="12.00" fill="blue">amdgpu_vram_mgr_new</text>
</g>
<!-- amdttm_bo_mem_space&#45;&gt;amdgpu_vram_mgr_new -->
<g id="edge28" class="edge"><title>amdttm_bo_mem_space&#45;&gt;amdgpu_vram_mgr_new</title>
<path fill="none" stroke="black" d="M921.246,-231.988C918.532,-224.752 914.776,-214.737 911.462,-205.9"/>
<polygon fill="black" stroke="black" points="914.652,-204.438 907.864,-196.304 908.098,-206.896 914.652,-204.438"/>
</g>
<!-- ttm_bo_add_move_fence.isra.16 -->
<g id="node27" class="node"><title>ttm_bo_add_move_fence.isra.16</title>
<polygon fill="Wheat" stroke="black" points="1153.5,-196 986.5,-196 986.5,-174 1153.5,-174 1153.5,-196"/>
<text text-anchor="middle" x="1070" y="-181.9" font-family="Times New Roman,serif" font-size="12.00" fill="blue">ttm_bo_add_move_fence.isra.16</text>
</g>
<!-- amdttm_bo_mem_space&#45;&gt;ttm_bo_add_move_fence.isra.16 -->
<g id="edge29" class="edge"><title>amdttm_bo_mem_space&#45;&gt;ttm_bo_add_move_fence.isra.16</title>
<path fill="none" stroke="black" d="M950.923,-231.988C974.182,-223.006 1008.53,-209.74 1034.37,-199.761"/>
<polygon fill="black" stroke="black" points="1035.74,-202.982 1043.81,-196.114 1033.22,-196.452 1035.74,-202.982"/>
</g>
<!-- ttm_bo_del_from_lru -->
<g id="node24" class="node"><title>ttm_bo_del_from_lru</title>
<polygon fill="Wheat" stroke="black" points="1042.5,-138 929.5,-138 929.5,-116 1042.5,-116 1042.5,-138"/>
<text text-anchor="middle" x="986" y="-123.9" font-family="Times New Roman,serif" font-size="12.00" fill="blue">ttm_bo_del_from_lru</text>
</g>
<!-- ttm_bo_mem_placement.isra.12&#45;&gt;ttm_bo_del_from_lru -->
<g id="edge26" class="edge"><title>ttm_bo_mem_placement.isra.12&#45;&gt;ttm_bo_del_from_lru</title>
<path fill="none" stroke="black" d="M783.98,-173.988C825.48,-164.541 887.792,-150.356 932.228,-140.241"/>
<polygon fill="black" stroke="black" points="933.013,-143.652 941.987,-138.019 931.459,-136.826 933.013,-143.652"/>
</g>
<!-- ttm_bo_add_mem_to_lru.isra.10 -->
<g id="node25" class="node"><title>ttm_bo_add_mem_to_lru.isra.10</title>
<polygon fill="Wheat" stroke="black" points="2045,-138 1879,-138 1879,-116 2045,-116 2045,-138"/>
<text text-anchor="middle" x="1962" y="-123.9" font-family="Times New Roman,serif" font-size="12.00" fill="blue">ttm_bo_add_mem_to_lru.isra.10</text>
</g>
<!-- ttm_bo_mem_placement.isra.12&#45;&gt;ttm_bo_add_mem_to_lru.isra.10 -->
<g id="edge27" class="edge"><title>ttm_bo_mem_placement.isra.12&#45;&gt;ttm_bo_add_mem_to_lru.isra.10</title>
<path fill="none" stroke="black" d="M821.337,-174.757C824.599,-174.483 827.83,-174.229 831,-174 1288.48,-140.985 1407.39,-170.547 1868.52,-138.053"/>
<polygon fill="black" stroke="black" points="1869.05,-141.524 1878.78,-137.323 1868.56,-134.541 1869.05,-141.524"/>
</g>
<!-- amdgpu_vm_del_from_lru_notify -->
<g id="node38" class="node"><title>amdgpu_vm_del_from_lru_notify</title>
<polygon fill="Wheat" stroke="black" points="1069.5,-80 902.5,-80 902.5,-58 1069.5,-58 1069.5,-80"/>
<text text-anchor="middle" x="986" y="-65.9" font-family="Times New Roman,serif" font-size="12.00" fill="blue">amdgpu_vm_del_from_lru_notify</text>
</g>
<!-- ttm_bo_del_from_lru&#45;&gt;amdgpu_vm_del_from_lru_notify -->
<g id="edge41" class="edge"><title>ttm_bo_del_from_lru&#45;&gt;amdgpu_vm_del_from_lru_notify</title>
<path fill="none" stroke="black" d="M986,-115.988C986,-108.91 986,-99.1714 986,-90.4779"/>
<polygon fill="black" stroke="black" points="989.5,-90.3038 986,-80.3039 982.5,-90.3039 989.5,-90.3038"/>
</g>
<!-- ttm_mem_io_lock -->
<g id="node29" class="node"><title>ttm_mem_io_lock</title>
<polygon fill="Wheat" stroke="black" points="1270,-196 1172,-196 1172,-174 1270,-174 1270,-196"/>
<text text-anchor="middle" x="1221" y="-181.9" font-family="Times New Roman,serif" font-size="12.00" fill="blue">ttm_mem_io_lock</text>
</g>
<!-- ttm_bo_handle_move_mem&#45;&gt;ttm_mem_io_lock -->
<g id="edge31" class="edge"><title>ttm_bo_handle_move_mem&#45;&gt;ttm_mem_io_lock</title>
<path fill="none" stroke="black" d="M1394.28,-231.988C1359.13,-222.66 1306.58,-208.713 1268.57,-198.625"/>
<polygon fill="black" stroke="black" points="1269.31,-195.202 1258.75,-196.019 1267.52,-201.967 1269.31,-195.202"/>
</g>
<!-- ttm_bo_unmap_virtual_locked -->
<g id="node30" class="node"><title>ttm_bo_unmap_virtual_locked</title>
<polygon fill="Wheat" stroke="black" points="1443.5,-196 1288.5,-196 1288.5,-174 1443.5,-174 1443.5,-196"/>
<text text-anchor="middle" x="1366" y="-181.9" font-family="Times New Roman,serif" font-size="12.00" fill="blue">ttm_bo_unmap_virtual_locked</text>
</g>
<!-- ttm_bo_handle_move_mem&#45;&gt;ttm_bo_unmap_virtual_locked -->
<g id="edge32" class="edge"><title>ttm_bo_handle_move_mem&#45;&gt;ttm_bo_unmap_virtual_locked</title>
<path fill="none" stroke="black" d="M1420.2,-231.988C1410.65,-223.887 1397,-212.303 1385.79,-202.787"/>
<polygon fill="black" stroke="black" points="1388.03,-200.105 1378.14,-196.304 1383.5,-205.442 1388.03,-200.105"/>
</g>
<!-- ttm_mem_io_unlock -->
<g id="node32" class="node"><title>ttm_mem_io_unlock</title>
<polygon fill="Wheat" stroke="black" points="1570.5,-196 1461.5,-196 1461.5,-174 1570.5,-174 1570.5,-196"/>
<text text-anchor="middle" x="1516" y="-181.9" font-family="Times New Roman,serif" font-size="12.00" fill="blue">ttm_mem_io_unlock</text>
</g>
<!-- ttm_bo_handle_move_mem&#45;&gt;ttm_mem_io_unlock -->
<g id="edge34" class="edge"><title>ttm_bo_handle_move_mem&#45;&gt;ttm_mem_io_unlock</title>
<path fill="none" stroke="black" d="M1447.02,-231.988C1459.6,-223.599 1477.79,-211.474 1492.33,-201.78"/>
<polygon fill="black" stroke="black" points="1494.45,-204.573 1500.83,-196.114 1490.57,-198.749 1494.45,-204.573"/>
</g>
<!-- amdgpu_bo_move_notify -->
<g id="node33" class="node"><title>amdgpu_bo_move_notify</title>
<polygon fill="Wheat" stroke="black" points="1759,-196 1627,-196 1627,-174 1759,-174 1759,-196"/>
<text text-anchor="middle" x="1693" y="-181.9" font-family="Times New Roman,serif" font-size="12.00" fill="blue">amdgpu_bo_move_notify</text>
</g>
<!-- ttm_bo_handle_move_mem&#45;&gt;amdgpu_bo_move_notify -->
<g id="edge35" class="edge"><title>ttm_bo_handle_move_mem&#45;&gt;amdgpu_bo_move_notify</title>
<path fill="none" stroke="black" d="M1478.66,-231.988C1522.78,-222.521 1589.08,-208.297 1636.25,-198.177"/>
<polygon fill="black" stroke="black" points="1637.26,-201.539 1646.3,-196.019 1635.79,-194.695 1637.26,-201.539"/>
</g>
<!-- amdgpu_bo_move -->
<g id="node35" class="node"><title>amdgpu_bo_move</title>
<polygon fill="Wheat" stroke="black" points="1878.5,-196 1777.5,-196 1777.5,-174 1878.5,-174 1878.5,-196"/>
<text text-anchor="middle" x="1828" y="-181.9" font-family="Times New Roman,serif" font-size="12.00" fill="blue">amdgpu_bo_move</text>
</g>
<!-- ttm_bo_handle_move_mem&#45;&gt;amdgpu_bo_move -->
<g id="edge37" class="edge"><title>ttm_bo_handle_move_mem&#45;&gt;amdgpu_bo_move</title>
<path fill="none" stroke="black" d="M1503.53,-232.82C1569.35,-224.233 1669.95,-210.756 1767.26,-196.077"/>
<polygon fill="black" stroke="black" points="1767.91,-199.518 1777.28,-194.56 1766.87,-192.597 1767.91,-199.518"/>
</g>
<!-- ttm_mem_io_free_vm -->
<g id="node31" class="node"><title>ttm_mem_io_free_vm</title>
<polygon fill="Wheat" stroke="black" points="1424,-138 1308,-138 1308,-116 1424,-116 1424,-138"/>
<text text-anchor="middle" x="1366" y="-123.9" font-family="Times New Roman,serif" font-size="12.00" fill="blue">ttm_mem_io_free_vm</text>
</g>
<!-- ttm_bo_unmap_virtual_locked&#45;&gt;ttm_mem_io_free_vm -->
<g id="edge33" class="edge"><title>ttm_bo_unmap_virtual_locked&#45;&gt;ttm_mem_io_free_vm</title>
<path fill="none" stroke="black" d="M1366,-173.988C1366,-166.91 1366,-157.171 1366,-148.478"/>
<polygon fill="black" stroke="black" points="1369.5,-148.304 1366,-138.304 1362.5,-148.304 1369.5,-148.304"/>
</g>
<!-- amdgpu_vm_bo_invalidate -->
<g id="node34" class="node"><title>amdgpu_vm_bo_invalidate</title>
<polygon fill="Wheat" stroke="black" points="1739,-138 1601,-138 1601,-116 1739,-116 1739,-138"/>
<text text-anchor="middle" x="1670" y="-123.9" font-family="Times New Roman,serif" font-size="12.00" fill="blue">amdgpu_vm_bo_invalidate</text>
</g>
<!-- amdgpu_bo_move_notify&#45;&gt;amdgpu_vm_bo_invalidate -->
<g id="edge36" class="edge"><title>amdgpu_bo_move_notify&#45;&gt;amdgpu_vm_bo_invalidate</title>
<path fill="none" stroke="black" d="M1688.89,-173.988C1685.88,-166.674 1681.71,-156.519 1678.06,-147.612"/>
<polygon fill="black" stroke="black" points="1681.27,-146.224 1674.23,-138.304 1674.79,-148.884 1681.27,-146.224"/>
</g>
<!-- amdgpu_move_null -->
<g id="node36" class="node"><title>amdgpu_move_null</title>
<polygon fill="Wheat" stroke="black" points="1861,-138 1757,-138 1757,-116 1861,-116 1861,-138"/>
<text text-anchor="middle" x="1809" y="-123.9" font-family="Times New Roman,serif" font-size="12.00" fill="blue">amdgpu_move_null</text>
</g>
<!-- amdgpu_bo_move&#45;&gt;amdgpu_move_null -->
<g id="edge38" class="edge"><title>amdgpu_bo_move&#45;&gt;amdgpu_move_null</title>
<path fill="none" stroke="black" d="M1824.6,-173.988C1822.15,-166.752 1818.75,-156.737 1815.75,-147.9"/>
<polygon fill="black" stroke="black" points="1819.02,-146.649 1812.5,-138.304 1812.39,-148.898 1819.02,-146.649"/>
</g>
<!-- amdttm_bo_move_to_lru_tail&#45;&gt;ttm_bo_del_from_lru -->
<g id="edge40" class="edge"><title>amdttm_bo_move_to_lru_tail&#45;&gt;ttm_bo_del_from_lru</title>
<path fill="none" stroke="black" d="M1563.71,-289.946C1578.55,-266.357 1610.51,-206.965 1580,-174 1562.29,-154.869 1204.04,-137.34 1052.63,-130.756"/>
<polygon fill="black" stroke="black" points="1052.67,-127.254 1042.53,-130.319 1052.37,-134.248 1052.67,-127.254"/>
</g>
<!-- amdttm_bo_move_to_lru_tail&#45;&gt;ttm_bo_add_mem_to_lru.isra.10 -->
<g id="edge43" class="edge"><title>amdttm_bo_move_to_lru_tail&#45;&gt;ttm_bo_add_mem_to_lru.isra.10</title>
<path fill="none" stroke="black" d="M1614.25,-289.955C1682.8,-276.188 1799.46,-247.142 1888,-196 1910.95,-182.746 1932.71,-161.285 1946.62,-146.02"/>
<polygon fill="black" stroke="black" points="1949.48,-148.071 1953.5,-138.268 1944.24,-143.426 1949.48,-148.071"/>
</g>
<!-- amdgpu_bo_is_amdgpu_bo -->
<g id="node39" class="node"><title>amdgpu_bo_is_amdgpu_bo</title>
<polygon fill="Wheat" stroke="black" points="1057.5,-22 914.5,-22 914.5,-0 1057.5,-0 1057.5,-22"/>
<text text-anchor="middle" x="986" y="-7.9" font-family="Times New Roman,serif" font-size="12.00" fill="blue">amdgpu_bo_is_amdgpu_bo</text>
</g>
<!-- amdgpu_vm_del_from_lru_notify&#45;&gt;amdgpu_bo_is_amdgpu_bo -->
<g id="edge42" class="edge"><title>amdgpu_vm_del_from_lru_notify&#45;&gt;amdgpu_bo_is_amdgpu_bo</title>
<path fill="none" stroke="black" d="M986,-57.9883C986,-50.9098 986,-41.1714 986,-32.4779"/>
<polygon fill="black" stroke="black" points="989.5,-32.3038 986,-22.3039 982.5,-32.3039 989.5,-32.3038"/>
</g>
</g>
</svg>
