<?xml version="1.0" encoding="UTF-8" standalone="no"?>
<!DOCTYPE svg PUBLIC "-//W3C//DTD SVG 1.1//EN"
 "http://www.w3.org/Graphics/SVG/1.1/DTD/svg11.dtd">
<!-- Generated by graphviz version 2.38.0 (20140413.2041)
 -->
<!-- Title: G Pages: 1 -->
<svg width="1982pt" height="900pt"
 viewBox="0.00 0.00 1982.00 900.00" xmlns="http://www.w3.org/2000/svg" xmlns:xlink="http://www.w3.org/1999/xlink">
<g id="graph0" class="graph" transform="scale(1 1) rotate(0) translate(4 896)">
<title>G</title>
<polygon fill="white" stroke="none" points="-4,4 -4,-896 1978,-896 1978,4 -4,4"/>
<!-- kfd_ioctl -->
<g id="node1" class="node"><title>kfd_ioctl</title>
<polygon fill="Wheat" stroke="black" points="578,-892 522,-892 522,-870 578,-870 578,-892"/>
<text text-anchor="middle" x="550" y="-877.9" font-family="Times New Roman,serif" font-size="12.00" fill="blue">kfd_ioctl</text>
</g>
<!-- kfd_ioctl_alloc_memory_of_gpu -->
<g id="node2" class="node"><title>kfd_ioctl_alloc_memory_of_gpu</title>
<polygon fill="Wheat" stroke="black" points="632,-834 468,-834 468,-812 632,-812 632,-834"/>
<text text-anchor="middle" x="550" y="-819.9" font-family="Times New Roman,serif" font-size="12.00" fill="blue">kfd_ioctl_alloc_memory_of_gpu</text>
</g>
<!-- kfd_ioctl&#45;&gt;kfd_ioctl_alloc_memory_of_gpu -->
<g id="edge1" class="edge"><title>kfd_ioctl&#45;&gt;kfd_ioctl_alloc_memory_of_gpu</title>
<path fill="none" stroke="black" d="M550,-869.988C550,-862.91 550,-853.171 550,-844.478"/>
<polygon fill="black" stroke="black" points="553.5,-844.304 550,-834.304 546.5,-844.304 553.5,-844.304"/>
</g>
<!-- kfd_device_by_id -->
<g id="node3" class="node"><title>kfd_device_by_id</title>
<polygon fill="Wheat" stroke="black" points="234,-776 136,-776 136,-754 234,-754 234,-776"/>
<text text-anchor="middle" x="185" y="-761.9" font-family="Times New Roman,serif" font-size="12.00" fill="blue">kfd_device_by_id</text>
</g>
<!-- kfd_ioctl_alloc_memory_of_gpu&#45;&gt;kfd_device_by_id -->
<g id="edge2" class="edge"><title>kfd_ioctl_alloc_memory_of_gpu&#45;&gt;kfd_device_by_id</title>
<path fill="none" stroke="black" d="M484.745,-811.988C416.524,-801.522 310.397,-785.239 244.433,-775.119"/>
<polygon fill="black" stroke="black" points="244.618,-771.606 234.203,-773.549 243.557,-778.525 244.618,-771.606"/>
</g>
<!-- kfd_bind_process_to_device -->
<g id="node5" class="node"><title>kfd_bind_process_to_device</title>
<polygon fill="Wheat" stroke="black" points="513.5,-776 364.5,-776 364.5,-754 513.5,-754 513.5,-776"/>
<text text-anchor="middle" x="439" y="-761.9" font-family="Times New Roman,serif" font-size="12.00" fill="blue">kfd_bind_process_to_device</text>
</g>
<!-- kfd_ioctl_alloc_memory_of_gpu&#45;&gt;kfd_bind_process_to_device -->
<g id="edge4" class="edge"><title>kfd_ioctl_alloc_memory_of_gpu&#45;&gt;kfd_bind_process_to_device</title>
<path fill="none" stroke="black" d="M530.155,-811.988C512.9,-803.283 487.669,-790.554 468.125,-780.694"/>
<polygon fill="black" stroke="black" points="469.552,-777.493 459.047,-776.114 466.399,-783.743 469.552,-777.493"/>
</g>
<!-- amdgpu_amdkfd_gpuvm_alloc_memory_of_gpu -->
<g id="node8" class="node"><title>amdgpu_amdkfd_gpuvm_alloc_memory_of_gpu</title>
<polygon fill="Wheat" stroke="black" points="779,-776 543,-776 543,-754 779,-754 779,-776"/>
<text text-anchor="middle" x="661" y="-761.9" font-family="Times New Roman,serif" font-size="12.00" fill="blue">amdgpu_amdkfd_gpuvm_alloc_memory_of_gpu</text>
</g>
<!-- kfd_ioctl_alloc_memory_of_gpu&#45;&gt;amdgpu_amdkfd_gpuvm_alloc_memory_of_gpu -->
<g id="edge7" class="edge"><title>kfd_ioctl_alloc_memory_of_gpu&#45;&gt;amdgpu_amdkfd_gpuvm_alloc_memory_of_gpu</title>
<path fill="none" stroke="black" d="M569.845,-811.988C587.1,-803.283 612.331,-790.554 631.875,-780.694"/>
<polygon fill="black" stroke="black" points="633.601,-783.743 640.953,-776.114 630.448,-777.493 633.601,-783.743"/>
</g>
<!-- kfd_process_device_create_obj_handle -->
<g id="node50" class="node"><title>kfd_process_device_create_obj_handle</title>
<polygon fill="Wheat" stroke="black" points="995,-776 797,-776 797,-754 995,-754 995,-776"/>
<text text-anchor="middle" x="896" y="-761.9" font-family="Times New Roman,serif" font-size="12.00" fill="blue">kfd_process_device_create_obj_handle</text>
</g>
<!-- kfd_ioctl_alloc_memory_of_gpu&#45;&gt;kfd_process_device_create_obj_handle -->
<g id="edge56" class="edge"><title>kfd_ioctl_alloc_memory_of_gpu&#45;&gt;kfd_process_device_create_obj_handle</title>
<path fill="none" stroke="black" d="M611.858,-811.988C671.331,-802.363 761.195,-787.818 823.888,-777.671"/>
<polygon fill="black" stroke="black" points="824.783,-781.072 834.095,-776.019 823.665,-774.162 824.783,-781.072"/>
</g>
<!-- kfd_topology_device_by_id -->
<g id="node4" class="node"><title>kfd_topology_device_by_id</title>
<polygon fill="Wheat" stroke="black" points="144,-718 0,-718 0,-696 144,-696 144,-718"/>
<text text-anchor="middle" x="72" y="-703.9" font-family="Times New Roman,serif" font-size="12.00" fill="blue">kfd_topology_device_by_id</text>
</g>
<!-- kfd_device_by_id&#45;&gt;kfd_topology_device_by_id -->
<g id="edge3" class="edge"><title>kfd_device_by_id&#45;&gt;kfd_topology_device_by_id</title>
<path fill="none" stroke="black" d="M164.798,-753.988C147.151,-745.243 121.313,-732.438 101.379,-722.559"/>
<polygon fill="black" stroke="black" points="102.922,-719.418 92.4082,-718.114 99.8142,-725.69 102.922,-719.418"/>
</g>
<!-- kfd_iommu_bind_process_to_device -->
<g id="node6" class="node"><title>kfd_iommu_bind_process_to_device</title>
<polygon fill="Wheat" stroke="black" points="347.5,-718 162.5,-718 162.5,-696 347.5,-696 347.5,-718"/>
<text text-anchor="middle" x="255" y="-703.9" font-family="Times New Roman,serif" font-size="12.00" fill="blue">kfd_iommu_bind_process_to_device</text>
</g>
<!-- kfd_bind_process_to_device&#45;&gt;kfd_iommu_bind_process_to_device -->
<g id="edge5" class="edge"><title>kfd_bind_process_to_device&#45;&gt;kfd_iommu_bind_process_to_device</title>
<path fill="none" stroke="black" d="M406.104,-753.988C375.846,-744.779 330.796,-731.068 297.758,-721.013"/>
<polygon fill="black" stroke="black" points="298.506,-717.583 287.92,-718.019 296.468,-724.279 298.506,-717.583"/>
</g>
<!-- kfd_process_device_init_vm -->
<g id="node7" class="node"><title>kfd_process_device_init_vm</title>
<polygon fill="Wheat" stroke="black" points="512,-718 366,-718 366,-696 512,-696 512,-718"/>
<text text-anchor="middle" x="439" y="-703.9" font-family="Times New Roman,serif" font-size="12.00" fill="blue">kfd_process_device_init_vm</text>
</g>
<!-- kfd_bind_process_to_device&#45;&gt;kfd_process_device_init_vm -->
<g id="edge6" class="edge"><title>kfd_bind_process_to_device&#45;&gt;kfd_process_device_init_vm</title>
<path fill="none" stroke="black" d="M439,-753.988C439,-746.91 439,-737.171 439,-728.478"/>
<polygon fill="black" stroke="black" points="442.5,-728.304 439,-718.304 435.5,-728.304 442.5,-728.304"/>
</g>
<!-- amdgpu_sync_create -->
<g id="node9" class="node"><title>amdgpu_sync_create</title>
<polygon fill="Wheat" stroke="black" points="643.5,-718 530.5,-718 530.5,-696 643.5,-696 643.5,-718"/>
<text text-anchor="middle" x="587" y="-703.9" font-family="Times New Roman,serif" font-size="12.00" fill="blue">amdgpu_sync_create</text>
</g>
<!-- amdgpu_amdkfd_gpuvm_alloc_memory_of_gpu&#45;&gt;amdgpu_sync_create -->
<g id="edge8" class="edge"><title>amdgpu_amdkfd_gpuvm_alloc_memory_of_gpu&#45;&gt;amdgpu_sync_create</title>
<path fill="none" stroke="black" d="M647.77,-753.988C636.961,-745.809 621.459,-734.077 608.818,-724.511"/>
<polygon fill="black" stroke="black" points="610.702,-721.547 600.616,-718.304 606.478,-727.129 610.702,-721.547"/>
</g>
<!-- amdttm_bo_dma_acc_size -->
<g id="node10" class="node"><title>amdttm_bo_dma_acc_size</title>
<polygon fill="Wheat" stroke="black" points="695,-602 557,-602 557,-580 695,-580 695,-602"/>
<text text-anchor="middle" x="626" y="-587.9" font-family="Times New Roman,serif" font-size="12.00" fill="blue">amdttm_bo_dma_acc_size</text>
</g>
<!-- amdgpu_amdkfd_gpuvm_alloc_memory_of_gpu&#45;&gt;amdttm_bo_dma_acc_size -->
<g id="edge9" class="edge"><title>amdgpu_amdkfd_gpuvm_alloc_memory_of_gpu&#45;&gt;amdttm_bo_dma_acc_size</title>
<path fill="none" stroke="black" d="M660.238,-753.796C659.14,-740.437 656.816,-716.328 653,-696 647.432,-666.336 638.117,-632.626 632.015,-611.833"/>
<polygon fill="black" stroke="black" points="635.363,-610.812 629.155,-602.227 628.655,-612.81 635.363,-610.812"/>
</g>
<!-- amdgpu_bo_create -->
<g id="node12" class="node"><title>amdgpu_bo_create</title>
<polygon fill="Wheat" stroke="black" points="804,-718 700,-718 700,-696 804,-696 804,-718"/>
<text text-anchor="middle" x="752" y="-703.9" font-family="Times New Roman,serif" font-size="12.00" fill="blue">amdgpu_bo_create</text>
</g>
<!-- amdgpu_amdkfd_gpuvm_alloc_memory_of_gpu&#45;&gt;amdgpu_bo_create -->
<g id="edge13" class="edge"><title>amdgpu_amdkfd_gpuvm_alloc_memory_of_gpu&#45;&gt;amdgpu_bo_create</title>
<path fill="none" stroke="black" d="M677.269,-753.988C691.03,-745.52 710.977,-733.245 726.802,-723.507"/>
<polygon fill="black" stroke="black" points="728.883,-726.336 735.565,-718.114 725.214,-720.374 728.883,-726.336"/>
</g>
<!-- add_kgd_mem_to_kfd_bo_list -->
<g id="node49" class="node"><title>add_kgd_mem_to_kfd_bo_list</title>
<polygon fill="Wheat" stroke="black" points="979.5,-718 822.5,-718 822.5,-696 979.5,-696 979.5,-718"/>
<text text-anchor="middle" x="901" y="-703.9" font-family="Times New Roman,serif" font-size="12.00" fill="blue">add_kgd_mem_to_kfd_bo_list</text>
</g>
<!-- amdgpu_amdkfd_gpuvm_alloc_memory_of_gpu&#45;&gt;add_kgd_mem_to_kfd_bo_list -->
<g id="edge55" class="edge"><title>amdgpu_amdkfd_gpuvm_alloc_memory_of_gpu&#45;&gt;add_kgd_mem_to_kfd_bo_list</title>
<path fill="none" stroke="black" d="M703.907,-753.988C744.31,-744.561 804.932,-730.416 848.266,-720.305"/>
<polygon fill="black" stroke="black" points="849.117,-723.7 858.06,-718.019 847.527,-716.883 849.117,-723.7"/>
</g>
<!-- amdttm_round_pot -->
<g id="node11" class="node"><title>amdttm_round_pot</title>
<polygon fill="Wheat" stroke="black" points="678,-544 574,-544 574,-522 678,-522 678,-544"/>
<text text-anchor="middle" x="626" y="-529.9" font-family="Times New Roman,serif" font-size="12.00" fill="blue">amdttm_round_pot</text>
</g>
<!-- amdttm_bo_dma_acc_size&#45;&gt;amdttm_round_pot -->
<g id="edge10" class="edge"><title>amdttm_bo_dma_acc_size&#45;&gt;amdttm_round_pot</title>
<path fill="none" stroke="black" d="M615.368,-579.988C612.675,-572.831 611.879,-562.955 612.978,-554.189"/>
<polygon fill="black" stroke="black" points="616.421,-554.835 615.26,-544.304 609.6,-553.26 616.421,-554.835"/>
</g>
<!-- amdttm_bo_dma_acc_size&#45;&gt;amdttm_round_pot -->
<g id="edge11" class="edge"><title>amdttm_bo_dma_acc_size&#45;&gt;amdttm_round_pot</title>
<path fill="none" stroke="black" d="M626,-579.988C626,-572.91 626,-563.171 626,-554.478"/>
<polygon fill="black" stroke="black" points="629.5,-554.304 626,-544.304 622.5,-554.304 629.5,-554.304"/>
</g>
<!-- amdttm_bo_dma_acc_size&#45;&gt;amdttm_round_pot -->
<g id="edge12" class="edge"><title>amdttm_bo_dma_acc_size&#45;&gt;amdttm_round_pot</title>
<path fill="none" stroke="black" d="M636.632,-579.988C639.325,-572.831 640.121,-562.955 639.022,-554.189"/>
<polygon fill="black" stroke="black" points="642.4,-553.26 636.74,-544.304 635.579,-554.835 642.4,-553.26"/>
</g>
<!-- amdgpu_bo_do_create -->
<g id="node13" class="node"><title>amdgpu_bo_do_create</title>
<polygon fill="Wheat" stroke="black" points="1022,-660 900,-660 900,-638 1022,-638 1022,-660"/>
<text text-anchor="middle" x="961" y="-645.9" font-family="Times New Roman,serif" font-size="12.00" fill="blue">amdgpu_bo_do_create</text>
</g>
<!-- amdgpu_bo_create&#45;&gt;amdgpu_bo_do_create -->
<g id="edge14" class="edge"><title>amdgpu_bo_create&#45;&gt;amdgpu_bo_do_create</title>
<path fill="none" stroke="black" d="M789.365,-695.988C824.179,-686.66 876.231,-672.713 913.881,-662.625"/>
<polygon fill="black" stroke="black" points="914.853,-665.988 923.607,-660.019 913.042,-659.227 914.853,-665.988"/>
</g>
<!-- amdgpu_bo_do_create&#45;&gt;amdttm_bo_dma_acc_size -->
<g id="edge15" class="edge"><title>amdgpu_bo_do_create&#45;&gt;amdttm_bo_dma_acc_size</title>
<path fill="none" stroke="black" d="M901.109,-637.988C843.526,-628.363 756.52,-613.818 695.82,-603.671"/>
<polygon fill="black" stroke="black" points="696.377,-600.216 685.937,-602.019 695.223,-607.12 696.377,-600.216"/>
</g>
<!-- amdgpu_bo_placement_from_domain -->
<g id="node14" class="node"><title>amdgpu_bo_placement_from_domain</title>
<polygon fill="Wheat" stroke="black" points="966,-602 778,-602 778,-580 966,-580 966,-602"/>
<text text-anchor="middle" x="872" y="-587.9" font-family="Times New Roman,serif" font-size="12.00" fill="blue">amdgpu_bo_placement_from_domain</text>
</g>
<!-- amdgpu_bo_do_create&#45;&gt;amdgpu_bo_placement_from_domain -->
<g id="edge16" class="edge"><title>amdgpu_bo_do_create&#45;&gt;amdgpu_bo_placement_from_domain</title>
<path fill="none" stroke="black" d="M945.089,-637.988C931.63,-629.52 912.122,-617.245 896.645,-607.507"/>
<polygon fill="black" stroke="black" points="898.402,-604.477 888.074,-602.114 894.674,-610.402 898.402,-604.477"/>
</g>
<!-- amdttm_bo_init_reserved -->
<g id="node15" class="node"><title>amdttm_bo_init_reserved</title>
<polygon fill="Wheat" stroke="black" points="1116,-602 984,-602 984,-580 1116,-580 1116,-602"/>
<text text-anchor="middle" x="1050" y="-587.9" font-family="Times New Roman,serif" font-size="12.00" fill="blue">amdttm_bo_init_reserved</text>
</g>
<!-- amdgpu_bo_do_create&#45;&gt;amdttm_bo_init_reserved -->
<g id="edge17" class="edge"><title>amdgpu_bo_do_create&#45;&gt;amdttm_bo_init_reserved</title>
<path fill="none" stroke="black" d="M976.911,-637.988C990.37,-629.52 1009.88,-617.245 1025.36,-607.507"/>
<polygon fill="black" stroke="black" points="1027.33,-610.402 1033.93,-602.114 1023.6,-604.477 1027.33,-610.402"/>
</g>
<!-- amdttm_bo_move_to_lru_tail -->
<g id="node45" class="node"><title>amdttm_bo_move_to_lru_tail</title>
<polygon fill="Wheat" stroke="black" points="1663,-544 1513,-544 1513,-522 1663,-522 1663,-544"/>
<text text-anchor="middle" x="1588" y="-529.9" font-family="Times New Roman,serif" font-size="12.00" fill="blue">amdttm_bo_move_to_lru_tail</text>
</g>
<!-- amdgpu_bo_do_create&#45;&gt;amdttm_bo_move_to_lru_tail -->
<g id="edge54" class="edge"><title>amdgpu_bo_do_create&#45;&gt;amdttm_bo_move_to_lru_tail</title>
<path fill="none" stroke="black" d="M1022.06,-642.127C1092.52,-634.863 1211.7,-621.08 1313,-602 1394.9,-586.574 1488.87,-561.776 1543.04,-546.772"/>
<polygon fill="black" stroke="black" points="1543.99,-550.142 1552.68,-544.088 1542.11,-543.398 1543.99,-550.142"/>
</g>
<!-- amdgpu_cs_report_moved_bytes -->
<g id="node48" class="node"><title>amdgpu_cs_report_moved_bytes</title>
<polygon fill="Wheat" stroke="black" points="1303.5,-602 1134.5,-602 1134.5,-580 1303.5,-580 1303.5,-602"/>
<text text-anchor="middle" x="1219" y="-587.9" font-family="Times New Roman,serif" font-size="12.00" fill="blue">amdgpu_cs_report_moved_bytes</text>
</g>
<!-- amdgpu_bo_do_create&#45;&gt;amdgpu_cs_report_moved_bytes -->
<g id="edge53" class="edge"><title>amdgpu_bo_do_create&#45;&gt;amdgpu_cs_report_moved_bytes</title>
<path fill="none" stroke="black" d="M1007.13,-637.988C1050.74,-628.521 1116.28,-614.297 1162.9,-604.177"/>
<polygon fill="black" stroke="black" points="1163.81,-607.561 1172.84,-602.019 1162.33,-600.72 1163.81,-607.561"/>
</g>
<!-- amdttm_mem_global_alloc -->
<g id="node16" class="node"><title>amdttm_mem_global_alloc</title>
<polygon fill="Wheat" stroke="black" points="999,-196 861,-196 861,-174 999,-174 999,-196"/>
<text text-anchor="middle" x="930" y="-181.9" font-family="Times New Roman,serif" font-size="12.00" fill="blue">amdttm_mem_global_alloc</text>
</g>
<!-- amdttm_bo_init_reserved&#45;&gt;amdttm_mem_global_alloc -->
<g id="edge18" class="edge"><title>amdttm_bo_init_reserved&#45;&gt;amdttm_mem_global_alloc</title>
<path fill="none" stroke="black" d="M1005.38,-579.974C912.303,-558.437 706,-507.183 706,-476 706,-476 706,-476 706,-300 706,-233.107 786.324,-205.449 850.772,-194.024"/>
<polygon fill="black" stroke="black" points="851.676,-197.421 860.965,-192.326 850.526,-190.517 851.676,-197.421"/>
</g>
<!-- amdttm_bo_validate -->
<g id="node19" class="node"><title>amdttm_bo_validate</title>
<polygon fill="Wheat" stroke="black" points="1120.5,-544 1011.5,-544 1011.5,-522 1120.5,-522 1120.5,-544"/>
<text text-anchor="middle" x="1066" y="-529.9" font-family="Times New Roman,serif" font-size="12.00" fill="blue">amdttm_bo_validate</text>
</g>
<!-- amdttm_bo_init_reserved&#45;&gt;amdttm_bo_validate -->
<g id="edge21" class="edge"><title>amdttm_bo_init_reserved&#45;&gt;amdttm_bo_validate</title>
<path fill="none" stroke="black" d="M1052.86,-579.988C1054.91,-572.831 1057.73,-562.955 1060.23,-554.189"/>
<polygon fill="black" stroke="black" points="1063.67,-554.881 1063.06,-544.304 1056.94,-552.958 1063.67,-554.881"/>
</g>
<!-- amdttm_bo_init_reserved&#45;&gt;amdttm_bo_move_to_lru_tail -->
<g id="edge48" class="edge"><title>amdttm_bo_init_reserved&#45;&gt;amdttm_bo_move_to_lru_tail</title>
<path fill="none" stroke="black" d="M1116.3,-581.15C1119.58,-580.752 1122.83,-580.367 1126,-580 1257.2,-564.84 1409.72,-550.241 1502.52,-541.696"/>
<polygon fill="black" stroke="black" points="1503.06,-545.161 1512.7,-540.761 1502.42,-538.191 1503.06,-545.161"/>
</g>
<!-- ttm_mem_global_alloc_zone -->
<g id="node17" class="node"><title>ttm_mem_global_alloc_zone</title>
<polygon fill="Wheat" stroke="black" points="1193,-80 1047,-80 1047,-58 1193,-58 1193,-80"/>
<text text-anchor="middle" x="1120" y="-65.9" font-family="Times New Roman,serif" font-size="12.00" fill="blue">ttm_mem_global_alloc_zone</text>
</g>
<!-- amdttm_mem_global_alloc&#45;&gt;ttm_mem_global_alloc_zone -->
<g id="edge19" class="edge"><title>amdttm_mem_global_alloc&#45;&gt;ttm_mem_global_alloc_zone</title>
<path fill="none" stroke="black" d="M946.861,-173.883C980.241,-153.855 1054.92,-109.05 1094.4,-85.3608"/>
<polygon fill="black" stroke="black" points="1096.4,-88.2403 1103.18,-80.0941 1092.8,-82.2378 1096.4,-88.2403"/>
</g>
<!-- ttm_check_swapping -->
<g id="node18" class="node"><title>ttm_check_swapping</title>
<polygon fill="Wheat" stroke="black" points="1176.5,-22 1063.5,-22 1063.5,-0 1176.5,-0 1176.5,-22"/>
<text text-anchor="middle" x="1120" y="-7.9" font-family="Times New Roman,serif" font-size="12.00" fill="blue">ttm_check_swapping</text>
</g>
<!-- ttm_mem_global_alloc_zone&#45;&gt;ttm_check_swapping -->
<g id="edge20" class="edge"><title>ttm_mem_global_alloc_zone&#45;&gt;ttm_check_swapping</title>
<path fill="none" stroke="black" d="M1120,-57.9883C1120,-50.9098 1120,-41.1714 1120,-32.4779"/>
<polygon fill="black" stroke="black" points="1123.5,-32.3038 1120,-22.3039 1116.5,-32.3039 1123.5,-32.3038"/>
</g>
<!-- amdttm_bo_mem_compat -->
<g id="node20" class="node"><title>amdttm_bo_mem_compat</title>
<polygon fill="Wheat" stroke="black" points="943,-486 807,-486 807,-464 943,-464 943,-486"/>
<text text-anchor="middle" x="875" y="-471.9" font-family="Times New Roman,serif" font-size="12.00" fill="blue">amdttm_bo_mem_compat</text>
</g>
<!-- amdttm_bo_validate&#45;&gt;amdttm_bo_mem_compat -->
<g id="edge22" class="edge"><title>amdttm_bo_validate&#45;&gt;amdttm_bo_mem_compat</title>
<path fill="none" stroke="black" d="M1031.85,-521.988C1000.31,-512.74 953.277,-498.95 918.942,-488.884"/>
<polygon fill="black" stroke="black" points="919.754,-485.474 909.173,-486.019 917.784,-492.191 919.754,-485.474"/>
</g>
<!-- amdttm_bo_mem_space -->
<g id="node22" class="node"><title>amdttm_bo_mem_space</title>
<polygon fill="Wheat" stroke="black" points="1162,-486 1034,-486 1034,-464 1162,-464 1162,-486"/>
<text text-anchor="middle" x="1098" y="-471.9" font-family="Times New Roman,serif" font-size="12.00" fill="blue">amdttm_bo_mem_space</text>
</g>
<!-- amdttm_bo_validate&#45;&gt;amdttm_bo_mem_space -->
<g id="edge24" class="edge"><title>amdttm_bo_validate&#45;&gt;amdttm_bo_mem_space</title>
<path fill="none" stroke="black" d="M1071.72,-521.988C1075.99,-514.517 1081.95,-504.081 1087.12,-495.039"/>
<polygon fill="black" stroke="black" points="1090.19,-496.723 1092.11,-486.304 1084.11,-493.25 1090.19,-496.723"/>
</g>
<!-- ttm_bo_handle_move_mem -->
<g id="node28" class="node"><title>ttm_bo_handle_move_mem</title>
<polygon fill="Wheat" stroke="black" points="1630.5,-486 1487.5,-486 1487.5,-464 1630.5,-464 1630.5,-486"/>
<text text-anchor="middle" x="1559" y="-471.9" font-family="Times New Roman,serif" font-size="12.00" fill="blue">ttm_bo_handle_move_mem</text>
</g>
<!-- amdttm_bo_validate&#45;&gt;ttm_bo_handle_move_mem -->
<g id="edge30" class="edge"><title>amdttm_bo_validate&#45;&gt;ttm_bo_handle_move_mem</title>
<path fill="none" stroke="black" d="M1120.64,-525.793C1207.17,-515.964 1376.24,-496.759 1477.25,-485.286"/>
<polygon fill="black" stroke="black" points="1477.87,-488.738 1487.41,-484.132 1477.08,-481.783 1477.87,-488.738"/>
</g>
<!-- ttm_bo_places_compat -->
<g id="node21" class="node"><title>ttm_bo_places_compat</title>
<polygon fill="Wheat" stroke="black" points="857.5,-428 734.5,-428 734.5,-406 857.5,-406 857.5,-428"/>
<text text-anchor="middle" x="796" y="-413.9" font-family="Times New Roman,serif" font-size="12.00" fill="blue">ttm_bo_places_compat</text>
</g>
<!-- amdttm_bo_mem_compat&#45;&gt;ttm_bo_places_compat -->
<g id="edge23" class="edge"><title>amdttm_bo_mem_compat&#45;&gt;ttm_bo_places_compat</title>
<path fill="none" stroke="black" d="M860.876,-463.988C849.153,-455.678 832.259,-443.703 818.65,-434.055"/>
<polygon fill="black" stroke="black" points="820.45,-431.042 810.268,-428.114 816.402,-436.752 820.45,-431.042"/>
</g>
<!-- ttm_bo_mem_placement.isra.12 -->
<g id="node23" class="node"><title>ttm_bo_mem_placement.isra.12</title>
<polygon fill="Wheat" stroke="black" points="1038,-428 876,-428 876,-406 1038,-406 1038,-428"/>
<text text-anchor="middle" x="957" y="-413.9" font-family="Times New Roman,serif" font-size="12.00" fill="blue">ttm_bo_mem_placement.isra.12</text>
</g>
<!-- amdttm_bo_mem_space&#45;&gt;ttm_bo_mem_placement.isra.12 -->
<g id="edge25" class="edge"><title>amdttm_bo_mem_space&#45;&gt;ttm_bo_mem_placement.isra.12</title>
<path fill="none" stroke="black" d="M1072.79,-463.988C1050.27,-455.045 1017.07,-441.857 991.982,-431.893"/>
<polygon fill="black" stroke="black" points="993.051,-428.552 982.465,-428.114 990.467,-435.058 993.051,-428.552"/>
</g>
<!-- amdgpu_gtt_mgr_new -->
<g id="node26" class="node"><title>amdgpu_gtt_mgr_new</title>
<polygon fill="Wheat" stroke="black" points="1174,-428 1056,-428 1056,-406 1174,-406 1174,-428"/>
<text text-anchor="middle" x="1115" y="-413.9" font-family="Times New Roman,serif" font-size="12.00" fill="blue">amdgpu_gtt_mgr_new</text>
</g>
<!-- amdttm_bo_mem_space&#45;&gt;amdgpu_gtt_mgr_new -->
<g id="edge28" class="edge"><title>amdttm_bo_mem_space&#45;&gt;amdgpu_gtt_mgr_new</title>
<path fill="none" stroke="black" d="M1101.04,-463.988C1103.24,-456.752 1106.28,-446.737 1108.96,-437.9"/>
<polygon fill="black" stroke="black" points="1112.32,-438.889 1111.87,-428.304 1105.62,-436.856 1112.32,-438.889"/>
</g>
<!-- ttm_bo_add_move_fence.isra.16 -->
<g id="node27" class="node"><title>ttm_bo_add_move_fence.isra.16</title>
<polygon fill="Wheat" stroke="black" points="1359.5,-428 1192.5,-428 1192.5,-406 1359.5,-406 1359.5,-428"/>
<text text-anchor="middle" x="1276" y="-413.9" font-family="Times New Roman,serif" font-size="12.00" fill="blue">ttm_bo_add_move_fence.isra.16</text>
</g>
<!-- amdttm_bo_mem_space&#45;&gt;ttm_bo_add_move_fence.isra.16 -->
<g id="edge29" class="edge"><title>amdttm_bo_mem_space&#45;&gt;ttm_bo_add_move_fence.isra.16</title>
<path fill="none" stroke="black" d="M1129.82,-463.988C1158.97,-454.819 1202.3,-441.187 1234.22,-431.144"/>
<polygon fill="black" stroke="black" points="1235.66,-434.359 1244.15,-428.019 1233.56,-427.682 1235.66,-434.359"/>
</g>
<!-- ttm_bo_del_from_lru -->
<g id="node24" class="node"><title>ttm_bo_del_from_lru</title>
<polygon fill="Wheat" stroke="black" points="1306.5,-370 1193.5,-370 1193.5,-348 1306.5,-348 1306.5,-370"/>
<text text-anchor="middle" x="1250" y="-355.9" font-family="Times New Roman,serif" font-size="12.00" fill="blue">ttm_bo_del_from_lru</text>
</g>
<!-- ttm_bo_mem_placement.isra.12&#45;&gt;ttm_bo_del_from_lru -->
<g id="edge26" class="edge"><title>ttm_bo_mem_placement.isra.12&#45;&gt;ttm_bo_del_from_lru</title>
<path fill="none" stroke="black" d="M1009.38,-405.988C1059.33,-396.442 1134.59,-382.058 1187.62,-371.923"/>
<polygon fill="black" stroke="black" points="1188.41,-375.334 1197.58,-370.019 1187.1,-368.459 1188.41,-375.334"/>
</g>
<!-- ttm_bo_add_mem_to_lru.isra.10 -->
<g id="node25" class="node"><title>ttm_bo_add_mem_to_lru.isra.10</title>
<polygon fill="Wheat" stroke="black" points="1656,-370 1490,-370 1490,-348 1656,-348 1656,-370"/>
<text text-anchor="middle" x="1573" y="-355.9" font-family="Times New Roman,serif" font-size="12.00" fill="blue">ttm_bo_add_mem_to_lru.isra.10</text>
</g>
<!-- ttm_bo_mem_placement.isra.12&#45;&gt;ttm_bo_add_mem_to_lru.isra.10 -->
<g id="edge27" class="edge"><title>ttm_bo_mem_placement.isra.12&#45;&gt;ttm_bo_add_mem_to_lru.isra.10</title>
<path fill="none" stroke="black" d="M1038.42,-406.85C1041.32,-406.557 1044.18,-406.273 1047,-406 1236.35,-387.63 1286.62,-388.426 1479.57,-370.116"/>
<polygon fill="black" stroke="black" points="1480.14,-373.577 1489.77,-369.143 1479.48,-366.609 1480.14,-373.577"/>
</g>
<!-- amdgpu_vm_del_from_lru_notify -->
<g id="node46" class="node"><title>amdgpu_vm_del_from_lru_notify</title>
<polygon fill="Wheat" stroke="black" points="1333.5,-312 1166.5,-312 1166.5,-290 1333.5,-290 1333.5,-312"/>
<text text-anchor="middle" x="1250" y="-297.9" font-family="Times New Roman,serif" font-size="12.00" fill="blue">amdgpu_vm_del_from_lru_notify</text>
</g>
<!-- ttm_bo_del_from_lru&#45;&gt;amdgpu_vm_del_from_lru_notify -->
<g id="edge50" class="edge"><title>ttm_bo_del_from_lru&#45;&gt;amdgpu_vm_del_from_lru_notify</title>
<path fill="none" stroke="black" d="M1250,-347.988C1250,-340.91 1250,-331.171 1250,-322.478"/>
<polygon fill="black" stroke="black" points="1253.5,-322.304 1250,-312.304 1246.5,-322.304 1253.5,-322.304"/>
</g>
<!-- ttm_tt_create -->
<g id="node29" class="node"><title>ttm_tt_create</title>
<polygon fill="Wheat" stroke="black" points="1454.5,-428 1377.5,-428 1377.5,-406 1454.5,-406 1454.5,-428"/>
<text text-anchor="middle" x="1416" y="-413.9" font-family="Times New Roman,serif" font-size="12.00" fill="blue">ttm_tt_create</text>
</g>
<!-- ttm_bo_handle_move_mem&#45;&gt;ttm_tt_create -->
<g id="edge31" class="edge"><title>ttm_bo_handle_move_mem&#45;&gt;ttm_tt_create</title>
<path fill="none" stroke="black" d="M1533.43,-463.988C1510.5,-455.006 1476.62,-441.74 1451.14,-431.761"/>
<polygon fill="black" stroke="black" points="1452.41,-428.501 1441.83,-428.114 1449.86,-435.019 1452.41,-428.501"/>
</g>
<!-- amdttm_tt_set_placement_caching -->
<g id="node33" class="node"><title>amdttm_tt_set_placement_caching</title>
<polygon fill="Wheat" stroke="black" points="1645.5,-428 1472.5,-428 1472.5,-406 1645.5,-406 1645.5,-428"/>
<text text-anchor="middle" x="1559" y="-413.9" font-family="Times New Roman,serif" font-size="12.00" fill="blue">amdttm_tt_set_placement_caching</text>
</g>
<!-- ttm_bo_handle_move_mem&#45;&gt;amdttm_tt_set_placement_caching -->
<g id="edge35" class="edge"><title>ttm_bo_handle_move_mem&#45;&gt;amdttm_tt_set_placement_caching</title>
<path fill="none" stroke="black" d="M1559,-463.988C1559,-456.91 1559,-447.171 1559,-438.478"/>
<polygon fill="black" stroke="black" points="1562.5,-438.304 1559,-428.304 1555.5,-438.304 1562.5,-438.304"/>
</g>
<!-- amdttm_tt_bind -->
<g id="node34" class="node"><title>amdttm_tt_bind</title>
<polygon fill="Wheat" stroke="black" points="1790,-428 1702,-428 1702,-406 1790,-406 1790,-428"/>
<text text-anchor="middle" x="1746" y="-413.9" font-family="Times New Roman,serif" font-size="12.00" fill="blue">amdttm_tt_bind</text>
</g>
<!-- ttm_bo_handle_move_mem&#45;&gt;amdttm_tt_bind -->
<g id="edge36" class="edge"><title>ttm_bo_handle_move_mem&#45;&gt;amdttm_tt_bind</title>
<path fill="none" stroke="black" d="M1592.43,-463.988C1623.18,-454.779 1668.97,-441.068 1702.54,-431.013"/>
<polygon fill="black" stroke="black" points="1703.97,-434.241 1712.54,-428.019 1701.96,-427.535 1703.97,-434.241"/>
</g>
<!-- amdgpu_bo_move_notify -->
<g id="node43" class="node"><title>amdgpu_bo_move_notify</title>
<polygon fill="Wheat" stroke="black" points="1940,-428 1808,-428 1808,-406 1940,-406 1940,-428"/>
<text text-anchor="middle" x="1874" y="-413.9" font-family="Times New Roman,serif" font-size="12.00" fill="blue">amdgpu_bo_move_notify</text>
</g>
<!-- ttm_bo_handle_move_mem&#45;&gt;amdgpu_bo_move_notify -->
<g id="edge46" class="edge"><title>ttm_bo_handle_move_mem&#45;&gt;amdgpu_bo_move_notify</title>
<path fill="none" stroke="black" d="M1615.32,-463.988C1669.24,-454.402 1750.6,-439.938 1807.64,-429.797"/>
<polygon fill="black" stroke="black" points="1808.41,-433.216 1817.64,-428.019 1807.18,-426.324 1808.41,-433.216"/>
</g>
<!-- amdgpu_ttm_tt_create -->
<g id="node30" class="node"><title>amdgpu_ttm_tt_create</title>
<polygon fill="Wheat" stroke="black" points="1155.5,-370 1036.5,-370 1036.5,-348 1155.5,-348 1155.5,-370"/>
<text text-anchor="middle" x="1096" y="-355.9" font-family="Times New Roman,serif" font-size="12.00" fill="blue">amdgpu_ttm_tt_create</text>
</g>
<!-- ttm_tt_create&#45;&gt;amdgpu_ttm_tt_create -->
<g id="edge32" class="edge"><title>ttm_tt_create&#45;&gt;amdgpu_ttm_tt_create</title>
<path fill="none" stroke="black" d="M1377.3,-407.629C1374.49,-407.064 1371.7,-406.515 1369,-406 1299.99,-392.852 1220.8,-379.723 1165.54,-370.877"/>
<polygon fill="black" stroke="black" points="1165.94,-367.396 1155.51,-369.276 1164.83,-374.309 1165.94,-367.396"/>
</g>
<!-- amdttm_dma_tt_init -->
<g id="node31" class="node"><title>amdttm_dma_tt_init</title>
<polygon fill="Wheat" stroke="black" points="1138.5,-312 1031.5,-312 1031.5,-290 1138.5,-290 1138.5,-312"/>
<text text-anchor="middle" x="1085" y="-297.9" font-family="Times New Roman,serif" font-size="12.00" fill="blue">amdttm_dma_tt_init</text>
</g>
<!-- amdgpu_ttm_tt_create&#45;&gt;amdttm_dma_tt_init -->
<g id="edge33" class="edge"><title>amdgpu_ttm_tt_create&#45;&gt;amdttm_dma_tt_init</title>
<path fill="none" stroke="black" d="M1094.03,-347.988C1092.63,-340.831 1090.69,-330.955 1088.97,-322.189"/>
<polygon fill="black" stroke="black" points="1092.39,-321.442 1087.02,-312.304 1085.52,-322.791 1092.39,-321.442"/>
</g>
<!-- ttm_dma_tt_alloc_page_directory -->
<g id="node32" class="node"><title>ttm_dma_tt_alloc_page_directory</title>
<polygon fill="Wheat" stroke="black" points="1160,-254 990,-254 990,-232 1160,-232 1160,-254"/>
<text text-anchor="middle" x="1075" y="-239.9" font-family="Times New Roman,serif" font-size="12.00" fill="blue">ttm_dma_tt_alloc_page_directory</text>
</g>
<!-- amdttm_dma_tt_init&#45;&gt;ttm_dma_tt_alloc_page_directory -->
<g id="edge34" class="edge"><title>amdttm_dma_tt_init&#45;&gt;ttm_dma_tt_alloc_page_directory</title>
<path fill="none" stroke="black" d="M1083.21,-289.988C1081.93,-282.831 1080.17,-272.955 1078.61,-264.189"/>
<polygon fill="black" stroke="black" points="1082.04,-263.533 1076.84,-254.304 1075.15,-264.763 1082.04,-263.533"/>
</g>
<!-- ttm_tt_populate -->
<g id="node35" class="node"><title>ttm_tt_populate</title>
<polygon fill="Wheat" stroke="black" points="1472,-370 1384,-370 1384,-348 1472,-348 1472,-370"/>
<text text-anchor="middle" x="1428" y="-355.9" font-family="Times New Roman,serif" font-size="12.00" fill="blue">ttm_tt_populate</text>
</g>
<!-- amdttm_tt_bind&#45;&gt;ttm_tt_populate -->
<g id="edge37" class="edge"><title>amdttm_tt_bind&#45;&gt;ttm_tt_populate</title>
<path fill="none" stroke="black" d="M1701.91,-408.382C1638.21,-397.374 1524.22,-377.65 1482.11,-370.166"/>
<polygon fill="black" stroke="black" points="1482.7,-366.716 1472.24,-368.397 1481.46,-373.606 1482.7,-366.716"/>
</g>
<!-- amdgpu_ttm_backend_bind -->
<g id="node41" class="node"><title>amdgpu_ttm_backend_bind</title>
<polygon fill="Wheat" stroke="black" points="1817.5,-370 1674.5,-370 1674.5,-348 1817.5,-348 1817.5,-370"/>
<text text-anchor="middle" x="1746" y="-355.9" font-family="Times New Roman,serif" font-size="12.00" fill="blue">amdgpu_ttm_backend_bind</text>
</g>
<!-- amdttm_tt_bind&#45;&gt;amdgpu_ttm_backend_bind -->
<g id="edge44" class="edge"><title>amdttm_tt_bind&#45;&gt;amdgpu_ttm_backend_bind</title>
<path fill="none" stroke="black" d="M1746,-405.988C1746,-398.91 1746,-389.171 1746,-380.478"/>
<polygon fill="black" stroke="black" points="1749.5,-380.304 1746,-370.304 1742.5,-380.304 1749.5,-380.304"/>
</g>
<!-- amdgpu_ttm_tt_populate -->
<g id="node36" class="node"><title>amdgpu_ttm_tt_populate</title>
<polygon fill="Wheat" stroke="black" points="1493,-312 1363,-312 1363,-290 1493,-290 1493,-312"/>
<text text-anchor="middle" x="1428" y="-297.9" font-family="Times New Roman,serif" font-size="12.00" fill="blue">amdgpu_ttm_tt_populate</text>
</g>
<!-- ttm_tt_populate&#45;&gt;amdgpu_ttm_tt_populate -->
<g id="edge38" class="edge"><title>ttm_tt_populate&#45;&gt;amdgpu_ttm_tt_populate</title>
<path fill="none" stroke="black" d="M1428,-347.988C1428,-340.91 1428,-331.171 1428,-322.478"/>
<polygon fill="black" stroke="black" points="1431.5,-322.304 1428,-312.304 1424.5,-322.304 1431.5,-322.304"/>
</g>
<!-- amdttm_populate_and_map_pages -->
<g id="node37" class="node"><title>amdttm_populate_and_map_pages</title>
<polygon fill="Wheat" stroke="black" points="1516,-254 1340,-254 1340,-232 1516,-232 1516,-254"/>
<text text-anchor="middle" x="1428" y="-239.9" font-family="Times New Roman,serif" font-size="12.00" fill="blue">amdttm_populate_and_map_pages</text>
</g>
<!-- amdgpu_ttm_tt_populate&#45;&gt;amdttm_populate_and_map_pages -->
<g id="edge39" class="edge"><title>amdgpu_ttm_tt_populate&#45;&gt;amdttm_populate_and_map_pages</title>
<path fill="none" stroke="black" d="M1428,-289.988C1428,-282.91 1428,-273.171 1428,-264.478"/>
<polygon fill="black" stroke="black" points="1431.5,-264.304 1428,-254.304 1424.5,-264.304 1431.5,-264.304"/>
</g>
<!-- amdttm_pool_populate -->
<g id="node38" class="node"><title>amdttm_pool_populate</title>
<polygon fill="Wheat" stroke="black" points="1461,-196 1339,-196 1339,-174 1461,-174 1461,-196"/>
<text text-anchor="middle" x="1400" y="-181.9" font-family="Times New Roman,serif" font-size="12.00" fill="blue">amdttm_pool_populate</text>
</g>
<!-- amdttm_populate_and_map_pages&#45;&gt;amdttm_pool_populate -->
<g id="edge40" class="edge"><title>amdttm_populate_and_map_pages&#45;&gt;amdttm_pool_populate</title>
<path fill="none" stroke="black" d="M1422.99,-231.988C1419.3,-224.595 1414.15,-214.301 1409.66,-205.325"/>
<polygon fill="black" stroke="black" points="1412.75,-203.683 1405.15,-196.304 1406.49,-206.813 1412.75,-203.683"/>
</g>
<!-- amdttm_check_under_lowerlimit -->
<g id="node39" class="node"><title>amdttm_check_under_lowerlimit</title>
<polygon fill="Wheat" stroke="black" points="1482,-138 1318,-138 1318,-116 1482,-116 1482,-138"/>
<text text-anchor="middle" x="1400" y="-123.9" font-family="Times New Roman,serif" font-size="12.00" fill="blue">amdttm_check_under_lowerlimit</text>
</g>
<!-- amdttm_pool_populate&#45;&gt;amdttm_check_under_lowerlimit -->
<g id="edge41" class="edge"><title>amdttm_pool_populate&#45;&gt;amdttm_check_under_lowerlimit</title>
<path fill="none" stroke="black" d="M1400,-173.988C1400,-166.91 1400,-157.171 1400,-148.478"/>
<polygon fill="black" stroke="black" points="1403.5,-148.304 1400,-138.304 1396.5,-148.304 1403.5,-148.304"/>
</g>
<!-- ttm_mem_global_alloc_page -->
<g id="node40" class="node"><title>ttm_mem_global_alloc_page</title>
<polygon fill="Wheat" stroke="black" points="1272,-138 1126,-138 1126,-116 1272,-116 1272,-138"/>
<text text-anchor="middle" x="1199" y="-123.9" font-family="Times New Roman,serif" font-size="12.00" fill="blue">ttm_mem_global_alloc_page</text>
</g>
<!-- amdttm_pool_populate&#45;&gt;ttm_mem_global_alloc_page -->
<g id="edge42" class="edge"><title>amdttm_pool_populate&#45;&gt;ttm_mem_global_alloc_page</title>
<path fill="none" stroke="black" d="M1364.07,-173.988C1330.73,-164.7 1280.95,-150.832 1244.78,-140.754"/>
<polygon fill="black" stroke="black" points="1245.53,-137.332 1234.96,-138.019 1243.66,-144.075 1245.53,-137.332"/>
</g>
<!-- ttm_mem_global_alloc_page&#45;&gt;ttm_mem_global_alloc_zone -->
<g id="edge43" class="edge"><title>ttm_mem_global_alloc_page&#45;&gt;ttm_mem_global_alloc_zone</title>
<path fill="none" stroke="black" d="M1184.88,-115.988C1173.15,-107.678 1156.26,-95.7028 1142.65,-86.0554"/>
<polygon fill="black" stroke="black" points="1144.45,-83.0415 1134.27,-80.1138 1140.4,-88.7523 1144.45,-83.0415"/>
</g>
<!-- amdgpu_gtt_mgr_has_gart_addr -->
<g id="node42" class="node"><title>amdgpu_gtt_mgr_has_gart_addr</title>
<polygon fill="Wheat" stroke="black" points="1828,-312 1664,-312 1664,-290 1828,-290 1828,-312"/>
<text text-anchor="middle" x="1746" y="-297.9" font-family="Times New Roman,serif" font-size="12.00" fill="blue">amdgpu_gtt_mgr_has_gart_addr</text>
</g>
<!-- amdgpu_ttm_backend_bind&#45;&gt;amdgpu_gtt_mgr_has_gart_addr -->
<g id="edge45" class="edge"><title>amdgpu_ttm_backend_bind&#45;&gt;amdgpu_gtt_mgr_has_gart_addr</title>
<path fill="none" stroke="black" d="M1746,-347.988C1746,-340.91 1746,-331.171 1746,-322.478"/>
<polygon fill="black" stroke="black" points="1749.5,-322.304 1746,-312.304 1742.5,-322.304 1749.5,-322.304"/>
</g>
<!-- amdgpu_vm_bo_invalidate -->
<g id="node44" class="node"><title>amdgpu_vm_bo_invalidate</title>
<polygon fill="Wheat" stroke="black" points="1974,-370 1836,-370 1836,-348 1974,-348 1974,-370"/>
<text text-anchor="middle" x="1905" y="-355.9" font-family="Times New Roman,serif" font-size="12.00" fill="blue">amdgpu_vm_bo_invalidate</text>
</g>
<!-- amdgpu_bo_move_notify&#45;&gt;amdgpu_vm_bo_invalidate -->
<g id="edge47" class="edge"><title>amdgpu_bo_move_notify&#45;&gt;amdgpu_vm_bo_invalidate</title>
<path fill="none" stroke="black" d="M1879.54,-405.988C1883.63,-398.595 1889.33,-388.301 1894.3,-379.325"/>
<polygon fill="black" stroke="black" points="1897.51,-380.748 1899.3,-370.304 1891.39,-377.358 1897.51,-380.748"/>
</g>
<!-- amdttm_bo_move_to_lru_tail&#45;&gt;ttm_bo_del_from_lru -->
<g id="edge49" class="edge"><title>amdttm_bo_move_to_lru_tail&#45;&gt;ttm_bo_del_from_lru</title>
<path fill="none" stroke="black" d="M1603.94,-521.788C1615.61,-513.503 1630.93,-500.799 1640,-486 1658.9,-455.156 1679.09,-432.985 1655,-406 1643.89,-393.555 1429.31,-374.478 1317.11,-365.297"/>
<polygon fill="black" stroke="black" points="1317.16,-361.79 1306.91,-364.467 1316.59,-368.767 1317.16,-361.79"/>
</g>
<!-- amdttm_bo_move_to_lru_tail&#45;&gt;ttm_bo_add_mem_to_lru.isra.10 -->
<g id="edge52" class="edge"><title>amdttm_bo_move_to_lru_tail&#45;&gt;ttm_bo_add_mem_to_lru.isra.10</title>
<path fill="none" stroke="black" d="M1663.01,-530.084C1791.67,-524.258 2032.87,-500.754 1949,-406 1946.65,-403.347 1777,-383.413 1666.41,-370.671"/>
<polygon fill="black" stroke="black" points="1666.57,-367.166 1656.24,-369.499 1665.77,-374.12 1666.57,-367.166"/>
</g>
<!-- amdgpu_bo_is_amdgpu_bo -->
<g id="node47" class="node"><title>amdgpu_bo_is_amdgpu_bo</title>
<polygon fill="Wheat" stroke="black" points="1321.5,-254 1178.5,-254 1178.5,-232 1321.5,-232 1321.5,-254"/>
<text text-anchor="middle" x="1250" y="-239.9" font-family="Times New Roman,serif" font-size="12.00" fill="blue">amdgpu_bo_is_amdgpu_bo</text>
</g>
<!-- amdgpu_vm_del_from_lru_notify&#45;&gt;amdgpu_bo_is_amdgpu_bo -->
<g id="edge51" class="edge"><title>amdgpu_vm_del_from_lru_notify&#45;&gt;amdgpu_bo_is_amdgpu_bo</title>
<path fill="none" stroke="black" d="M1250,-289.988C1250,-282.91 1250,-273.171 1250,-264.478"/>
<polygon fill="black" stroke="black" points="1253.5,-264.304 1250,-254.304 1246.5,-264.304 1253.5,-264.304"/>
</g>
</g>
</svg>
