<?xml version="1.0" encoding="UTF-8" standalone="no"?>
<!DOCTYPE svg PUBLIC "-//W3C//DTD SVG 1.1//EN"
 "http://www.w3.org/Graphics/SVG/1.1/DTD/svg11.dtd">
<!-- Generated by graphviz version 2.38.0 (20140413.2041)
 -->
<!-- Title: G Pages: 1 -->
<svg width="731pt" height="378pt"
 viewBox="0.00 0.00 730.50 378.00" xmlns="http://www.w3.org/2000/svg" xmlns:xlink="http://www.w3.org/1999/xlink">
<g id="graph0" class="graph" transform="scale(1 1) rotate(0) translate(4 374)">
<title>G</title>
<polygon fill="white" stroke="none" points="-4,4 -4,-374 726.5,-374 726.5,4 -4,4"/>
<!-- sock_aio_read.part.9 -->
<g id="node1" class="node"><title>sock_aio_read.part.9</title>
<polygon fill="Wheat" stroke="black" points="446.5,-370 332.5,-370 332.5,-348 446.5,-348 446.5,-370"/>
<text text-anchor="middle" x="389.5" y="-355.9" font-family="Times New Roman,serif" font-size="12.00" fill="blue">sock_aio_read.part.9</text>
</g>
<!-- inet_recvmsg -->
<g id="node2" class="node"><title>inet_recvmsg</title>
<polygon fill="Wheat" stroke="black" points="427.5,-312 351.5,-312 351.5,-290 427.5,-290 427.5,-312"/>
<text text-anchor="middle" x="389.5" y="-297.9" font-family="Times New Roman,serif" font-size="12.00" fill="blue">inet_recvmsg</text>
</g>
<!-- sock_aio_read.part.9&#45;&gt;inet_recvmsg -->
<g id="edge1" class="edge"><title>sock_aio_read.part.9&#45;&gt;inet_recvmsg</title>
<path fill="none" stroke="black" d="M389.5,-347.988C389.5,-340.91 389.5,-331.171 389.5,-322.478"/>
<polygon fill="black" stroke="black" points="393,-322.304 389.5,-312.304 386,-322.304 393,-322.304"/>
</g>
<!-- tcp_recvmsg -->
<g id="node3" class="node"><title>tcp_recvmsg</title>
<polygon fill="Wheat" stroke="black" points="426.5,-254 352.5,-254 352.5,-232 426.5,-232 426.5,-254"/>
<text text-anchor="middle" x="389.5" y="-239.9" font-family="Times New Roman,serif" font-size="12.00" fill="blue">tcp_recvmsg</text>
</g>
<!-- inet_recvmsg&#45;&gt;tcp_recvmsg -->
<g id="edge2" class="edge"><title>inet_recvmsg&#45;&gt;tcp_recvmsg</title>
<path fill="none" stroke="black" d="M389.5,-289.988C389.5,-282.91 389.5,-273.171 389.5,-264.478"/>
<polygon fill="black" stroke="black" points="393,-264.304 389.5,-254.304 386,-264.304 393,-264.304"/>
</g>
<!-- lock_sock_nested -->
<g id="node4" class="node"><title>lock_sock_nested</title>
<polygon fill="Wheat" stroke="black" points="99,-196 0,-196 0,-174 99,-174 99,-196"/>
<text text-anchor="middle" x="49.5" y="-181.9" font-family="Times New Roman,serif" font-size="12.00" fill="blue">lock_sock_nested</text>
</g>
<!-- tcp_recvmsg&#45;&gt;lock_sock_nested -->
<g id="edge3" class="edge"><title>tcp_recvmsg&#45;&gt;lock_sock_nested</title>
<path fill="none" stroke="black" d="M352.217,-235.965C300.229,-227.535 202.741,-211.673 109.006,-196.077"/>
<polygon fill="black" stroke="black" points="109.51,-192.613 99.0711,-194.423 108.36,-199.518 109.51,-192.613"/>
</g>
<!-- skb_copy_datagram_iovec -->
<g id="node5" class="node"><title>skb_copy_datagram_iovec</title>
<polygon fill="Wheat" stroke="black" points="257.5,-196 117.5,-196 117.5,-174 257.5,-174 257.5,-196"/>
<text text-anchor="middle" x="187.5" y="-181.9" font-family="Times New Roman,serif" font-size="12.00" fill="blue">skb_copy_datagram_iovec</text>
</g>
<!-- tcp_recvmsg&#45;&gt;skb_copy_datagram_iovec -->
<g id="edge4" class="edge"><title>tcp_recvmsg&#45;&gt;skb_copy_datagram_iovec</title>
<path fill="none" stroke="black" d="M353.386,-231.988C319.882,-222.7 269.857,-208.832 233.506,-198.754"/>
<polygon fill="black" stroke="black" points="234.212,-195.318 223.641,-196.019 232.342,-202.064 234.212,-195.318"/>
</g>
<!-- tcp_rcv_space_adjust -->
<g id="node6" class="node"><title>tcp_rcv_space_adjust</title>
<polygon fill="Wheat" stroke="black" points="391.5,-196 275.5,-196 275.5,-174 391.5,-174 391.5,-196"/>
<text text-anchor="middle" x="333.5" y="-181.9" font-family="Times New Roman,serif" font-size="12.00" fill="blue">tcp_rcv_space_adjust</text>
</g>
<!-- tcp_recvmsg&#45;&gt;tcp_rcv_space_adjust -->
<g id="edge5" class="edge"><title>tcp_recvmsg&#45;&gt;tcp_rcv_space_adjust</title>
<path fill="none" stroke="black" d="M379.488,-231.988C371.623,-224.123 360.474,-212.974 351.124,-203.624"/>
<polygon fill="black" stroke="black" points="353.35,-200.9 343.804,-196.304 348.4,-205.85 353.35,-200.9"/>
</g>
<!-- __kfree_skb -->
<g id="node7" class="node"><title>__kfree_skb</title>
<polygon fill="Wheat" stroke="black" points="483.5,-196 409.5,-196 409.5,-174 483.5,-174 483.5,-196"/>
<text text-anchor="middle" x="446.5" y="-181.9" font-family="Times New Roman,serif" font-size="12.00" fill="blue">__kfree_skb</text>
</g>
<!-- tcp_recvmsg&#45;&gt;__kfree_skb -->
<g id="edge6" class="edge"><title>tcp_recvmsg&#45;&gt;__kfree_skb</title>
<path fill="none" stroke="black" d="M399.69,-231.988C407.776,-224.045 419.271,-212.751 428.846,-203.344"/>
<polygon fill="black" stroke="black" points="431.332,-205.809 436.012,-196.304 426.426,-200.815 431.332,-205.809"/>
</g>
<!-- tcp_cleanup_rbuf -->
<g id="node13" class="node"><title>tcp_cleanup_rbuf</title>
<polygon fill="Wheat" stroke="black" points="604,-196 509,-196 509,-174 604,-174 604,-196"/>
<text text-anchor="middle" x="556.5" y="-181.9" font-family="Times New Roman,serif" font-size="12.00" fill="blue">tcp_cleanup_rbuf</text>
</g>
<!-- tcp_recvmsg&#45;&gt;tcp_cleanup_rbuf -->
<g id="edge12" class="edge"><title>tcp_recvmsg&#45;&gt;tcp_cleanup_rbuf</title>
<path fill="none" stroke="black" d="M419.356,-231.988C446.582,-222.859 487.002,-209.305 516.914,-199.274"/>
<polygon fill="black" stroke="black" points="518.253,-202.517 526.621,-196.019 516.027,-195.88 518.253,-202.517"/>
</g>
<!-- release_sock -->
<g id="node15" class="node"><title>release_sock</title>
<polygon fill="Wheat" stroke="black" points="710.5,-196 634.5,-196 634.5,-174 710.5,-174 710.5,-196"/>
<text text-anchor="middle" x="672.5" y="-181.9" font-family="Times New Roman,serif" font-size="12.00" fill="blue">release_sock</text>
</g>
<!-- tcp_recvmsg&#45;&gt;release_sock -->
<g id="edge14" class="edge"><title>tcp_recvmsg&#45;&gt;release_sock</title>
<path fill="none" stroke="black" d="M426.788,-234.621C477.514,-224.584 568.333,-206.613 624.214,-195.555"/>
<polygon fill="black" stroke="black" points="625.093,-198.949 634.224,-193.574 623.734,-192.082 625.093,-198.949"/>
</g>
<!-- skb_release_all -->
<g id="node8" class="node"><title>skb_release_all</title>
<polygon fill="Wheat" stroke="black" points="382.5,-138 296.5,-138 296.5,-116 382.5,-116 382.5,-138"/>
<text text-anchor="middle" x="339.5" y="-123.9" font-family="Times New Roman,serif" font-size="12.00" fill="blue">skb_release_all</text>
</g>
<!-- __kfree_skb&#45;&gt;skb_release_all -->
<g id="edge7" class="edge"><title>__kfree_skb&#45;&gt;skb_release_all</title>
<path fill="none" stroke="black" d="M427.371,-173.988C410.812,-165.322 386.636,-152.67 367.833,-142.828"/>
<polygon fill="black" stroke="black" points="369.308,-139.65 358.825,-138.114 366.062,-145.852 369.308,-139.65"/>
</g>
<!-- kfree_skbmem -->
<g id="node12" class="node"><title>kfree_skbmem</title>
<polygon fill="Wheat" stroke="black" points="484.5,-138 400.5,-138 400.5,-116 484.5,-116 484.5,-138"/>
<text text-anchor="middle" x="442.5" y="-123.9" font-family="Times New Roman,serif" font-size="12.00" fill="blue">kfree_skbmem</text>
</g>
<!-- __kfree_skb&#45;&gt;kfree_skbmem -->
<g id="edge11" class="edge"><title>__kfree_skb&#45;&gt;kfree_skbmem</title>
<path fill="none" stroke="black" d="M445.785,-173.988C445.279,-166.91 444.584,-157.171 443.963,-148.478"/>
<polygon fill="black" stroke="black" points="447.44,-148.029 443.236,-138.304 440.457,-148.528 447.44,-148.029"/>
</g>
<!-- skb_release_head_state -->
<g id="node9" class="node"><title>skb_release_head_state</title>
<polygon fill="Wheat" stroke="black" points="338,-80 213,-80 213,-58 338,-58 338,-80"/>
<text text-anchor="middle" x="275.5" y="-65.9" font-family="Times New Roman,serif" font-size="12.00" fill="blue">skb_release_head_state</text>
</g>
<!-- skb_release_all&#45;&gt;skb_release_head_state -->
<g id="edge8" class="edge"><title>skb_release_all&#45;&gt;skb_release_head_state</title>
<path fill="none" stroke="black" d="M328.058,-115.988C318.89,-107.966 305.817,-96.5272 295.003,-87.065"/>
<polygon fill="black" stroke="black" points="297.106,-84.2549 287.276,-80.3039 292.497,-89.523 297.106,-84.2549"/>
</g>
<!-- skb_release_data -->
<g id="node11" class="node"><title>skb_release_data</title>
<polygon fill="Wheat" stroke="black" points="452.5,-80 356.5,-80 356.5,-58 452.5,-58 452.5,-80"/>
<text text-anchor="middle" x="404.5" y="-65.9" font-family="Times New Roman,serif" font-size="12.00" fill="blue">skb_release_data</text>
</g>
<!-- skb_release_all&#45;&gt;skb_release_data -->
<g id="edge10" class="edge"><title>skb_release_all&#45;&gt;skb_release_data</title>
<path fill="none" stroke="black" d="M351.121,-115.988C360.432,-107.966 373.709,-96.5272 384.692,-87.065"/>
<polygon fill="black" stroke="black" points="387.249,-89.4826 392.54,-80.3039 382.68,-84.1794 387.249,-89.4826"/>
</g>
<!-- sock_rfree -->
<g id="node10" class="node"><title>sock_rfree</title>
<polygon fill="Wheat" stroke="black" points="308,-22 243,-22 243,-0 308,-0 308,-22"/>
<text text-anchor="middle" x="275.5" y="-7.9" font-family="Times New Roman,serif" font-size="12.00" fill="blue">sock_rfree</text>
</g>
<!-- skb_release_head_state&#45;&gt;sock_rfree -->
<g id="edge9" class="edge"><title>skb_release_head_state&#45;&gt;sock_rfree</title>
<path fill="none" stroke="black" d="M275.5,-57.9883C275.5,-50.9098 275.5,-41.1714 275.5,-32.4779"/>
<polygon fill="black" stroke="black" points="279,-32.3038 275.5,-22.3039 272,-32.3039 279,-32.3038"/>
</g>
<!-- __tcp_select_window -->
<g id="node14" class="node"><title>__tcp_select_window</title>
<polygon fill="Wheat" stroke="black" points="618.5,-138 502.5,-138 502.5,-116 618.5,-116 618.5,-138"/>
<text text-anchor="middle" x="560.5" y="-123.9" font-family="Times New Roman,serif" font-size="12.00" fill="blue">__tcp_select_window</text>
</g>
<!-- tcp_cleanup_rbuf&#45;&gt;__tcp_select_window -->
<g id="edge13" class="edge"><title>tcp_cleanup_rbuf&#45;&gt;__tcp_select_window</title>
<path fill="none" stroke="black" d="M557.215,-173.988C557.721,-166.91 558.416,-157.171 559.037,-148.478"/>
<polygon fill="black" stroke="black" points="562.543,-148.528 559.764,-138.304 555.56,-148.029 562.543,-148.528"/>
</g>
<!-- tcp_release_cb -->
<g id="node16" class="node"><title>tcp_release_cb</title>
<polygon fill="Wheat" stroke="black" points="722.5,-138 636.5,-138 636.5,-116 722.5,-116 722.5,-138"/>
<text text-anchor="middle" x="679.5" y="-123.9" font-family="Times New Roman,serif" font-size="12.00" fill="blue">tcp_release_cb</text>
</g>
<!-- release_sock&#45;&gt;tcp_release_cb -->
<g id="edge15" class="edge"><title>release_sock&#45;&gt;tcp_release_cb</title>
<path fill="none" stroke="black" d="M673.751,-173.988C674.636,-166.91 675.854,-157.171 676.94,-148.478"/>
<polygon fill="black" stroke="black" points="680.445,-148.661 678.212,-138.304 673.499,-147.793 680.445,-148.661"/>
</g>
</g>
</svg>
