<?xml version="1.0" encoding="UTF-8" standalone="no"?>
<!DOCTYPE svg PUBLIC "-//W3C//DTD SVG 1.1//EN"
 "http://www.w3.org/Graphics/SVG/1.1/DTD/svg11.dtd">
<!-- Generated by graphviz version 2.38.0 (20140413.2041)
 -->
<!-- Title: G Pages: 1 -->
<svg width="1716pt" height="1074pt"
 viewBox="0.00 0.00 1716.00 1074.00" xmlns="http://www.w3.org/2000/svg" xmlns:xlink="http://www.w3.org/1999/xlink">
<g id="graph0" class="graph" transform="scale(1 1) rotate(0) translate(4 1070)">
<title>G</title>
<polygon fill="white" stroke="none" points="-4,4 -4,-1070 1712,-1070 1712,4 -4,4"/>
<!-- sock_aio_write -->
<g id="node1" class="node"><title>sock_aio_write</title>
<polygon fill="Wheat" stroke="black" points="514.5,-1066 428.5,-1066 428.5,-1044 514.5,-1044 514.5,-1066"/>
<text text-anchor="middle" x="471.5" y="-1051.9" font-family="Times New Roman,serif" font-size="12.00" fill="blue">sock_aio_write</text>
</g>
<!-- inet_sendmsg -->
<g id="node2" class="node"><title>inet_sendmsg</title>
<polygon fill="Wheat" stroke="black" points="510,-1008 433,-1008 433,-986 510,-986 510,-1008"/>
<text text-anchor="middle" x="471.5" y="-993.9" font-family="Times New Roman,serif" font-size="12.00" fill="blue">inet_sendmsg</text>
</g>
<!-- sock_aio_write&#45;&gt;inet_sendmsg -->
<g id="edge1" class="edge"><title>sock_aio_write&#45;&gt;inet_sendmsg</title>
<path fill="none" stroke="black" d="M471.5,-1043.99C471.5,-1036.91 471.5,-1027.17 471.5,-1018.48"/>
<polygon fill="black" stroke="black" points="475,-1018.3 471.5,-1008.3 468,-1018.3 475,-1018.3"/>
</g>
<!-- tcp_sendmsg -->
<g id="node3" class="node"><title>tcp_sendmsg</title>
<polygon fill="Wheat" stroke="black" points="509.5,-950 433.5,-950 433.5,-928 509.5,-928 509.5,-950"/>
<text text-anchor="middle" x="471.5" y="-935.9" font-family="Times New Roman,serif" font-size="12.00" fill="blue">tcp_sendmsg</text>
</g>
<!-- inet_sendmsg&#45;&gt;tcp_sendmsg -->
<g id="edge2" class="edge"><title>inet_sendmsg&#45;&gt;tcp_sendmsg</title>
<path fill="none" stroke="black" d="M471.5,-985.988C471.5,-978.91 471.5,-969.171 471.5,-960.478"/>
<polygon fill="black" stroke="black" points="475,-960.304 471.5,-950.304 468,-960.304 475,-960.304"/>
</g>
<!-- lock_sock_nested -->
<g id="node4" class="node"><title>lock_sock_nested</title>
<polygon fill="Wheat" stroke="black" points="192,-892 93,-892 93,-870 192,-870 192,-892"/>
<text text-anchor="middle" x="142.5" y="-877.9" font-family="Times New Roman,serif" font-size="12.00" fill="blue">lock_sock_nested</text>
</g>
<!-- tcp_sendmsg&#45;&gt;lock_sock_nested -->
<g id="edge3" class="edge"><title>tcp_sendmsg&#45;&gt;lock_sock_nested</title>
<path fill="none" stroke="black" d="M433.347,-931.556C382.779,-923.008 290.5,-907.385 202.096,-892.27"/>
<polygon fill="black" stroke="black" points="202.62,-888.809 192.173,-890.573 201.439,-895.709 202.62,-888.809"/>
</g>
<!-- tcp_send_mss -->
<g id="node5" class="node"><title>tcp_send_mss</title>
<polygon fill="Wheat" stroke="black" points="291,-892 210,-892 210,-870 291,-870 291,-892"/>
<text text-anchor="middle" x="250.5" y="-877.9" font-family="Times New Roman,serif" font-size="12.00" fill="blue">tcp_send_mss</text>
</g>
<!-- tcp_sendmsg&#45;&gt;tcp_send_mss -->
<g id="edge4" class="edge"><title>tcp_sendmsg&#45;&gt;tcp_send_mss</title>
<path fill="none" stroke="black" d="M433.257,-928.309C396.357,-918.959 340.313,-904.758 300.019,-894.548"/>
<polygon fill="black" stroke="black" points="300.689,-891.107 290.136,-892.043 298.97,-897.893 300.689,-891.107"/>
</g>
<!-- sk_stream_alloc_skb -->
<g id="node11" class="node"><title>sk_stream_alloc_skb</title>
<polygon fill="Wheat" stroke="black" points="422,-892 309,-892 309,-870 422,-870 422,-892"/>
<text text-anchor="middle" x="365.5" y="-877.9" font-family="Times New Roman,serif" font-size="12.00" fill="blue">sk_stream_alloc_skb</text>
</g>
<!-- tcp_sendmsg&#45;&gt;sk_stream_alloc_skb -->
<g id="edge10" class="edge"><title>tcp_sendmsg&#45;&gt;sk_stream_alloc_skb</title>
<path fill="none" stroke="black" d="M452.549,-927.988C436.146,-919.322 412.196,-906.67 393.568,-896.828"/>
<polygon fill="black" stroke="black" points="395.121,-893.69 384.644,-892.114 391.851,-899.88 395.121,-893.69"/>
</g>
<!-- skb_entail -->
<g id="node14" class="node"><title>skb_entail</title>
<polygon fill="Wheat" stroke="black" points="502.5,-892 440.5,-892 440.5,-870 502.5,-870 502.5,-892"/>
<text text-anchor="middle" x="471.5" y="-877.9" font-family="Times New Roman,serif" font-size="12.00" fill="blue">skb_entail</text>
</g>
<!-- tcp_sendmsg&#45;&gt;skb_entail -->
<g id="edge13" class="edge"><title>tcp_sendmsg&#45;&gt;skb_entail</title>
<path fill="none" stroke="black" d="M471.5,-927.988C471.5,-920.91 471.5,-911.171 471.5,-902.478"/>
<polygon fill="black" stroke="black" points="475,-902.304 471.5,-892.304 468,-902.304 475,-902.304"/>
</g>
<!-- skb_put -->
<g id="node15" class="node"><title>skb_put</title>
<polygon fill="Wheat" stroke="black" points="574.5,-892 520.5,-892 520.5,-870 574.5,-870 574.5,-892"/>
<text text-anchor="middle" x="547.5" y="-877.9" font-family="Times New Roman,serif" font-size="12.00" fill="blue">skb_put</text>
</g>
<!-- tcp_sendmsg&#45;&gt;skb_put -->
<g id="edge14" class="edge"><title>tcp_sendmsg&#45;&gt;skb_put</title>
<path fill="none" stroke="black" d="M485.087,-927.988C496.365,-919.678 512.618,-907.703 525.711,-898.055"/>
<polygon fill="black" stroke="black" points="527.8,-900.864 533.774,-892.114 523.647,-895.228 527.8,-900.864"/>
</g>
<!-- tcp_push -->
<g id="node16" class="node"><title>tcp_push</title>
<polygon fill="Wheat" stroke="black" points="650.5,-892 592.5,-892 592.5,-870 650.5,-870 650.5,-892"/>
<text text-anchor="middle" x="621.5" y="-877.9" font-family="Times New Roman,serif" font-size="12.00" fill="blue">tcp_push</text>
</g>
<!-- tcp_sendmsg&#45;&gt;tcp_push -->
<g id="edge15" class="edge"><title>tcp_sendmsg&#45;&gt;tcp_push</title>
<path fill="none" stroke="black" d="M498.317,-927.988C522.559,-918.938 558.447,-905.54 585.241,-895.537"/>
<polygon fill="black" stroke="black" points="586.518,-898.796 594.663,-892.019 584.07,-892.238 586.518,-898.796"/>
</g>
<!-- release_sock -->
<g id="node66" class="node"><title>release_sock</title>
<polygon fill="Wheat" stroke="black" points="769.5,-892 693.5,-892 693.5,-870 769.5,-870 769.5,-892"/>
<text text-anchor="middle" x="731.5" y="-877.9" font-family="Times New Roman,serif" font-size="12.00" fill="blue">release_sock</text>
</g>
<!-- tcp_sendmsg&#45;&gt;release_sock -->
<g id="edge69" class="edge"><title>tcp_sendmsg&#45;&gt;release_sock</title>
<path fill="none" stroke="black" d="M509.585,-929.797C555.638,-919.878 633.201,-903.172 683.357,-892.369"/>
<polygon fill="black" stroke="black" points="684.275,-895.752 693.313,-890.225 682.801,-888.909 684.275,-895.752"/>
</g>
<!-- tcp_current_mss -->
<g id="node6" class="node"><title>tcp_current_mss</title>
<polygon fill="Wheat" stroke="black" points="286.5,-834 194.5,-834 194.5,-812 286.5,-812 286.5,-834"/>
<text text-anchor="middle" x="240.5" y="-819.9" font-family="Times New Roman,serif" font-size="12.00" fill="blue">tcp_current_mss</text>
</g>
<!-- tcp_send_mss&#45;&gt;tcp_current_mss -->
<g id="edge5" class="edge"><title>tcp_send_mss&#45;&gt;tcp_current_mss</title>
<path fill="none" stroke="black" d="M248.712,-869.988C247.434,-862.831 245.67,-852.955 244.105,-844.189"/>
<polygon fill="black" stroke="black" points="247.543,-843.533 242.34,-834.304 240.652,-844.763 247.543,-843.533"/>
</g>
<!--  ipv4_mtu -->
<g id="node7" class="node"><title> ipv4_mtu</title>
<polygon fill="Wheat" stroke="black" points="250.5,-776 188.5,-776 188.5,-754 250.5,-754 250.5,-776"/>
<text text-anchor="middle" x="219.5" y="-761.9" font-family="Times New Roman,serif" font-size="12.00" fill="blue"> ipv4_mtu</text>
</g>
<!-- tcp_current_mss&#45;&gt; ipv4_mtu -->
<g id="edge6" class="edge"><title>tcp_current_mss&#45;&gt; ipv4_mtu</title>
<path fill="none" stroke="black" d="M236.746,-811.988C234.032,-804.752 230.276,-794.737 226.962,-785.9"/>
<polygon fill="black" stroke="black" points="230.152,-784.438 223.364,-776.304 223.598,-786.896 230.152,-784.438"/>
</g>
<!-- tcp_established_options -->
<g id="node8" class="node"><title>tcp_established_options</title>
<polygon fill="Wheat" stroke="black" points="341,-660 216,-660 216,-638 341,-638 341,-660"/>
<text text-anchor="middle" x="278.5" y="-645.9" font-family="Times New Roman,serif" font-size="12.00" fill="blue">tcp_established_options</text>
</g>
<!-- tcp_current_mss&#45;&gt;tcp_established_options -->
<g id="edge7" class="edge"><title>tcp_current_mss&#45;&gt;tcp_established_options</title>
<path fill="none" stroke="black" d="M245.621,-811.659C249.948,-802.499 255.988,-788.655 259.5,-776 269.605,-739.583 274.685,-695.659 276.946,-670.465"/>
<polygon fill="black" stroke="black" points="280.45,-670.558 277.794,-660.301 273.475,-669.975 280.45,-670.558"/>
</g>
<!-- tcp_v4_md5_lookup -->
<g id="node9" class="node"><title>tcp_v4_md5_lookup</title>
<polygon fill="Wheat" stroke="black" points="343.5,-602 231.5,-602 231.5,-580 343.5,-580 343.5,-602"/>
<text text-anchor="middle" x="287.5" y="-587.9" font-family="Times New Roman,serif" font-size="12.00" fill="blue">tcp_v4_md5_lookup</text>
</g>
<!-- tcp_established_options&#45;&gt;tcp_v4_md5_lookup -->
<g id="edge8" class="edge"><title>tcp_established_options&#45;&gt;tcp_v4_md5_lookup</title>
<path fill="none" stroke="black" d="M280.109,-637.988C281.259,-630.831 282.847,-620.955 284.255,-612.189"/>
<polygon fill="black" stroke="black" points="287.713,-612.733 285.844,-602.304 280.801,-611.622 287.713,-612.733"/>
</g>
<!-- tcp_md5_do_lookup -->
<g id="node10" class="node"><title>tcp_md5_do_lookup</title>
<polygon fill="Wheat" stroke="black" points="349,-544 236,-544 236,-522 349,-522 349,-544"/>
<text text-anchor="middle" x="292.5" y="-529.9" font-family="Times New Roman,serif" font-size="12.00" fill="blue">tcp_md5_do_lookup</text>
</g>
<!-- tcp_v4_md5_lookup&#45;&gt;tcp_md5_do_lookup -->
<g id="edge9" class="edge"><title>tcp_v4_md5_lookup&#45;&gt;tcp_md5_do_lookup</title>
<path fill="none" stroke="black" d="M288.394,-579.988C289.026,-572.91 289.895,-563.171 290.672,-554.478"/>
<polygon fill="black" stroke="black" points="294.177,-554.576 291.58,-544.304 287.204,-553.953 294.177,-554.576"/>
</g>
<!-- __alloc_skb -->
<g id="node12" class="node"><title>__alloc_skb</title>
<polygon fill="Wheat" stroke="black" points="376.5,-834 304.5,-834 304.5,-812 376.5,-812 376.5,-834"/>
<text text-anchor="middle" x="340.5" y="-819.9" font-family="Times New Roman,serif" font-size="12.00" fill="blue">__alloc_skb</text>
</g>
<!-- sk_stream_alloc_skb&#45;&gt;__alloc_skb -->
<g id="edge11" class="edge"><title>sk_stream_alloc_skb&#45;&gt;__alloc_skb</title>
<path fill="none" stroke="black" d="M361.031,-869.988C357.765,-862.674 353.232,-852.519 349.255,-843.612"/>
<polygon fill="black" stroke="black" points="352.372,-842.008 345.1,-834.304 345.981,-844.862 352.372,-842.008"/>
</g>
<!-- sk_forced_mem_schedule -->
<g id="node13" class="node"><title>sk_forced_mem_schedule</title>
<polygon fill="Wheat" stroke="black" points="530,-834 395,-834 395,-812 530,-812 530,-834"/>
<text text-anchor="middle" x="462.5" y="-819.9" font-family="Times New Roman,serif" font-size="12.00" fill="blue">sk_forced_mem_schedule</text>
</g>
<!-- sk_stream_alloc_skb&#45;&gt;sk_forced_mem_schedule -->
<g id="edge12" class="edge"><title>sk_stream_alloc_skb&#45;&gt;sk_forced_mem_schedule</title>
<path fill="none" stroke="black" d="M382.842,-869.988C397.647,-861.441 419.17,-849.015 436.112,-839.234"/>
<polygon fill="black" stroke="black" points="438.071,-842.145 444.981,-834.114 434.571,-836.083 438.071,-842.145"/>
</g>
<!-- __tcp_push_pending_frames -->
<g id="node17" class="node"><title>__tcp_push_pending_frames</title>
<polygon fill="Wheat" stroke="black" points="695,-834 548,-834 548,-812 695,-812 695,-834"/>
<text text-anchor="middle" x="621.5" y="-819.9" font-family="Times New Roman,serif" font-size="12.00" fill="blue">__tcp_push_pending_frames</text>
</g>
<!-- tcp_push&#45;&gt;__tcp_push_pending_frames -->
<g id="edge16" class="edge"><title>tcp_push&#45;&gt;__tcp_push_pending_frames</title>
<path fill="none" stroke="black" d="M621.5,-869.988C621.5,-862.91 621.5,-853.171 621.5,-844.478"/>
<polygon fill="black" stroke="black" points="625,-844.304 621.5,-834.304 618,-844.304 625,-844.304"/>
</g>
<!-- tcp_write_xmit -->
<g id="node18" class="node"><title>tcp_write_xmit</title>
<polygon fill="Wheat" stroke="black" points="663.5,-776 579.5,-776 579.5,-754 663.5,-754 663.5,-776"/>
<text text-anchor="middle" x="621.5" y="-761.9" font-family="Times New Roman,serif" font-size="12.00" fill="blue">tcp_write_xmit</text>
</g>
<!-- __tcp_push_pending_frames&#45;&gt;tcp_write_xmit -->
<g id="edge17" class="edge"><title>__tcp_push_pending_frames&#45;&gt;tcp_write_xmit</title>
<path fill="none" stroke="black" d="M621.5,-811.988C621.5,-804.91 621.5,-795.171 621.5,-786.478"/>
<polygon fill="black" stroke="black" points="625,-786.304 621.5,-776.304 618,-786.304 625,-786.304"/>
</g>
<!-- tcp_init_tso_segs -->
<g id="node19" class="node"><title>tcp_init_tso_segs</title>
<polygon fill="Wheat" stroke="black" points="424,-718 329,-718 329,-696 424,-696 424,-718"/>
<text text-anchor="middle" x="376.5" y="-703.9" font-family="Times New Roman,serif" font-size="12.00" fill="blue">tcp_init_tso_segs</text>
</g>
<!-- tcp_write_xmit&#45;&gt;tcp_init_tso_segs -->
<g id="edge18" class="edge"><title>tcp_write_xmit&#45;&gt;tcp_init_tso_segs</title>
<path fill="none" stroke="black" d="M579.383,-754.373C538.172,-744.954 475.23,-730.567 430.39,-720.318"/>
<polygon fill="black" stroke="black" points="431.073,-716.884 420.544,-718.067 429.513,-723.708 431.073,-716.884"/>
</g>
<!-- tcp_nagle_check -->
<g id="node21" class="node"><title>tcp_nagle_check</title>
<polygon fill="Wheat" stroke="black" points="556,-718 463,-718 463,-696 556,-696 556,-718"/>
<text text-anchor="middle" x="509.5" y="-703.9" font-family="Times New Roman,serif" font-size="12.00" fill="blue">tcp_nagle_check</text>
</g>
<!-- tcp_write_xmit&#45;&gt;tcp_nagle_check -->
<g id="edge20" class="edge"><title>tcp_write_xmit&#45;&gt;tcp_nagle_check</title>
<path fill="none" stroke="black" d="M601.477,-753.988C584.065,-745.283 558.608,-732.554 538.887,-722.694"/>
<polygon fill="black" stroke="black" points="540.237,-719.456 529.728,-718.114 537.107,-725.717 540.237,-719.456"/>
</g>
<!-- tcp_transmit_skb -->
<g id="node22" class="node"><title>tcp_transmit_skb</title>
<polygon fill="Wheat" stroke="black" points="669,-718 574,-718 574,-696 669,-696 669,-718"/>
<text text-anchor="middle" x="621.5" y="-703.9" font-family="Times New Roman,serif" font-size="12.00" fill="blue">tcp_transmit_skb</text>
</g>
<!-- tcp_write_xmit&#45;&gt;tcp_transmit_skb -->
<g id="edge21" class="edge"><title>tcp_write_xmit&#45;&gt;tcp_transmit_skb</title>
<path fill="none" stroke="black" d="M621.5,-753.988C621.5,-746.91 621.5,-737.171 621.5,-728.478"/>
<polygon fill="black" stroke="black" points="625,-728.304 621.5,-718.304 618,-728.304 625,-728.304"/>
</g>
<!-- tcp_event_new_data_sent -->
<g id="node62" class="node"><title>tcp_event_new_data_sent</title>
<polygon fill="Wheat" stroke="black" points="993,-718 858,-718 858,-696 993,-696 993,-718"/>
<text text-anchor="middle" x="925.5" y="-703.9" font-family="Times New Roman,serif" font-size="12.00" fill="blue">tcp_event_new_data_sent</text>
</g>
<!-- tcp_write_xmit&#45;&gt;tcp_event_new_data_sent -->
<g id="edge64" class="edge"><title>tcp_write_xmit&#45;&gt;tcp_event_new_data_sent</title>
<path fill="none" stroke="black" d="M663.77,-756.213C714.895,-746.796 801.484,-730.845 860.973,-719.886"/>
<polygon fill="black" stroke="black" points="861.813,-723.291 871.014,-718.037 860.545,-716.407 861.813,-723.291"/>
</g>
<!-- tcp_schedule_loss_probe -->
<g id="node65" class="node"><title>tcp_schedule_loss_probe</title>
<polygon fill="Wheat" stroke="black" points="1229.5,-718 1097.5,-718 1097.5,-696 1229.5,-696 1229.5,-718"/>
<text text-anchor="middle" x="1163.5" y="-703.9" font-family="Times New Roman,serif" font-size="12.00" fill="blue">tcp_schedule_loss_probe</text>
</g>
<!-- tcp_write_xmit&#45;&gt;tcp_schedule_loss_probe -->
<g id="edge67" class="edge"><title>tcp_write_xmit&#45;&gt;tcp_schedule_loss_probe</title>
<path fill="none" stroke="black" d="M663.579,-759.652C754.6,-750.248 970.903,-727.899 1086.9,-715.915"/>
<polygon fill="black" stroke="black" points="1087.53,-719.368 1097.12,-714.859 1086.81,-712.405 1087.53,-719.368"/>
</g>
<!-- tcp_set_skb_tso_segs -->
<g id="node20" class="node"><title>tcp_set_skb_tso_segs</title>
<polygon fill="Wheat" stroke="black" points="117,-660 7.10543e-015,-660 7.10543e-015,-638 117,-638 117,-660"/>
<text text-anchor="middle" x="58.5" y="-645.9" font-family="Times New Roman,serif" font-size="12.00" fill="blue">tcp_set_skb_tso_segs</text>
</g>
<!-- tcp_init_tso_segs&#45;&gt;tcp_set_skb_tso_segs -->
<g id="edge19" class="edge"><title>tcp_init_tso_segs&#45;&gt;tcp_set_skb_tso_segs</title>
<path fill="none" stroke="black" d="M328.892,-697.616C274.812,-688.093 186.182,-672.485 125.224,-661.75"/>
<polygon fill="black" stroke="black" points="125.767,-658.292 115.311,-660.004 124.553,-665.186 125.767,-658.292"/>
</g>
<!-- tcp_transmit_skb&#45;&gt;tcp_established_options -->
<g id="edge25" class="edge"><title>tcp_transmit_skb&#45;&gt;tcp_established_options</title>
<path fill="none" stroke="black" d="M573.851,-697.432C571.026,-696.942 568.226,-696.462 565.5,-696 492.75,-683.675 409.475,-670.423 351.432,-661.323"/>
<polygon fill="black" stroke="black" points="351.679,-657.819 341.258,-659.73 350.596,-664.735 351.679,-657.819"/>
</g>
<!-- skb_clone -->
<g id="node23" class="node"><title>skb_clone</title>
<polygon fill="Wheat" stroke="black" points="198,-660 135,-660 135,-638 198,-638 198,-660"/>
<text text-anchor="middle" x="166.5" y="-645.9" font-family="Times New Roman,serif" font-size="12.00" fill="blue">skb_clone</text>
</g>
<!-- tcp_transmit_skb&#45;&gt;skb_clone -->
<g id="edge22" class="edge"><title>tcp_transmit_skb&#45;&gt;skb_clone</title>
<path fill="none" stroke="black" d="M573.881,-697.24C571.049,-696.799 568.239,-696.381 565.5,-696 409.933,-674.343 366.257,-686.974 208.358,-660.128"/>
<polygon fill="black" stroke="black" points="208.738,-656.642 198.288,-658.389 207.546,-663.54 208.738,-656.642"/>
</g>
<!-- bictcp_cwnd_event -->
<g id="node26" class="node"><title>bictcp_cwnd_event</title>
<polygon fill="Wheat" stroke="black" points="464,-660 359,-660 359,-638 464,-638 464,-660"/>
<text text-anchor="middle" x="411.5" y="-645.9" font-family="Times New Roman,serif" font-size="12.00" fill="blue">bictcp_cwnd_event</text>
</g>
<!-- tcp_transmit_skb&#45;&gt;bictcp_cwnd_event -->
<g id="edge26" class="edge"><title>tcp_transmit_skb&#45;&gt;bictcp_cwnd_event</title>
<path fill="none" stroke="black" d="M578.64,-695.988C542.062,-686.7 489.905,-672.832 453.561,-662.754"/>
<polygon fill="black" stroke="black" points="454.328,-659.335 443.755,-660.019 452.447,-666.077 454.328,-659.335"/>
</g>
<!-- tcp_transmit_skb&#45;&gt;bictcp_cwnd_event -->
<g id="edge33" class="edge"><title>tcp_transmit_skb&#45;&gt;bictcp_cwnd_event</title>
<path fill="none" stroke="black" d="M589.272,-695.988C555.905,-686.621 503.445,-672.594 464.092,-662.497"/>
<polygon fill="black" stroke="black" points="464.945,-659.102 454.389,-660.019 463.213,-665.884 464.945,-659.102"/>
</g>
<!--  skb_push -->
<g id="node27" class="node"><title> skb_push</title>
<polygon fill="Wheat" stroke="black" points="545,-660 482,-660 482,-638 545,-638 545,-660"/>
<text text-anchor="middle" x="513.5" y="-645.9" font-family="Times New Roman,serif" font-size="12.00" fill="blue"> skb_push</text>
</g>
<!-- tcp_transmit_skb&#45;&gt; skb_push -->
<g id="edge27" class="edge"><title>tcp_transmit_skb&#45;&gt; skb_push</title>
<path fill="none" stroke="black" d="M602.192,-695.988C585.479,-687.322 561.077,-674.67 542.097,-664.828"/>
<polygon fill="black" stroke="black" points="543.494,-661.61 533.005,-660.114 540.272,-667.824 543.494,-661.61"/>
</g>
<!-- __tcp_select_window -->
<g id="node28" class="node"><title>__tcp_select_window</title>
<polygon fill="Wheat" stroke="black" points="679.5,-660 563.5,-660 563.5,-638 679.5,-638 679.5,-660"/>
<text text-anchor="middle" x="621.5" y="-645.9" font-family="Times New Roman,serif" font-size="12.00" fill="blue">__tcp_select_window</text>
</g>
<!-- tcp_transmit_skb&#45;&gt;__tcp_select_window -->
<g id="edge28" class="edge"><title>tcp_transmit_skb&#45;&gt;__tcp_select_window</title>
<path fill="none" stroke="black" d="M621.5,-695.988C621.5,-688.91 621.5,-679.171 621.5,-670.478"/>
<polygon fill="black" stroke="black" points="625,-670.304 621.5,-660.304 618,-670.304 625,-670.304"/>
</g>
<!-- tcp_options_write -->
<g id="node29" class="node"><title>tcp_options_write</title>
<polygon fill="Wheat" stroke="black" points="795.5,-660 697.5,-660 697.5,-638 795.5,-638 795.5,-660"/>
<text text-anchor="middle" x="746.5" y="-645.9" font-family="Times New Roman,serif" font-size="12.00" fill="blue">tcp_options_write</text>
</g>
<!-- tcp_transmit_skb&#45;&gt;tcp_options_write -->
<g id="edge29" class="edge"><title>tcp_transmit_skb&#45;&gt;tcp_options_write</title>
<path fill="none" stroke="black" d="M643.847,-695.988C663.545,-687.164 692.469,-674.206 714.598,-664.292"/>
<polygon fill="black" stroke="black" points="716.229,-667.396 723.925,-660.114 713.368,-661.008 716.229,-667.396"/>
</g>
<!-- tcp_v4_send_check -->
<g id="node30" class="node"><title>tcp_v4_send_check</title>
<polygon fill="Wheat" stroke="black" points="921.5,-660 813.5,-660 813.5,-638 921.5,-638 921.5,-660"/>
<text text-anchor="middle" x="867.5" y="-645.9" font-family="Times New Roman,serif" font-size="12.00" fill="blue">tcp_v4_send_check</text>
</g>
<!-- tcp_transmit_skb&#45;&gt;tcp_v4_send_check -->
<g id="edge30" class="edge"><title>tcp_transmit_skb&#45;&gt;tcp_v4_send_check</title>
<path fill="none" stroke="black" d="M665.48,-695.988C706.98,-686.541 769.292,-672.356 813.728,-662.241"/>
<polygon fill="black" stroke="black" points="814.513,-665.652 823.487,-660.019 812.959,-658.826 814.513,-665.652"/>
</g>
<!-- tcp_init_cwnd -->
<g id="node32" class="node"><title>tcp_init_cwnd</title>
<polygon fill="Wheat" stroke="black" points="1019.5,-660 939.5,-660 939.5,-638 1019.5,-638 1019.5,-660"/>
<text text-anchor="middle" x="979.5" y="-645.9" font-family="Times New Roman,serif" font-size="12.00" fill="blue">tcp_init_cwnd</text>
</g>
<!-- tcp_transmit_skb&#45;&gt;tcp_init_cwnd -->
<g id="edge32" class="edge"><title>tcp_transmit_skb&#45;&gt;tcp_init_cwnd</title>
<path fill="none" stroke="black" d="M669.006,-699.732C727.763,-691.802 831.08,-677.277 929.32,-660.136"/>
<polygon fill="black" stroke="black" points="930.179,-663.539 939.422,-658.361 928.967,-656.645 930.179,-663.539"/>
</g>
<!-- ip_queue_xmit -->
<g id="node33" class="node"><title>ip_queue_xmit</title>
<polygon fill="Wheat" stroke="black" points="1121,-660 1038,-660 1038,-638 1121,-638 1121,-660"/>
<text text-anchor="middle" x="1079.5" y="-645.9" font-family="Times New Roman,serif" font-size="12.00" fill="blue">ip_queue_xmit</text>
</g>
<!-- tcp_transmit_skb&#45;&gt;ip_queue_xmit -->
<g id="edge34" class="edge"><title>tcp_transmit_skb&#45;&gt;ip_queue_xmit</title>
<path fill="none" stroke="black" d="M669.287,-701.865C743.645,-695.154 891.731,-680.681 1027.62,-660.025"/>
<polygon fill="black" stroke="black" points="1028.45,-663.439 1037.8,-658.462 1027.38,-656.52 1028.45,-663.439"/>
</g>
<!-- __skb_clone -->
<g id="node24" class="node"><title>__skb_clone</title>
<polygon fill="Wheat" stroke="black" points="204,-602 129,-602 129,-580 204,-580 204,-602"/>
<text text-anchor="middle" x="166.5" y="-587.9" font-family="Times New Roman,serif" font-size="12.00" fill="blue">__skb_clone</text>
</g>
<!-- skb_clone&#45;&gt;__skb_clone -->
<g id="edge23" class="edge"><title>skb_clone&#45;&gt;__skb_clone</title>
<path fill="none" stroke="black" d="M166.5,-637.988C166.5,-630.91 166.5,-621.171 166.5,-612.478"/>
<polygon fill="black" stroke="black" points="170,-612.304 166.5,-602.304 163,-612.304 170,-612.304"/>
</g>
<!-- __copy_skb_header -->
<g id="node25" class="node"><title>__copy_skb_header</title>
<polygon fill="Wheat" stroke="black" points="217.5,-544 107.5,-544 107.5,-522 217.5,-522 217.5,-544"/>
<text text-anchor="middle" x="162.5" y="-529.9" font-family="Times New Roman,serif" font-size="12.00" fill="blue">__copy_skb_header</text>
</g>
<!-- __skb_clone&#45;&gt;__copy_skb_header -->
<g id="edge24" class="edge"><title>__skb_clone&#45;&gt;__copy_skb_header</title>
<path fill="none" stroke="black" d="M165.785,-579.988C165.279,-572.91 164.584,-563.171 163.963,-554.478"/>
<polygon fill="black" stroke="black" points="167.44,-554.029 163.236,-544.304 160.457,-554.528 167.44,-554.029"/>
</g>
<!-- __tcp_v4_send_check -->
<g id="node31" class="node"><title>__tcp_v4_send_check</title>
<polygon fill="Wheat" stroke="black" points="914.5,-602 794.5,-602 794.5,-580 914.5,-580 914.5,-602"/>
<text text-anchor="middle" x="854.5" y="-587.9" font-family="Times New Roman,serif" font-size="12.00" fill="blue">__tcp_v4_send_check</text>
</g>
<!-- tcp_v4_send_check&#45;&gt;__tcp_v4_send_check -->
<g id="edge31" class="edge"><title>tcp_v4_send_check&#45;&gt;__tcp_v4_send_check</title>
<path fill="none" stroke="black" d="M865.176,-637.988C863.514,-630.831 861.222,-620.955 859.187,-612.189"/>
<polygon fill="black" stroke="black" points="862.563,-611.253 856.892,-602.304 855.744,-612.836 862.563,-611.253"/>
</g>
<!-- __sk_dst_check -->
<g id="node34" class="node"><title>__sk_dst_check</title>
<polygon fill="Wheat" stroke="black" points="1024.5,-602 932.5,-602 932.5,-580 1024.5,-580 1024.5,-602"/>
<text text-anchor="middle" x="978.5" y="-587.9" font-family="Times New Roman,serif" font-size="12.00" fill="blue">__sk_dst_check</text>
</g>
<!-- ip_queue_xmit&#45;&gt;__sk_dst_check -->
<g id="edge35" class="edge"><title>ip_queue_xmit&#45;&gt;__sk_dst_check</title>
<path fill="none" stroke="black" d="M1061.44,-637.988C1045.88,-629.362 1023.2,-616.785 1005.49,-606.963"/>
<polygon fill="black" stroke="black" points="1007.18,-603.902 996.741,-602.114 1003.79,-610.024 1007.18,-603.902"/>
</g>
<!--  &#160;skb_push -->
<g id="node36" class="node"><title> &#160;skb_push</title>
<polygon fill="Wheat" stroke="black" points="1108.5,-602 1042.5,-602 1042.5,-580 1108.5,-580 1108.5,-602"/>
<text text-anchor="middle" x="1075.5" y="-587.9" font-family="Times New Roman,serif" font-size="12.00" fill="blue"> &#160;skb_push</text>
</g>
<!-- ip_queue_xmit&#45;&gt; &#160;skb_push -->
<g id="edge37" class="edge"><title>ip_queue_xmit&#45;&gt; &#160;skb_push</title>
<path fill="none" stroke="black" d="M1078.78,-637.988C1078.28,-630.91 1077.58,-621.171 1076.96,-612.478"/>
<polygon fill="black" stroke="black" points="1080.44,-612.029 1076.24,-602.304 1073.46,-612.528 1080.44,-612.029"/>
</g>
<!-- ip_local_out_sk -->
<g id="node37" class="node"><title>ip_local_out_sk</title>
<polygon fill="Wheat" stroke="black" points="1216,-602 1127,-602 1127,-580 1216,-580 1216,-602"/>
<text text-anchor="middle" x="1171.5" y="-587.9" font-family="Times New Roman,serif" font-size="12.00" fill="blue">ip_local_out_sk</text>
</g>
<!-- ip_queue_xmit&#45;&gt;ip_local_out_sk -->
<g id="edge38" class="edge"><title>ip_queue_xmit&#45;&gt;ip_local_out_sk</title>
<path fill="none" stroke="black" d="M1095.95,-637.988C1109.86,-629.52 1130.03,-617.245 1146.02,-607.507"/>
<polygon fill="black" stroke="black" points="1148.16,-610.303 1154.88,-602.114 1144.52,-604.324 1148.16,-610.303"/>
</g>
<!-- ipv4_dst_check -->
<g id="node35" class="node"><title>ipv4_dst_check</title>
<polygon fill="Wheat" stroke="black" points="1023,-544 934,-544 934,-522 1023,-522 1023,-544"/>
<text text-anchor="middle" x="978.5" y="-529.9" font-family="Times New Roman,serif" font-size="12.00" fill="blue">ipv4_dst_check</text>
</g>
<!-- __sk_dst_check&#45;&gt;ipv4_dst_check -->
<g id="edge36" class="edge"><title>__sk_dst_check&#45;&gt;ipv4_dst_check</title>
<path fill="none" stroke="black" d="M978.5,-579.988C978.5,-572.91 978.5,-563.171 978.5,-554.478"/>
<polygon fill="black" stroke="black" points="982,-554.304 978.5,-544.304 975,-554.304 982,-554.304"/>
</g>
<!-- __ip_local_out_sk -->
<g id="node38" class="node"><title>__ip_local_out_sk</title>
<polygon fill="Wheat" stroke="black" points="1182,-544 1081,-544 1081,-522 1182,-522 1182,-544"/>
<text text-anchor="middle" x="1131.5" y="-529.9" font-family="Times New Roman,serif" font-size="12.00" fill="blue">__ip_local_out_sk</text>
</g>
<!-- ip_local_out_sk&#45;&gt;__ip_local_out_sk -->
<g id="edge39" class="edge"><title>ip_local_out_sk&#45;&gt;__ip_local_out_sk</title>
<path fill="none" stroke="black" d="M1164.35,-579.988C1158.9,-572.359 1151.24,-561.64 1144.69,-552.47"/>
<polygon fill="black" stroke="black" points="1147.52,-550.407 1138.86,-544.304 1141.82,-554.476 1147.52,-550.407"/>
</g>
<!-- ip_output -->
<g id="node41" class="node"><title>ip_output</title>
<polygon fill="Wheat" stroke="black" points="1259,-544 1200,-544 1200,-522 1259,-522 1259,-544"/>
<text text-anchor="middle" x="1229.5" y="-529.9" font-family="Times New Roman,serif" font-size="12.00" fill="blue">ip_output</text>
</g>
<!-- ip_local_out_sk&#45;&gt;ip_output -->
<g id="edge42" class="edge"><title>ip_local_out_sk&#45;&gt;ip_output</title>
<path fill="none" stroke="black" d="M1181.87,-579.988C1190.1,-572.045 1201.79,-560.751 1211.54,-551.344"/>
<polygon fill="black" stroke="black" points="1214.07,-553.768 1218.83,-544.304 1209.2,-548.732 1214.07,-553.768"/>
</g>
<!-- nf_hook_slow -->
<g id="node39" class="node"><title>nf_hook_slow</title>
<polygon fill="Wheat" stroke="black" points="1172,-486 1091,-486 1091,-464 1172,-464 1172,-486"/>
<text text-anchor="middle" x="1131.5" y="-471.9" font-family="Times New Roman,serif" font-size="12.00" fill="blue">nf_hook_slow</text>
</g>
<!-- __ip_local_out_sk&#45;&gt;nf_hook_slow -->
<g id="edge40" class="edge"><title>__ip_local_out_sk&#45;&gt;nf_hook_slow</title>
<path fill="none" stroke="black" d="M1131.5,-521.988C1131.5,-514.91 1131.5,-505.171 1131.5,-496.478"/>
<polygon fill="black" stroke="black" points="1135,-496.304 1131.5,-486.304 1128,-496.304 1135,-496.304"/>
</g>
<!-- nf_iterate -->
<g id="node40" class="node"><title>nf_iterate</title>
<polygon fill="Wheat" stroke="black" points="1147,-428 1088,-428 1088,-406 1147,-406 1147,-428"/>
<text text-anchor="middle" x="1117.5" y="-413.9" font-family="Times New Roman,serif" font-size="12.00" fill="blue">nf_iterate</text>
</g>
<!-- nf_hook_slow&#45;&gt;nf_iterate -->
<g id="edge41" class="edge"><title>nf_hook_slow&#45;&gt;nf_iterate</title>
<path fill="none" stroke="black" d="M1129,-463.988C1127.21,-456.831 1124.74,-446.955 1122.55,-438.189"/>
<polygon fill="black" stroke="black" points="1125.9,-437.156 1120.08,-428.304 1119.11,-438.854 1125.9,-437.156"/>
</g>
<!-- ip_output&#45;&gt;nf_hook_slow -->
<g id="edge43" class="edge"><title>ip_output&#45;&gt;nf_hook_slow</title>
<path fill="none" stroke="black" d="M1211.98,-521.988C1197.02,-513.441 1175.28,-501.015 1158.16,-491.234"/>
<polygon fill="black" stroke="black" points="1159.62,-488.036 1149.2,-486.114 1156.15,-494.114 1159.62,-488.036"/>
</g>
<!-- ip_finish_output -->
<g id="node42" class="node"><title>ip_finish_output</title>
<polygon fill="Wheat" stroke="black" points="1306.5,-486 1218.5,-486 1218.5,-464 1306.5,-464 1306.5,-486"/>
<text text-anchor="middle" x="1262.5" y="-471.9" font-family="Times New Roman,serif" font-size="12.00" fill="blue">ip_finish_output</text>
</g>
<!-- ip_output&#45;&gt;ip_finish_output -->
<g id="edge44" class="edge"><title>ip_output&#45;&gt;ip_finish_output</title>
<path fill="none" stroke="black" d="M1235.4,-521.988C1239.8,-514.517 1245.95,-504.081 1251.28,-495.039"/>
<polygon fill="black" stroke="black" points="1254.37,-496.696 1256.43,-486.304 1248.34,-493.142 1254.37,-496.696"/>
</g>
<!-- ipv4_mtu -->
<g id="node43" class="node"><title>ipv4_mtu</title>
<polygon fill="Wheat" stroke="black" points="1224,-428 1165,-428 1165,-406 1224,-406 1224,-428"/>
<text text-anchor="middle" x="1194.5" y="-413.9" font-family="Times New Roman,serif" font-size="12.00" fill="blue">ipv4_mtu</text>
</g>
<!-- ip_finish_output&#45;&gt;ipv4_mtu -->
<g id="edge45" class="edge"><title>ip_finish_output&#45;&gt;ipv4_mtu</title>
<path fill="none" stroke="black" d="M1250.34,-463.988C1240.51,-455.887 1226.44,-444.303 1214.88,-434.787"/>
<polygon fill="black" stroke="black" points="1216.96,-431.959 1207.01,-428.304 1212.51,-437.363 1216.96,-431.959"/>
</g>
<!--  &#160;&#160;skb_push -->
<g id="node44" class="node"><title> &#160;&#160;skb_push</title>
<polygon fill="Wheat" stroke="black" points="1311,-428 1242,-428 1242,-406 1311,-406 1311,-428"/>
<text text-anchor="middle" x="1276.5" y="-413.9" font-family="Times New Roman,serif" font-size="12.00" fill="blue"> &#160;&#160;skb_push</text>
</g>
<!-- ip_finish_output&#45;&gt; &#160;&#160;skb_push -->
<g id="edge46" class="edge"><title>ip_finish_output&#45;&gt; &#160;&#160;skb_push</title>
<path fill="none" stroke="black" d="M1265,-463.988C1266.79,-456.831 1269.26,-446.955 1271.45,-438.189"/>
<polygon fill="black" stroke="black" points="1274.89,-438.854 1273.92,-428.304 1268.1,-437.156 1274.89,-438.854"/>
</g>
<!-- dev_queue_xmit -->
<g id="node45" class="node"><title>dev_queue_xmit</title>
<polygon fill="Wheat" stroke="black" points="1420,-428 1329,-428 1329,-406 1420,-406 1420,-428"/>
<text text-anchor="middle" x="1374.5" y="-413.9" font-family="Times New Roman,serif" font-size="12.00" fill="blue">dev_queue_xmit</text>
</g>
<!-- ip_finish_output&#45;&gt;dev_queue_xmit -->
<g id="edge47" class="edge"><title>ip_finish_output&#45;&gt;dev_queue_xmit</title>
<path fill="none" stroke="black" d="M1282.52,-463.988C1299.93,-455.283 1325.39,-442.554 1345.11,-432.694"/>
<polygon fill="black" stroke="black" points="1346.89,-435.717 1354.27,-428.114 1343.76,-429.456 1346.89,-435.717"/>
</g>
<!-- __dev_queue_xmit -->
<g id="node46" class="node"><title>__dev_queue_xmit</title>
<polygon fill="Wheat" stroke="black" points="1426,-370 1323,-370 1323,-348 1426,-348 1426,-370"/>
<text text-anchor="middle" x="1374.5" y="-355.9" font-family="Times New Roman,serif" font-size="12.00" fill="blue">__dev_queue_xmit</text>
</g>
<!-- dev_queue_xmit&#45;&gt;__dev_queue_xmit -->
<g id="edge48" class="edge"><title>dev_queue_xmit&#45;&gt;__dev_queue_xmit</title>
<path fill="none" stroke="black" d="M1374.5,-405.988C1374.5,-398.91 1374.5,-389.171 1374.5,-380.478"/>
<polygon fill="black" stroke="black" points="1378,-380.304 1374.5,-370.304 1371,-380.304 1378,-380.304"/>
</g>
<!-- netdev_pick_tx -->
<g id="node47" class="node"><title>netdev_pick_tx</title>
<polygon fill="Wheat" stroke="black" points="1355.5,-312 1269.5,-312 1269.5,-290 1355.5,-290 1355.5,-312"/>
<text text-anchor="middle" x="1312.5" y="-297.9" font-family="Times New Roman,serif" font-size="12.00" fill="blue">netdev_pick_tx</text>
</g>
<!-- __dev_queue_xmit&#45;&gt;netdev_pick_tx -->
<g id="edge49" class="edge"><title>__dev_queue_xmit&#45;&gt;netdev_pick_tx</title>
<path fill="none" stroke="black" d="M1363.42,-347.988C1354.53,-339.966 1341.87,-328.527 1331.39,-319.065"/>
<polygon fill="black" stroke="black" points="1333.67,-316.409 1323.91,-312.304 1328.98,-321.604 1333.67,-316.409"/>
</g>
<!-- sch_direct_xmit -->
<g id="node50" class="node"><title>sch_direct_xmit</title>
<polygon fill="Wheat" stroke="black" points="1471.5,-312 1383.5,-312 1383.5,-290 1471.5,-290 1471.5,-312"/>
<text text-anchor="middle" x="1427.5" y="-297.9" font-family="Times New Roman,serif" font-size="12.00" fill="blue">sch_direct_xmit</text>
</g>
<!-- __dev_queue_xmit&#45;&gt;sch_direct_xmit -->
<g id="edge52" class="edge"><title>__dev_queue_xmit&#45;&gt;sch_direct_xmit</title>
<path fill="none" stroke="black" d="M1383.98,-347.988C1391.42,-340.123 1401.97,-328.974 1410.82,-319.624"/>
<polygon fill="black" stroke="black" points="1413.42,-321.973 1417.75,-312.304 1408.33,-317.161 1413.42,-321.973"/>
</g>
<!-- __netdev_pick_tx -->
<g id="node48" class="node"><title>__netdev_pick_tx</title>
<polygon fill="Wheat" stroke="black" points="1351.5,-254 1253.5,-254 1253.5,-232 1351.5,-232 1351.5,-254"/>
<text text-anchor="middle" x="1302.5" y="-239.9" font-family="Times New Roman,serif" font-size="12.00" fill="blue">__netdev_pick_tx</text>
</g>
<!-- netdev_pick_tx&#45;&gt;__netdev_pick_tx -->
<g id="edge50" class="edge"><title>netdev_pick_tx&#45;&gt;__netdev_pick_tx</title>
<path fill="none" stroke="black" d="M1310.71,-289.988C1309.43,-282.831 1307.67,-272.955 1306.11,-264.189"/>
<polygon fill="black" stroke="black" points="1309.54,-263.533 1304.34,-254.304 1302.65,-264.763 1309.54,-263.533"/>
</g>
<!-- __skb_tx_hash -->
<g id="node49" class="node"><title>__skb_tx_hash</title>
<polygon fill="Wheat" stroke="black" points="1345.5,-196 1259.5,-196 1259.5,-174 1345.5,-174 1345.5,-196"/>
<text text-anchor="middle" x="1302.5" y="-181.9" font-family="Times New Roman,serif" font-size="12.00" fill="blue">__skb_tx_hash</text>
</g>
<!-- __netdev_pick_tx&#45;&gt;__skb_tx_hash -->
<g id="edge51" class="edge"><title>__netdev_pick_tx&#45;&gt;__skb_tx_hash</title>
<path fill="none" stroke="black" d="M1302.5,-231.988C1302.5,-224.91 1302.5,-215.171 1302.5,-206.478"/>
<polygon fill="black" stroke="black" points="1306,-206.304 1302.5,-196.304 1299,-206.304 1306,-206.304"/>
</g>
<!-- validate_xmit_skb_list -->
<g id="node51" class="node"><title>validate_xmit_skb_list</title>
<polygon fill="Wheat" stroke="black" points="1485.5,-254 1369.5,-254 1369.5,-232 1485.5,-232 1485.5,-254"/>
<text text-anchor="middle" x="1427.5" y="-239.9" font-family="Times New Roman,serif" font-size="12.00" fill="blue">validate_xmit_skb_list</text>
</g>
<!-- sch_direct_xmit&#45;&gt;validate_xmit_skb_list -->
<g id="edge53" class="edge"><title>sch_direct_xmit&#45;&gt;validate_xmit_skb_list</title>
<path fill="none" stroke="black" d="M1427.5,-289.988C1427.5,-282.91 1427.5,-273.171 1427.5,-264.478"/>
<polygon fill="black" stroke="black" points="1431,-264.304 1427.5,-254.304 1424,-264.304 1431,-264.304"/>
</g>
<!-- dev_hard_start_xmit -->
<g id="node52" class="node"><title>dev_hard_start_xmit</title>
<polygon fill="Wheat" stroke="black" points="1613.5,-254 1503.5,-254 1503.5,-232 1613.5,-232 1613.5,-254"/>
<text text-anchor="middle" x="1558.5" y="-239.9" font-family="Times New Roman,serif" font-size="12.00" fill="blue">dev_hard_start_xmit</text>
</g>
<!-- sch_direct_xmit&#45;&gt;dev_hard_start_xmit -->
<g id="edge54" class="edge"><title>sch_direct_xmit&#45;&gt;dev_hard_start_xmit</title>
<path fill="none" stroke="black" d="M1450.92,-289.988C1471.66,-281.124 1502.15,-268.09 1525.38,-258.159"/>
<polygon fill="black" stroke="black" points="1527.02,-261.263 1534.84,-254.114 1524.27,-254.826 1527.02,-261.263"/>
</g>
<!--  skb_clone -->
<g id="node53" class="node"><title> skb_clone</title>
<polygon fill="Wheat" stroke="black" points="1506.5,-196 1440.5,-196 1440.5,-174 1506.5,-174 1506.5,-196"/>
<text text-anchor="middle" x="1473.5" y="-181.9" font-family="Times New Roman,serif" font-size="12.00" fill="blue"> skb_clone</text>
</g>
<!-- dev_hard_start_xmit&#45;&gt; skb_clone -->
<g id="edge55" class="edge"><title>dev_hard_start_xmit&#45;&gt; skb_clone</title>
<path fill="none" stroke="black" d="M1543.3,-231.988C1530.57,-223.599 1512.17,-211.474 1497.45,-201.78"/>
<polygon fill="black" stroke="black" points="1499.13,-198.693 1488.85,-196.114 1495.28,-204.538 1499.13,-198.693"/>
</g>
<!-- packet_rcv -->
<g id="node54" class="node"><title>packet_rcv</title>
<polygon fill="Wheat" stroke="black" points="1592.5,-196 1524.5,-196 1524.5,-174 1592.5,-174 1592.5,-196"/>
<text text-anchor="middle" x="1558.5" y="-181.9" font-family="Times New Roman,serif" font-size="12.00" fill="blue">packet_rcv</text>
</g>
<!-- dev_hard_start_xmit&#45;&gt;packet_rcv -->
<g id="edge56" class="edge"><title>dev_hard_start_xmit&#45;&gt;packet_rcv</title>
<path fill="none" stroke="black" d="M1558.5,-231.988C1558.5,-224.91 1558.5,-215.171 1558.5,-206.478"/>
<polygon fill="black" stroke="black" points="1562,-206.304 1558.5,-196.304 1555,-206.304 1562,-206.304"/>
</g>
<!-- netdev_start_xmit -->
<g id="node55" class="node"><title>netdev_start_xmit</title>
<polygon fill="Wheat" stroke="black" points="1708,-196 1611,-196 1611,-174 1708,-174 1708,-196"/>
<text text-anchor="middle" x="1659.5" y="-181.9" font-family="Times New Roman,serif" font-size="12.00" fill="blue">netdev_start_xmit</text>
</g>
<!-- dev_hard_start_xmit&#45;&gt;netdev_start_xmit -->
<g id="edge57" class="edge"><title>dev_hard_start_xmit&#45;&gt;netdev_start_xmit</title>
<path fill="none" stroke="black" d="M1576.56,-231.988C1592.12,-223.362 1614.8,-210.785 1632.51,-200.963"/>
<polygon fill="black" stroke="black" points="1634.21,-204.024 1641.26,-196.114 1630.82,-197.902 1634.21,-204.024"/>
</g>
<!-- skb_push -->
<g id="node56" class="node"><title>skb_push</title>
<polygon fill="Wheat" stroke="black" points="1544.5,-138 1484.5,-138 1484.5,-116 1544.5,-116 1544.5,-138"/>
<text text-anchor="middle" x="1514.5" y="-123.9" font-family="Times New Roman,serif" font-size="12.00" fill="blue">skb_push</text>
</g>
<!-- packet_rcv&#45;&gt;skb_push -->
<g id="edge58" class="edge"><title>packet_rcv&#45;&gt;skb_push</title>
<path fill="none" stroke="black" d="M1550.63,-173.988C1544.58,-166.281 1536.04,-155.419 1528.79,-146.187"/>
<polygon fill="black" stroke="black" points="1531.53,-144.005 1522.6,-138.304 1526.02,-148.329 1531.53,-144.005"/>
</g>
<!-- consume_skb -->
<g id="node57" class="node"><title>consume_skb</title>
<polygon fill="Wheat" stroke="black" points="1642,-138 1563,-138 1563,-116 1642,-116 1642,-138"/>
<text text-anchor="middle" x="1602.5" y="-123.9" font-family="Times New Roman,serif" font-size="12.00" fill="blue">consume_skb</text>
</g>
<!-- packet_rcv&#45;&gt;consume_skb -->
<g id="edge59" class="edge"><title>packet_rcv&#45;&gt;consume_skb</title>
<path fill="none" stroke="black" d="M1566.37,-173.988C1572.42,-166.281 1580.96,-155.419 1588.21,-146.187"/>
<polygon fill="black" stroke="black" points="1590.98,-148.329 1594.4,-138.304 1585.47,-144.005 1590.98,-148.329"/>
</g>
<!-- skb_release_all -->
<g id="node58" class="node"><title>skb_release_all</title>
<polygon fill="Wheat" stroke="black" points="1594.5,-80 1508.5,-80 1508.5,-58 1594.5,-58 1594.5,-80"/>
<text text-anchor="middle" x="1551.5" y="-65.9" font-family="Times New Roman,serif" font-size="12.00" fill="blue">skb_release_all</text>
</g>
<!-- consume_skb&#45;&gt;skb_release_all -->
<g id="edge60" class="edge"><title>consume_skb&#45;&gt;skb_release_all</title>
<path fill="none" stroke="black" d="M1593.38,-115.988C1586.29,-108.202 1576.27,-97.1971 1567.81,-87.9049"/>
<polygon fill="black" stroke="black" points="1570.2,-85.3407 1560.88,-80.3039 1565.03,-90.054 1570.2,-85.3407"/>
</g>
<!-- kfree_skbmem -->
<g id="node61" class="node"><title>kfree_skbmem</title>
<polygon fill="Wheat" stroke="black" points="1696.5,-80 1612.5,-80 1612.5,-58 1696.5,-58 1696.5,-80"/>
<text text-anchor="middle" x="1654.5" y="-65.9" font-family="Times New Roman,serif" font-size="12.00" fill="blue">kfree_skbmem</text>
</g>
<!-- consume_skb&#45;&gt;kfree_skbmem -->
<g id="edge63" class="edge"><title>consume_skb&#45;&gt;kfree_skbmem</title>
<path fill="none" stroke="black" d="M1611.8,-115.988C1619.03,-108.202 1629.25,-97.1971 1637.87,-87.9049"/>
<polygon fill="black" stroke="black" points="1640.69,-90.0134 1644.93,-80.3039 1635.56,-85.2502 1640.69,-90.0134"/>
</g>
<!-- skb_release_head_state -->
<g id="node59" class="node"><title>skb_release_head_state</title>
<polygon fill="Wheat" stroke="black" points="1550,-22 1425,-22 1425,-0 1550,-0 1550,-22"/>
<text text-anchor="middle" x="1487.5" y="-7.9" font-family="Times New Roman,serif" font-size="12.00" fill="blue">skb_release_head_state</text>
</g>
<!-- skb_release_all&#45;&gt;skb_release_head_state -->
<g id="edge61" class="edge"><title>skb_release_all&#45;&gt;skb_release_head_state</title>
<path fill="none" stroke="black" d="M1540.06,-57.9883C1530.89,-49.966 1517.82,-38.5272 1507,-29.065"/>
<polygon fill="black" stroke="black" points="1509.11,-26.2549 1499.28,-22.3039 1504.5,-31.523 1509.11,-26.2549"/>
</g>
<!-- skb_release_data -->
<g id="node60" class="node"><title>skb_release_data</title>
<polygon fill="Wheat" stroke="black" points="1664.5,-22 1568.5,-22 1568.5,-0 1664.5,-0 1664.5,-22"/>
<text text-anchor="middle" x="1616.5" y="-7.9" font-family="Times New Roman,serif" font-size="12.00" fill="blue">skb_release_data</text>
</g>
<!-- skb_release_all&#45;&gt;skb_release_data -->
<g id="edge62" class="edge"><title>skb_release_all&#45;&gt;skb_release_data</title>
<path fill="none" stroke="black" d="M1563.12,-57.9883C1572.43,-49.966 1585.71,-38.5272 1596.69,-29.065"/>
<polygon fill="black" stroke="black" points="1599.25,-31.4826 1604.54,-22.3039 1594.68,-26.1794 1599.25,-31.4826"/>
</g>
<!-- tcp_rearm_rto -->
<g id="node63" class="node"><title>tcp_rearm_rto</title>
<polygon fill="Wheat" stroke="black" points="1236.5,-660 1154.5,-660 1154.5,-638 1236.5,-638 1236.5,-660"/>
<text text-anchor="middle" x="1195.5" y="-645.9" font-family="Times New Roman,serif" font-size="12.00" fill="blue">tcp_rearm_rto</text>
</g>
<!-- tcp_event_new_data_sent&#45;&gt;tcp_rearm_rto -->
<g id="edge65" class="edge"><title>tcp_event_new_data_sent&#45;&gt;tcp_rearm_rto</title>
<path fill="none" stroke="black" d="M973.771,-695.988C1021.78,-686.032 1095.16,-670.812 1144.2,-660.641"/>
<polygon fill="black" stroke="black" points="1145.19,-664.008 1154.27,-658.55 1143.77,-657.154 1145.19,-664.008"/>
</g>
<!-- sk_reset_timer -->
<g id="node64" class="node"><title>sk_reset_timer</title>
<polygon fill="Wheat" stroke="black" points="1317,-602 1234,-602 1234,-580 1317,-580 1317,-602"/>
<text text-anchor="middle" x="1275.5" y="-587.9" font-family="Times New Roman,serif" font-size="12.00" fill="blue">sk_reset_timer</text>
</g>
<!-- tcp_rearm_rto&#45;&gt;sk_reset_timer -->
<g id="edge66" class="edge"><title>tcp_rearm_rto&#45;&gt;sk_reset_timer</title>
<path fill="none" stroke="black" d="M1209.8,-637.988C1221.67,-629.678 1238.78,-617.703 1252.56,-608.055"/>
<polygon fill="black" stroke="black" points="1254.87,-610.716 1261.05,-602.114 1250.85,-604.981 1254.87,-610.716"/>
</g>
<!-- tcp_schedule_loss_probe&#45;&gt;sk_reset_timer -->
<g id="edge68" class="edge"><title>tcp_schedule_loss_probe&#45;&gt;sk_reset_timer</title>
<path fill="none" stroke="black" d="M1190.82,-695.984C1208.36,-688.386 1230.57,-676.431 1245.5,-660 1257.93,-646.321 1265.84,-626.661 1270.4,-611.996"/>
<polygon fill="black" stroke="black" points="1273.77,-612.933 1273.14,-602.357 1267.04,-611.017 1273.77,-612.933"/>
</g>
<!-- tcp_release_cb -->
<g id="node67" class="node"><title>tcp_release_cb</title>
<polygon fill="Wheat" stroke="black" points="799.5,-834 713.5,-834 713.5,-812 799.5,-812 799.5,-834"/>
<text text-anchor="middle" x="756.5" y="-819.9" font-family="Times New Roman,serif" font-size="12.00" fill="blue">tcp_release_cb</text>
</g>
<!-- release_sock&#45;&gt;tcp_release_cb -->
<g id="edge70" class="edge"><title>release_sock&#45;&gt;tcp_release_cb</title>
<path fill="none" stroke="black" d="M735.969,-869.988C739.235,-862.674 743.768,-852.519 747.745,-843.612"/>
<polygon fill="black" stroke="black" points="751.019,-844.862 751.9,-834.304 744.628,-842.008 751.019,-844.862"/>
</g>
</g>
</svg>
